G75*
%MOIN*%
%OFA0B0*%
%FSLAX24Y24*%
%IPPOS*%
%LPD*%
%AMOC8*
5,1,8,0,0,1.08239X$1,22.5*
%
%ADD10C,0.0060*%
%ADD11C,0.0100*%
%ADD12C,0.0050*%
%ADD13C,0.0040*%
%ADD14R,0.0006X0.0006*%
%ADD15R,0.0012X0.0006*%
%ADD16R,0.0012X0.0006*%
%ADD17C,0.0000*%
%ADD18R,0.0018X0.0006*%
%ADD19R,0.0024X0.0006*%
%ADD20R,0.0024X0.0006*%
%ADD21R,0.0030X0.0006*%
%ADD22R,0.0036X0.0006*%
%ADD23R,0.0036X0.0006*%
%ADD24R,0.0042X0.0006*%
%ADD25R,0.0006X0.0006*%
%ADD26R,0.0048X0.0006*%
%ADD27R,0.0054X0.0006*%
%ADD28R,0.0054X0.0006*%
%ADD29R,0.0060X0.0006*%
%ADD30R,0.0066X0.0006*%
%ADD31R,0.0066X0.0006*%
%ADD32R,0.0072X0.0006*%
%ADD33R,0.0072X0.0006*%
%ADD34R,0.0078X0.0006*%
%ADD35R,0.0084X0.0006*%
%ADD36R,0.0084X0.0006*%
%ADD37R,0.0090X0.0006*%
%ADD38R,0.0090X0.0006*%
%ADD39R,0.0096X0.0006*%
%ADD40R,0.0102X0.0006*%
%ADD41R,0.0102X0.0006*%
%ADD42R,0.0018X0.0006*%
%ADD43R,0.0108X0.0006*%
%ADD44R,0.0114X0.0006*%
%ADD45R,0.0114X0.0006*%
%ADD46R,0.0030X0.0006*%
%ADD47R,0.0120X0.0006*%
%ADD48R,0.0012X0.0006*%
%ADD49R,0.0006X0.0006*%
%ADD50R,0.0126X0.0006*%
%ADD51R,0.0126X0.0006*%
%ADD52R,0.0132X0.0006*%
%ADD53R,0.0042X0.0006*%
%ADD54R,0.0138X0.0006*%
%ADD55R,0.0042X0.0006*%
%ADD56R,0.0138X0.0006*%
%ADD57R,0.0048X0.0006*%
%ADD58R,0.0018X0.0006*%
%ADD59R,0.0144X0.0006*%
%ADD60R,0.0150X0.0006*%
%ADD61R,0.0018X0.0006*%
%ADD62R,0.0150X0.0006*%
%ADD63R,0.0156X0.0006*%
%ADD64R,0.0024X0.0006*%
%ADD65R,0.0162X0.0006*%
%ADD66R,0.0060X0.0006*%
%ADD67R,0.0162X0.0006*%
%ADD68R,0.0168X0.0006*%
%ADD69R,0.0174X0.0006*%
%ADD70R,0.0174X0.0006*%
%ADD71R,0.0180X0.0006*%
%ADD72R,0.0036X0.0006*%
%ADD73R,0.0186X0.0006*%
%ADD74R,0.0048X0.0006*%
%ADD75R,0.0186X0.0006*%
%ADD76R,0.0192X0.0006*%
%ADD77R,0.0054X0.0006*%
%ADD78R,0.0198X0.0006*%
%ADD79R,0.0096X0.0006*%
%ADD80R,0.0198X0.0006*%
%ADD81R,0.0204X0.0006*%
%ADD82R,0.0210X0.0006*%
%ADD83R,0.0108X0.0006*%
%ADD84R,0.0210X0.0006*%
%ADD85R,0.0216X0.0006*%
%ADD86R,0.0072X0.0006*%
%ADD87R,0.0222X0.0006*%
%ADD88R,0.0222X0.0006*%
%ADD89R,0.0120X0.0006*%
%ADD90R,0.0078X0.0006*%
%ADD91R,0.0228X0.0006*%
%ADD92R,0.0234X0.0006*%
%ADD93R,0.0234X0.0006*%
%ADD94R,0.0132X0.0006*%
%ADD95R,0.0240X0.0006*%
%ADD96R,0.0252X0.0006*%
%ADD97R,0.0252X0.0006*%
%ADD98R,0.0144X0.0006*%
%ADD99R,0.0108X0.0006*%
%ADD100R,0.0258X0.0006*%
%ADD101R,0.0264X0.0006*%
%ADD102R,0.0270X0.0006*%
%ADD103R,0.0270X0.0006*%
%ADD104R,0.0276X0.0006*%
%ADD105R,0.0132X0.0006*%
%ADD106R,0.0282X0.0006*%
%ADD107R,0.0288X0.0006*%
%ADD108R,0.0294X0.0006*%
%ADD109R,0.0300X0.0006*%
%ADD110R,0.0300X0.0006*%
%ADD111R,0.0192X0.0006*%
%ADD112R,0.0306X0.0006*%
%ADD113R,0.0156X0.0006*%
%ADD114R,0.0162X0.0006*%
%ADD115R,0.0078X0.0006*%
%ADD116R,0.0318X0.0006*%
%ADD117R,0.0132X0.0006*%
%ADD118R,0.0318X0.0006*%
%ADD119R,0.0324X0.0006*%
%ADD120R,0.0174X0.0006*%
%ADD121R,0.0330X0.0006*%
%ADD122R,0.0228X0.0006*%
%ADD123R,0.0336X0.0006*%
%ADD124R,0.0342X0.0006*%
%ADD125R,0.0348X0.0006*%
%ADD126R,0.0198X0.0006*%
%ADD127R,0.0204X0.0006*%
%ADD128R,0.0354X0.0006*%
%ADD129R,0.0390X0.0006*%
%ADD130R,0.0354X0.0006*%
%ADD131R,0.0246X0.0006*%
%ADD132R,0.0204X0.0006*%
%ADD133R,0.0396X0.0006*%
%ADD134R,0.0360X0.0006*%
%ADD135R,0.0252X0.0006*%
%ADD136R,0.0402X0.0006*%
%ADD137R,0.0366X0.0006*%
%ADD138R,0.0414X0.0006*%
%ADD139R,0.0372X0.0006*%
%ADD140R,0.0258X0.0006*%
%ADD141R,0.0420X0.0006*%
%ADD142R,0.0432X0.0006*%
%ADD143R,0.0378X0.0006*%
%ADD144R,0.0264X0.0006*%
%ADD145R,0.0444X0.0006*%
%ADD146R,0.0378X0.0006*%
%ADD147R,0.0450X0.0006*%
%ADD148R,0.0390X0.0006*%
%ADD149R,0.0462X0.0006*%
%ADD150R,0.0246X0.0006*%
%ADD151R,0.0474X0.0006*%
%ADD152R,0.0396X0.0006*%
%ADD153R,0.0282X0.0006*%
%ADD154R,0.0480X0.0006*%
%ADD155R,0.0396X0.0006*%
%ADD156R,0.0288X0.0006*%
%ADD157R,0.0492X0.0006*%
%ADD158R,0.0402X0.0006*%
%ADD159R,0.0498X0.0006*%
%ADD160R,0.0408X0.0006*%
%ADD161R,0.0510X0.0006*%
%ADD162R,0.0414X0.0006*%
%ADD163R,0.0522X0.0006*%
%ADD164R,0.0528X0.0006*%
%ADD165R,0.0420X0.0006*%
%ADD166R,0.0312X0.0006*%
%ADD167R,0.0276X0.0006*%
%ADD168R,0.0426X0.0006*%
%ADD169R,0.0426X0.0006*%
%ADD170R,0.0312X0.0006*%
%ADD171R,0.0432X0.0006*%
%ADD172R,0.0408X0.0006*%
%ADD173R,0.0294X0.0006*%
%ADD174R,0.0408X0.0006*%
%ADD175R,0.0444X0.0006*%
%ADD176R,0.0336X0.0006*%
%ADD177R,0.0306X0.0006*%
%ADD178R,0.0336X0.0006*%
%ADD179R,0.0312X0.0006*%
%ADD180R,0.0456X0.0006*%
%ADD181R,0.0342X0.0006*%
%ADD182R,0.0348X0.0006*%
%ADD183R,0.0318X0.0006*%
%ADD184R,0.0468X0.0006*%
%ADD185R,0.0468X0.0006*%
%ADD186R,0.0360X0.0006*%
%ADD187R,0.0330X0.0006*%
%ADD188R,0.0384X0.0006*%
%ADD189R,0.0480X0.0006*%
%ADD190R,0.0066X0.0006*%
%ADD191R,0.0384X0.0006*%
%ADD192R,0.0486X0.0006*%
%ADD193R,0.0552X0.0006*%
%ADD194R,0.0354X0.0006*%
%ADD195R,0.0372X0.0006*%
%ADD196R,0.0582X0.0006*%
%ADD197R,0.0378X0.0006*%
%ADD198R,0.0498X0.0006*%
%ADD199R,0.0612X0.0006*%
%ADD200R,0.0366X0.0006*%
%ADD201R,0.0504X0.0006*%
%ADD202R,0.0636X0.0006*%
%ADD203R,0.0654X0.0006*%
%ADD204R,0.0378X0.0006*%
%ADD205R,0.0516X0.0006*%
%ADD206R,0.0672X0.0006*%
%ADD207R,0.0690X0.0006*%
%ADD208R,0.0366X0.0006*%
%ADD209R,0.0702X0.0006*%
%ADD210R,0.0396X0.0006*%
%ADD211R,0.0534X0.0006*%
%ADD212R,0.0720X0.0006*%
%ADD213R,0.0540X0.0006*%
%ADD214R,0.0732X0.0006*%
%ADD215R,0.0366X0.0006*%
%ADD216R,0.0546X0.0006*%
%ADD217R,0.0750X0.0006*%
%ADD218R,0.0762X0.0006*%
%ADD219R,0.0558X0.0006*%
%ADD220R,0.0780X0.0006*%
%ADD221R,0.0564X0.0006*%
%ADD222R,0.0792X0.0006*%
%ADD223R,0.0438X0.0006*%
%ADD224R,0.0576X0.0006*%
%ADD225R,0.0810X0.0006*%
%ADD226R,0.0828X0.0006*%
%ADD227R,0.0588X0.0006*%
%ADD228R,0.0834X0.0006*%
%ADD229R,0.0594X0.0006*%
%ADD230R,0.0852X0.0006*%
%ADD231R,0.0474X0.0006*%
%ADD232R,0.0606X0.0006*%
%ADD233R,0.0858X0.0006*%
%ADD234R,0.0612X0.0006*%
%ADD235R,0.0876X0.0006*%
%ADD236R,0.0618X0.0006*%
%ADD237R,0.0888X0.0006*%
%ADD238R,0.0630X0.0006*%
%ADD239R,0.0894X0.0006*%
%ADD240R,0.0288X0.0006*%
%ADD241R,0.0636X0.0006*%
%ADD242R,0.0912X0.0006*%
%ADD243R,0.0522X0.0006*%
%ADD244R,0.0648X0.0006*%
%ADD245R,0.0924X0.0006*%
%ADD246R,0.0528X0.0006*%
%ADD247R,0.0654X0.0006*%
%ADD248R,0.0936X0.0006*%
%ADD249R,0.0666X0.0006*%
%ADD250R,0.0948X0.0006*%
%ADD251R,0.0462X0.0006*%
%ADD252R,0.0678X0.0006*%
%ADD253R,0.0960X0.0006*%
%ADD254R,0.0558X0.0006*%
%ADD255R,0.0504X0.0006*%
%ADD256R,0.0408X0.0006*%
%ADD257R,0.0684X0.0006*%
%ADD258R,0.0966X0.0006*%
%ADD259R,0.0564X0.0006*%
%ADD260R,0.0534X0.0006*%
%ADD261R,0.0696X0.0006*%
%ADD262R,0.0984X0.0006*%
%ADD263R,0.0570X0.0006*%
%ADD264R,0.0708X0.0006*%
%ADD265R,0.0996X0.0006*%
%ADD266R,0.0588X0.0006*%
%ADD267R,0.0576X0.0006*%
%ADD268R,0.0432X0.0006*%
%ADD269R,0.0726X0.0006*%
%ADD270R,0.1008X0.0006*%
%ADD271R,0.0600X0.0006*%
%ADD272R,0.0582X0.0006*%
%ADD273R,0.0738X0.0006*%
%ADD274R,0.0456X0.0006*%
%ADD275R,0.0762X0.0006*%
%ADD276R,0.0618X0.0006*%
%ADD277R,0.0582X0.0006*%
%ADD278R,0.0780X0.0006*%
%ADD279R,0.0798X0.0006*%
%ADD280R,0.0648X0.0006*%
%ADD281R,0.0498X0.0006*%
%ADD282R,0.0834X0.0006*%
%ADD283R,0.0660X0.0006*%
%ADD284R,0.0864X0.0006*%
%ADD285R,0.0666X0.0006*%
%ADD286R,0.1500X0.0006*%
%ADD287R,0.0678X0.0006*%
%ADD288R,0.0576X0.0006*%
%ADD289R,0.1500X0.0006*%
%ADD290R,0.0696X0.0006*%
%ADD291R,0.1818X0.0006*%
%ADD292R,0.0708X0.0006*%
%ADD293R,0.1800X0.0006*%
%ADD294R,0.1782X0.0006*%
%ADD295R,0.0744X0.0006*%
%ADD296R,0.1764X0.0006*%
%ADD297R,0.0348X0.0006*%
%ADD298R,0.0762X0.0006*%
%ADD299R,0.1746X0.0006*%
%ADD300R,0.0774X0.0006*%
%ADD301R,0.1728X0.0006*%
%ADD302R,0.0192X0.0006*%
%ADD303R,0.1716X0.0006*%
%ADD304R,0.1698X0.0006*%
%ADD305R,0.1686X0.0006*%
%ADD306R,0.0504X0.0006*%
%ADD307R,0.0924X0.0006*%
%ADD308R,0.0282X0.0006*%
%ADD309R,0.1674X0.0006*%
%ADD310R,0.0516X0.0006*%
%ADD311R,0.0126X0.0006*%
%ADD312R,0.1662X0.0006*%
%ADD313R,0.0522X0.0006*%
%ADD314R,0.1650X0.0006*%
%ADD315R,0.1638X0.0006*%
%ADD316R,0.0528X0.0006*%
%ADD317R,0.0894X0.0006*%
%ADD318R,0.0546X0.0006*%
%ADD319R,0.0570X0.0006*%
%ADD320R,0.0522X0.0006*%
%ADD321R,0.0816X0.0006*%
%ADD322R,0.0792X0.0006*%
%ADD323R,0.0870X0.0006*%
%ADD324R,0.0762X0.0006*%
%ADD325R,0.0738X0.0006*%
%ADD326R,0.0714X0.0006*%
%ADD327R,0.0846X0.0006*%
%ADD328R,0.0372X0.0006*%
%ADD329R,0.0840X0.0006*%
%ADD330R,0.0468X0.0006*%
%ADD331R,0.0828X0.0006*%
%ADD332R,0.0624X0.0006*%
%ADD333R,0.0822X0.0006*%
%ADD334R,0.0306X0.0006*%
%ADD335R,0.0606X0.0006*%
%ADD336R,0.0810X0.0006*%
%ADD337R,0.0438X0.0006*%
%ADD338R,0.0804X0.0006*%
%ADD339R,0.0798X0.0006*%
%ADD340R,0.0552X0.0006*%
%ADD341R,0.0786X0.0006*%
%ADD342R,0.0516X0.0006*%
%ADD343R,0.0402X0.0006*%
%ADD344R,0.0282X0.0006*%
%ADD345R,0.0492X0.0006*%
%ADD346R,0.0276X0.0006*%
%ADD347R,0.0744X0.0006*%
%ADD348R,0.0450X0.0006*%
%ADD349R,0.0744X0.0006*%
%ADD350R,0.0426X0.0006*%
%ADD351R,0.0384X0.0006*%
%ADD352R,0.0258X0.0006*%
%ADD353R,0.0702X0.0006*%
%ADD354R,0.0462X0.0006*%
%ADD355R,0.0672X0.0006*%
%ADD356R,0.0660X0.0006*%
%ADD357R,0.0138X0.0006*%
%ADD358R,0.0234X0.0006*%
%ADD359R,0.0228X0.0006*%
%ADD360R,0.0042X0.0006*%
%ADD361R,0.0288X0.0006*%
%ADD362R,0.0180X0.0006*%
%ADD363R,0.0264X0.0006*%
%ADD364R,0.0102X0.0006*%
%ADD365R,0.0222X0.0006*%
%ADD366R,0.0096X0.0006*%
%ADD367R,0.0084X0.0006*%
%ADD368R,0.0012X0.0006*%
%ADD369R,0.0294X0.0006*%
%ADD370R,0.0222X0.0006*%
%ADD371R,0.0198X0.0006*%
%ADD372R,0.0168X0.0006*%
%ADD373R,0.0096X0.0006*%
%ADD374R,0.0078X0.0006*%
%ADD375R,0.0072X0.0006*%
%ADD376R,0.0192X0.0006*%
%ADD377R,0.0186X0.0006*%
%ADD378R,0.0252X0.0006*%
%ADD379R,0.0102X0.0006*%
%ADD380R,0.0240X0.0006*%
%ADD381R,0.0168X0.0006*%
%ADD382R,0.0066X0.0006*%
%ADD383R,0.0156X0.0006*%
%ADD384R,0.0054X0.0006*%
%ADD385R,0.0474X0.0006*%
%ADD386R,0.0114X0.0006*%
%ADD387R,0.0162X0.0006*%
%ADD388R,0.0216X0.0006*%
%ADD389R,0.0552X0.0006*%
%ADD390R,0.0558X0.0006*%
%ADD391R,0.0564X0.0006*%
%ADD392R,0.0138X0.0006*%
%ADD393R,0.0108X0.0006*%
%ADD394R,0.0594X0.0006*%
%ADD395R,0.0168X0.0006*%
%ADD396R,0.0144X0.0006*%
%ADD397R,0.0432X0.0006*%
%ADD398R,0.0612X0.0006*%
%ADD399R,0.0600X0.0006*%
%ADD400R,0.0438X0.0006*%
%ADD401R,0.0588X0.0006*%
%ADD402R,0.0642X0.0006*%
%ADD403R,0.0474X0.0006*%
%ADD404R,0.0456X0.0006*%
%ADD405R,0.0648X0.0006*%
%ADD406R,0.0612X0.0006*%
%ADD407R,0.0666X0.0006*%
%ADD408R,0.0582X0.0006*%
%ADD409R,0.0678X0.0006*%
%ADD410R,0.0630X0.0006*%
%ADD411R,0.0684X0.0006*%
%ADD412R,0.0606X0.0006*%
%ADD413R,0.0696X0.0006*%
%ADD414R,0.0606X0.0006*%
%ADD415R,0.0702X0.0006*%
%ADD416R,0.0624X0.0006*%
%ADD417R,0.0036X0.0006*%
%ADD418R,0.0708X0.0006*%
%ADD419R,0.0714X0.0006*%
%ADD420R,0.0672X0.0006*%
%ADD421R,0.0720X0.0006*%
%ADD422R,0.0228X0.0006*%
%ADD423R,0.0714X0.0006*%
%ADD424R,0.0690X0.0006*%
%ADD425R,0.0144X0.0006*%
%ADD426R,0.0672X0.0006*%
%ADD427R,0.0048X0.0006*%
%ADD428R,0.0702X0.0006*%
%ADD429R,0.0654X0.0006*%
%ADD430R,0.0216X0.0006*%
%ADD431R,0.0696X0.0006*%
%ADD432R,0.0642X0.0006*%
%ADD433R,0.0618X0.0006*%
%ADD434R,0.0174X0.0006*%
%ADD435R,0.0534X0.0006*%
%ADD436R,0.0648X0.0006*%
%ADD437R,0.0486X0.0006*%
%ADD438R,0.0216X0.0006*%
%ADD439R,0.0588X0.0006*%
%ADD440R,0.0084X0.0006*%
%ADD441R,0.0306X0.0006*%
%ADD442R,0.0528X0.0006*%
%ADD443R,0.0126X0.0006*%
%ADD444R,0.0354X0.0006*%
%ADD445R,0.0186X0.0006*%
%ADD446R,0.0342X0.0006*%
%ADD447R,0.0114X0.0006*%
%ADD448R,0.0312X0.0006*%
%ADD449R,0.0324X0.0006*%
%ADD450R,0.0456X0.0006*%
%ADD451R,0.0336X0.0006*%
%ADD452R,0.0384X0.0006*%
%ADD453R,0.0594X0.0006*%
%ADD454R,0.0264X0.0006*%
%ADD455R,0.0654X0.0006*%
%ADD456R,0.0732X0.0006*%
%ADD457R,0.0510X0.0006*%
%ADD458R,0.0918X0.0006*%
%ADD459R,0.0906X0.0006*%
%ADD460R,0.0756X0.0006*%
%ADD461R,0.0768X0.0006*%
%ADD462R,0.0888X0.0006*%
%ADD463R,0.0870X0.0006*%
%ADD464R,0.0798X0.0006*%
%ADD465R,0.0852X0.0006*%
%ADD466R,0.0852X0.0006*%
%ADD467R,0.0858X0.0006*%
%ADD468R,0.0888X0.0006*%
%ADD469R,0.0912X0.0006*%
%ADD470R,0.0732X0.0006*%
%ADD471R,0.0882X0.0006*%
%ADD472R,0.0678X0.0006*%
%ADD473R,0.0906X0.0006*%
%ADD474R,0.0750X0.0006*%
%ADD475R,0.0918X0.0006*%
%ADD476R,0.0930X0.0006*%
%ADD477R,0.0936X0.0006*%
%ADD478R,0.0960X0.0006*%
%ADD479R,0.1758X0.0006*%
%ADD480R,0.0972X0.0006*%
%ADD481R,0.1752X0.0006*%
%ADD482R,0.0984X0.0006*%
%ADD483R,0.1008X0.0006*%
%ADD484R,0.1740X0.0006*%
%ADD485R,0.1020X0.0006*%
%ADD486R,0.1740X0.0006*%
%ADD487R,0.0204X0.0006*%
%ADD488R,0.1032X0.0006*%
%ADD489R,0.1734X0.0006*%
%ADD490R,0.1044X0.0006*%
%ADD491R,0.1734X0.0006*%
%ADD492R,0.1062X0.0006*%
%ADD493R,0.1068X0.0006*%
%ADD494R,0.1086X0.0006*%
%ADD495R,0.1728X0.0006*%
%ADD496R,0.1098X0.0006*%
%ADD497R,0.1722X0.0006*%
%ADD498R,0.1116X0.0006*%
%ADD499R,0.1128X0.0006*%
%ADD500R,0.1722X0.0006*%
%ADD501R,0.1146X0.0006*%
%ADD502R,0.1158X0.0006*%
%ADD503R,0.1716X0.0006*%
%ADD504R,0.1176X0.0006*%
%ADD505R,0.1188X0.0006*%
%ADD506R,0.1206X0.0006*%
%ADD507R,0.2430X0.0006*%
%ADD508R,0.1224X0.0006*%
%ADD509R,0.2436X0.0006*%
%ADD510R,0.1248X0.0006*%
%ADD511R,0.2430X0.0006*%
%ADD512R,0.1272X0.0006*%
%ADD513R,0.0744X0.0006*%
%ADD514R,0.0258X0.0006*%
%ADD515R,0.0642X0.0006*%
%ADD516R,0.1680X0.0006*%
%ADD517R,0.1662X0.0006*%
%ADD518R,0.1650X0.0006*%
%ADD519R,0.0594X0.0006*%
%ADD520R,0.1644X0.0006*%
%ADD521R,0.1638X0.0006*%
%ADD522R,0.1626X0.0006*%
%ADD523R,0.1614X0.0006*%
%ADD524R,0.0504X0.0006*%
%ADD525R,0.1614X0.0006*%
%ADD526R,0.1602X0.0006*%
%ADD527R,0.1602X0.0006*%
%ADD528R,0.1590X0.0006*%
%ADD529R,0.1584X0.0006*%
%ADD530R,0.0444X0.0006*%
%ADD531R,0.0462X0.0006*%
%ADD532R,0.0492X0.0006*%
%ADD533R,0.1578X0.0006*%
%ADD534R,0.1578X0.0006*%
%ADD535R,0.1566X0.0006*%
%ADD536R,0.1560X0.0006*%
%ADD537R,0.0414X0.0006*%
%ADD538R,0.0558X0.0006*%
%ADD539R,0.0516X0.0006*%
%ADD540R,0.0324X0.0006*%
%ADD541R,0.0348X0.0006*%
%ADD542R,0.0246X0.0006*%
%ADD543R,0.0156X0.0006*%
%ADD544R,0.0024X0.0006*%
%ADD545C,0.0200*%
%ADD546R,0.0200X0.0100*%
D10*
X004450Y005800D02*
X006750Y005800D01*
X006750Y008800D01*
X006000Y008800D01*
X005998Y008761D01*
X005992Y008722D01*
X005983Y008684D01*
X005970Y008647D01*
X005953Y008611D01*
X005933Y008578D01*
X005909Y008546D01*
X005883Y008517D01*
X005854Y008491D01*
X005822Y008467D01*
X005789Y008447D01*
X005753Y008430D01*
X005716Y008417D01*
X005678Y008408D01*
X005639Y008402D01*
X005600Y008400D01*
X005561Y008402D01*
X005522Y008408D01*
X005484Y008417D01*
X005447Y008430D01*
X005411Y008447D01*
X005378Y008467D01*
X005346Y008491D01*
X005317Y008517D01*
X005291Y008546D01*
X005267Y008578D01*
X005247Y008611D01*
X005230Y008647D01*
X005217Y008684D01*
X005208Y008722D01*
X005202Y008761D01*
X005200Y008800D01*
X004450Y008800D01*
X004450Y005800D01*
X002350Y006700D02*
X002350Y006800D01*
X002300Y006850D01*
X002300Y007750D01*
X002350Y007800D01*
X002350Y007900D01*
X002348Y007917D01*
X002344Y007934D01*
X002337Y007950D01*
X002327Y007964D01*
X002314Y007977D01*
X002300Y007987D01*
X002284Y007994D01*
X002267Y007998D01*
X002250Y008000D01*
X001750Y008000D01*
X001733Y007998D01*
X001716Y007994D01*
X001700Y007987D01*
X001686Y007977D01*
X001673Y007964D01*
X001663Y007950D01*
X001656Y007934D01*
X001652Y007917D01*
X001650Y007900D01*
X001650Y007800D01*
X001700Y007750D01*
X001700Y006850D01*
X001650Y006800D01*
X001650Y006700D01*
X001652Y006683D01*
X001656Y006666D01*
X001663Y006650D01*
X001673Y006636D01*
X001686Y006623D01*
X001700Y006613D01*
X001716Y006606D01*
X001733Y006602D01*
X001750Y006600D01*
X002250Y006600D01*
X002267Y006602D01*
X002284Y006606D01*
X002300Y006613D01*
X002314Y006623D01*
X002327Y006636D01*
X002337Y006650D01*
X002344Y006666D01*
X002348Y006683D01*
X002350Y006700D01*
X012130Y008403D02*
X012203Y008330D01*
X012350Y008330D01*
X012424Y008403D01*
X012424Y008697D01*
X012350Y008770D01*
X012203Y008770D01*
X012130Y008697D01*
X012130Y008403D01*
X012590Y008330D02*
X012811Y008330D01*
X012884Y008403D01*
X012884Y008550D01*
X012811Y008624D01*
X012590Y008624D01*
X012590Y008183D01*
X013124Y008403D02*
X013198Y008330D01*
X013124Y008403D02*
X013124Y008697D01*
X013051Y008624D02*
X013198Y008624D01*
X013358Y008624D02*
X013358Y008330D01*
X013358Y008477D02*
X013505Y008624D01*
X013578Y008624D01*
X013741Y008550D02*
X013741Y008403D01*
X013815Y008330D01*
X013962Y008330D01*
X014035Y008403D01*
X014035Y008550D01*
X013962Y008624D01*
X013815Y008624D01*
X013741Y008550D01*
X014202Y008624D02*
X014202Y008330D01*
X014495Y008330D02*
X014495Y008550D01*
X014422Y008624D01*
X014202Y008624D01*
X015123Y008770D02*
X015269Y008770D01*
X015196Y008770D02*
X015196Y008330D01*
X015123Y008330D02*
X015269Y008330D01*
X015429Y008330D02*
X015429Y008770D01*
X015723Y008770D01*
X015576Y008550D02*
X015429Y008550D01*
X015890Y008550D02*
X016183Y008330D01*
X016350Y008330D02*
X016644Y008330D01*
X016497Y008330D02*
X016497Y008770D01*
X016350Y008624D01*
X016183Y008770D02*
X015890Y008550D01*
X016811Y008403D02*
X016884Y008330D01*
X017031Y008330D01*
X017104Y008403D01*
X017104Y008697D01*
X016811Y008403D01*
X016811Y008697D01*
X016884Y008770D01*
X017031Y008770D01*
X017104Y008697D01*
X017271Y008697D02*
X017344Y008770D01*
X017491Y008770D01*
X017565Y008697D01*
X017271Y008403D01*
X017344Y008330D01*
X017491Y008330D01*
X017565Y008403D01*
X017565Y008697D01*
X017731Y008624D02*
X017805Y008624D01*
X017878Y008550D01*
X017952Y008624D01*
X018025Y008550D01*
X018025Y008330D01*
X017878Y008330D02*
X017878Y008550D01*
X017731Y008624D02*
X017731Y008330D01*
X017271Y008403D02*
X017271Y008697D01*
X016887Y009130D02*
X017181Y009570D01*
X017808Y009570D02*
X018028Y009570D01*
X018102Y009497D01*
X018102Y009203D01*
X018028Y009130D01*
X017808Y009130D01*
X017808Y009570D01*
X018269Y009497D02*
X018269Y009203D01*
X018342Y009130D01*
X018489Y009130D01*
X018562Y009203D01*
X018562Y009497D02*
X018489Y009570D01*
X018342Y009570D01*
X018269Y009497D01*
X019189Y009424D02*
X019189Y009277D01*
X019336Y009130D01*
X019496Y009130D02*
X019496Y009570D01*
X019716Y009570D01*
X019790Y009497D01*
X019790Y009350D01*
X019716Y009277D01*
X019496Y009277D01*
X019336Y009570D02*
X019189Y009424D01*
X019957Y009570D02*
X019957Y009130D01*
X020103Y009277D01*
X020250Y009130D01*
X020250Y009570D01*
X020417Y009570D02*
X020637Y009570D01*
X020711Y009497D01*
X020711Y009350D01*
X020637Y009277D01*
X020417Y009277D01*
X020564Y009277D02*
X020711Y009130D01*
X020877Y009130D02*
X021024Y009277D01*
X021024Y009424D01*
X020877Y009570D01*
X020417Y009570D02*
X020417Y009130D01*
X020340Y008770D02*
X020340Y008330D01*
X020174Y008403D02*
X020100Y008330D01*
X019953Y008330D01*
X019880Y008403D01*
X019880Y008697D01*
X019953Y008770D01*
X020100Y008770D01*
X020174Y008697D01*
X020340Y008477D02*
X020634Y008770D01*
X020801Y008770D02*
X020948Y008624D01*
X020948Y008477D01*
X020801Y008330D01*
X020634Y008330D02*
X020414Y008550D01*
X019713Y008330D02*
X019420Y008330D01*
X019420Y008770D01*
X019259Y008770D02*
X019113Y008624D01*
X019113Y008477D01*
X019259Y008330D01*
X018485Y008330D02*
X018265Y008330D01*
X018192Y008403D01*
X018265Y008477D01*
X018485Y008477D01*
X018485Y008550D02*
X018485Y008330D01*
X018485Y008550D02*
X018412Y008624D01*
X018265Y008624D01*
X016260Y009277D02*
X016113Y009130D01*
X015967Y009277D01*
X015967Y009570D01*
X015800Y009497D02*
X015506Y009203D01*
X015580Y009130D01*
X015726Y009130D01*
X015800Y009203D01*
X015800Y009497D01*
X015726Y009570D01*
X015580Y009570D01*
X015506Y009497D01*
X015506Y009203D01*
X015339Y009203D02*
X015339Y009277D01*
X015266Y009350D01*
X015193Y009350D01*
X015266Y009350D02*
X015339Y009424D01*
X015339Y009497D01*
X015266Y009570D01*
X015119Y009570D01*
X015046Y009497D01*
X014879Y009424D02*
X014585Y009424D01*
X014585Y009277D02*
X014879Y009277D01*
X015046Y009203D02*
X015119Y009130D01*
X015266Y009130D01*
X015339Y009203D01*
X016260Y009277D02*
X016260Y009570D01*
X014419Y009570D02*
X014125Y009350D01*
X014419Y009130D01*
X013965Y009130D02*
X013892Y009203D01*
X013892Y009497D01*
X013818Y009424D02*
X013965Y009424D01*
X013651Y009424D02*
X013651Y009130D01*
X013431Y009130D01*
X013358Y009203D01*
X013358Y009424D01*
X013191Y009350D02*
X013191Y009203D01*
X013118Y009130D01*
X012897Y009130D01*
X012897Y008983D02*
X012897Y009424D01*
X013118Y009424D01*
X013191Y009350D01*
X012731Y009350D02*
X012731Y009130D01*
X012437Y009130D02*
X012437Y009424D01*
X012657Y009424D01*
X012731Y009350D01*
X012277Y009130D02*
X012130Y009130D01*
X012203Y009130D02*
X012203Y009570D01*
X012130Y009570D02*
X012277Y009570D01*
X021930Y009566D02*
X021930Y005636D01*
X022010Y005636D01*
X022010Y009566D01*
X024610Y009566D01*
X025550Y009566D01*
X025550Y005636D01*
X024610Y005636D01*
X022010Y005636D01*
X022010Y005266D02*
X024610Y005266D01*
X025550Y005266D01*
X025550Y001336D01*
X024610Y001336D01*
X022010Y001336D01*
X021930Y001336D01*
X021930Y005266D01*
X022010Y005266D01*
X022010Y001336D01*
X023430Y001170D02*
X023430Y000730D01*
X023430Y000877D02*
X023650Y000877D01*
X023724Y000950D01*
X023724Y001097D01*
X023650Y001170D01*
X023430Y001170D01*
X023890Y001170D02*
X023890Y000730D01*
X024037Y000877D01*
X024184Y000730D01*
X024184Y001170D01*
X024351Y001170D02*
X024571Y001170D01*
X024644Y001097D01*
X024644Y000950D01*
X024571Y000877D01*
X024351Y000877D01*
X024498Y000877D02*
X024644Y000730D01*
X024351Y000730D02*
X024351Y001170D01*
X024610Y001336D02*
X024610Y001966D01*
X024610Y002666D01*
X024610Y003936D01*
X024610Y004636D01*
X024610Y005266D01*
X024610Y005636D02*
X024610Y006266D01*
X024610Y006966D01*
X024610Y008236D01*
X024610Y008936D01*
X024610Y009566D01*
X024744Y009930D02*
X024524Y010150D01*
X024451Y010077D02*
X024744Y010370D01*
X024451Y010370D02*
X024451Y009930D01*
X024284Y010003D02*
X024211Y009930D01*
X024064Y009930D01*
X023990Y010003D01*
X023990Y010297D01*
X024064Y010370D01*
X024211Y010370D01*
X024284Y010297D01*
X023824Y009930D02*
X023530Y009930D01*
X023530Y010370D01*
X022010Y009566D02*
X021930Y009566D01*
X022330Y008586D02*
X022332Y008614D01*
X022338Y008641D01*
X022347Y008667D01*
X022360Y008692D01*
X022377Y008715D01*
X022396Y008735D01*
X022418Y008752D01*
X022442Y008766D01*
X022468Y008776D01*
X022495Y008783D01*
X022523Y008786D01*
X022551Y008785D01*
X022578Y008780D01*
X022605Y008771D01*
X022630Y008759D01*
X022653Y008744D01*
X022674Y008725D01*
X022692Y008704D01*
X022707Y008680D01*
X022718Y008654D01*
X022726Y008628D01*
X022730Y008600D01*
X022730Y008572D01*
X022726Y008544D01*
X022718Y008518D01*
X022707Y008492D01*
X022692Y008468D01*
X022674Y008447D01*
X022653Y008428D01*
X022630Y008413D01*
X022605Y008401D01*
X022578Y008392D01*
X022551Y008387D01*
X022523Y008386D01*
X022495Y008389D01*
X022468Y008396D01*
X022442Y008406D01*
X022418Y008420D01*
X022396Y008437D01*
X022377Y008457D01*
X022360Y008480D01*
X022347Y008505D01*
X022338Y008531D01*
X022332Y008558D01*
X022330Y008586D01*
X023310Y008586D02*
X023312Y008634D01*
X023318Y008682D01*
X023328Y008729D01*
X023341Y008775D01*
X023358Y008820D01*
X023379Y008863D01*
X023404Y008905D01*
X023431Y008944D01*
X023462Y008981D01*
X023496Y009016D01*
X023532Y009047D01*
X023571Y009076D01*
X023612Y009101D01*
X023655Y009123D01*
X023699Y009141D01*
X023745Y009155D01*
X023792Y009166D01*
X023840Y009173D01*
X023888Y009176D01*
X023936Y009175D01*
X023984Y009170D01*
X024031Y009161D01*
X024078Y009149D01*
X024123Y009132D01*
X024167Y009112D01*
X024209Y009089D01*
X024249Y009062D01*
X024286Y009032D01*
X024321Y008999D01*
X024354Y008963D01*
X024383Y008925D01*
X024409Y008884D01*
X024432Y008842D01*
X024451Y008798D01*
X024466Y008752D01*
X024478Y008706D01*
X024486Y008658D01*
X024490Y008610D01*
X024490Y008562D01*
X024486Y008514D01*
X024478Y008466D01*
X024466Y008420D01*
X024451Y008374D01*
X024432Y008330D01*
X024409Y008288D01*
X024383Y008247D01*
X024354Y008209D01*
X024321Y008173D01*
X024286Y008140D01*
X024249Y008110D01*
X024209Y008083D01*
X024167Y008060D01*
X024123Y008040D01*
X024078Y008023D01*
X024031Y008011D01*
X023984Y008002D01*
X023936Y007997D01*
X023888Y007996D01*
X023840Y007999D01*
X023792Y008006D01*
X023745Y008017D01*
X023699Y008031D01*
X023655Y008049D01*
X023612Y008071D01*
X023571Y008096D01*
X023532Y008125D01*
X023496Y008156D01*
X023462Y008191D01*
X023431Y008228D01*
X023404Y008267D01*
X023379Y008309D01*
X023358Y008352D01*
X023341Y008397D01*
X023328Y008443D01*
X023318Y008490D01*
X023312Y008538D01*
X023310Y008586D01*
X023310Y006616D02*
X023312Y006664D01*
X023318Y006712D01*
X023328Y006759D01*
X023341Y006805D01*
X023358Y006850D01*
X023379Y006893D01*
X023404Y006935D01*
X023431Y006974D01*
X023462Y007011D01*
X023496Y007046D01*
X023532Y007077D01*
X023571Y007106D01*
X023612Y007131D01*
X023655Y007153D01*
X023699Y007171D01*
X023745Y007185D01*
X023792Y007196D01*
X023840Y007203D01*
X023888Y007206D01*
X023936Y007205D01*
X023984Y007200D01*
X024031Y007191D01*
X024078Y007179D01*
X024123Y007162D01*
X024167Y007142D01*
X024209Y007119D01*
X024249Y007092D01*
X024286Y007062D01*
X024321Y007029D01*
X024354Y006993D01*
X024383Y006955D01*
X024409Y006914D01*
X024432Y006872D01*
X024451Y006828D01*
X024466Y006782D01*
X024478Y006736D01*
X024486Y006688D01*
X024490Y006640D01*
X024490Y006592D01*
X024486Y006544D01*
X024478Y006496D01*
X024466Y006450D01*
X024451Y006404D01*
X024432Y006360D01*
X024409Y006318D01*
X024383Y006277D01*
X024354Y006239D01*
X024321Y006203D01*
X024286Y006170D01*
X024249Y006140D01*
X024209Y006113D01*
X024167Y006090D01*
X024123Y006070D01*
X024078Y006053D01*
X024031Y006041D01*
X023984Y006032D01*
X023936Y006027D01*
X023888Y006026D01*
X023840Y006029D01*
X023792Y006036D01*
X023745Y006047D01*
X023699Y006061D01*
X023655Y006079D01*
X023612Y006101D01*
X023571Y006126D01*
X023532Y006155D01*
X023496Y006186D01*
X023462Y006221D01*
X023431Y006258D01*
X023404Y006297D01*
X023379Y006339D01*
X023358Y006382D01*
X023341Y006427D01*
X023328Y006473D01*
X023318Y006520D01*
X023312Y006568D01*
X023310Y006616D01*
X022330Y006616D02*
X022332Y006644D01*
X022338Y006671D01*
X022347Y006697D01*
X022360Y006722D01*
X022377Y006745D01*
X022396Y006765D01*
X022418Y006782D01*
X022442Y006796D01*
X022468Y006806D01*
X022495Y006813D01*
X022523Y006816D01*
X022551Y006815D01*
X022578Y006810D01*
X022605Y006801D01*
X022630Y006789D01*
X022653Y006774D01*
X022674Y006755D01*
X022692Y006734D01*
X022707Y006710D01*
X022718Y006684D01*
X022726Y006658D01*
X022730Y006630D01*
X022730Y006602D01*
X022726Y006574D01*
X022718Y006548D01*
X022707Y006522D01*
X022692Y006498D01*
X022674Y006477D01*
X022653Y006458D01*
X022630Y006443D01*
X022605Y006431D01*
X022578Y006422D01*
X022551Y006417D01*
X022523Y006416D01*
X022495Y006419D01*
X022468Y006426D01*
X022442Y006436D01*
X022418Y006450D01*
X022396Y006467D01*
X022377Y006487D01*
X022360Y006510D01*
X022347Y006535D01*
X022338Y006561D01*
X022332Y006588D01*
X022330Y006616D01*
X022330Y004286D02*
X022332Y004314D01*
X022338Y004341D01*
X022347Y004367D01*
X022360Y004392D01*
X022377Y004415D01*
X022396Y004435D01*
X022418Y004452D01*
X022442Y004466D01*
X022468Y004476D01*
X022495Y004483D01*
X022523Y004486D01*
X022551Y004485D01*
X022578Y004480D01*
X022605Y004471D01*
X022630Y004459D01*
X022653Y004444D01*
X022674Y004425D01*
X022692Y004404D01*
X022707Y004380D01*
X022718Y004354D01*
X022726Y004328D01*
X022730Y004300D01*
X022730Y004272D01*
X022726Y004244D01*
X022718Y004218D01*
X022707Y004192D01*
X022692Y004168D01*
X022674Y004147D01*
X022653Y004128D01*
X022630Y004113D01*
X022605Y004101D01*
X022578Y004092D01*
X022551Y004087D01*
X022523Y004086D01*
X022495Y004089D01*
X022468Y004096D01*
X022442Y004106D01*
X022418Y004120D01*
X022396Y004137D01*
X022377Y004157D01*
X022360Y004180D01*
X022347Y004205D01*
X022338Y004231D01*
X022332Y004258D01*
X022330Y004286D01*
X023310Y004286D02*
X023312Y004334D01*
X023318Y004382D01*
X023328Y004429D01*
X023341Y004475D01*
X023358Y004520D01*
X023379Y004563D01*
X023404Y004605D01*
X023431Y004644D01*
X023462Y004681D01*
X023496Y004716D01*
X023532Y004747D01*
X023571Y004776D01*
X023612Y004801D01*
X023655Y004823D01*
X023699Y004841D01*
X023745Y004855D01*
X023792Y004866D01*
X023840Y004873D01*
X023888Y004876D01*
X023936Y004875D01*
X023984Y004870D01*
X024031Y004861D01*
X024078Y004849D01*
X024123Y004832D01*
X024167Y004812D01*
X024209Y004789D01*
X024249Y004762D01*
X024286Y004732D01*
X024321Y004699D01*
X024354Y004663D01*
X024383Y004625D01*
X024409Y004584D01*
X024432Y004542D01*
X024451Y004498D01*
X024466Y004452D01*
X024478Y004406D01*
X024486Y004358D01*
X024490Y004310D01*
X024490Y004262D01*
X024486Y004214D01*
X024478Y004166D01*
X024466Y004120D01*
X024451Y004074D01*
X024432Y004030D01*
X024409Y003988D01*
X024383Y003947D01*
X024354Y003909D01*
X024321Y003873D01*
X024286Y003840D01*
X024249Y003810D01*
X024209Y003783D01*
X024167Y003760D01*
X024123Y003740D01*
X024078Y003723D01*
X024031Y003711D01*
X023984Y003702D01*
X023936Y003697D01*
X023888Y003696D01*
X023840Y003699D01*
X023792Y003706D01*
X023745Y003717D01*
X023699Y003731D01*
X023655Y003749D01*
X023612Y003771D01*
X023571Y003796D01*
X023532Y003825D01*
X023496Y003856D01*
X023462Y003891D01*
X023431Y003928D01*
X023404Y003967D01*
X023379Y004009D01*
X023358Y004052D01*
X023341Y004097D01*
X023328Y004143D01*
X023318Y004190D01*
X023312Y004238D01*
X023310Y004286D01*
X023310Y002316D02*
X023312Y002364D01*
X023318Y002412D01*
X023328Y002459D01*
X023341Y002505D01*
X023358Y002550D01*
X023379Y002593D01*
X023404Y002635D01*
X023431Y002674D01*
X023462Y002711D01*
X023496Y002746D01*
X023532Y002777D01*
X023571Y002806D01*
X023612Y002831D01*
X023655Y002853D01*
X023699Y002871D01*
X023745Y002885D01*
X023792Y002896D01*
X023840Y002903D01*
X023888Y002906D01*
X023936Y002905D01*
X023984Y002900D01*
X024031Y002891D01*
X024078Y002879D01*
X024123Y002862D01*
X024167Y002842D01*
X024209Y002819D01*
X024249Y002792D01*
X024286Y002762D01*
X024321Y002729D01*
X024354Y002693D01*
X024383Y002655D01*
X024409Y002614D01*
X024432Y002572D01*
X024451Y002528D01*
X024466Y002482D01*
X024478Y002436D01*
X024486Y002388D01*
X024490Y002340D01*
X024490Y002292D01*
X024486Y002244D01*
X024478Y002196D01*
X024466Y002150D01*
X024451Y002104D01*
X024432Y002060D01*
X024409Y002018D01*
X024383Y001977D01*
X024354Y001939D01*
X024321Y001903D01*
X024286Y001870D01*
X024249Y001840D01*
X024209Y001813D01*
X024167Y001790D01*
X024123Y001770D01*
X024078Y001753D01*
X024031Y001741D01*
X023984Y001732D01*
X023936Y001727D01*
X023888Y001726D01*
X023840Y001729D01*
X023792Y001736D01*
X023745Y001747D01*
X023699Y001761D01*
X023655Y001779D01*
X023612Y001801D01*
X023571Y001826D01*
X023532Y001855D01*
X023496Y001886D01*
X023462Y001921D01*
X023431Y001958D01*
X023404Y001997D01*
X023379Y002039D01*
X023358Y002082D01*
X023341Y002127D01*
X023328Y002173D01*
X023318Y002220D01*
X023312Y002268D01*
X023310Y002316D01*
X022330Y002316D02*
X022332Y002344D01*
X022338Y002371D01*
X022347Y002397D01*
X022360Y002422D01*
X022377Y002445D01*
X022396Y002465D01*
X022418Y002482D01*
X022442Y002496D01*
X022468Y002506D01*
X022495Y002513D01*
X022523Y002516D01*
X022551Y002515D01*
X022578Y002510D01*
X022605Y002501D01*
X022630Y002489D01*
X022653Y002474D01*
X022674Y002455D01*
X022692Y002434D01*
X022707Y002410D01*
X022718Y002384D01*
X022726Y002358D01*
X022730Y002330D01*
X022730Y002302D01*
X022726Y002274D01*
X022718Y002248D01*
X022707Y002222D01*
X022692Y002198D01*
X022674Y002177D01*
X022653Y002158D01*
X022630Y002143D01*
X022605Y002131D01*
X022578Y002122D01*
X022551Y002117D01*
X022523Y002116D01*
X022495Y002119D01*
X022468Y002126D01*
X022442Y002136D01*
X022418Y002150D01*
X022396Y002167D01*
X022377Y002187D01*
X022360Y002210D01*
X022347Y002235D01*
X022338Y002261D01*
X022332Y002288D01*
X022330Y002316D01*
D11*
X021750Y002250D02*
X021350Y002250D01*
X023510Y002716D02*
X024300Y001926D01*
X024909Y000500D02*
X024975Y000502D01*
X025041Y000507D01*
X025107Y000517D01*
X025172Y000530D01*
X025236Y000546D01*
X025299Y000566D01*
X025361Y000590D01*
X025421Y000617D01*
X025480Y000647D01*
X025537Y000681D01*
X025592Y000718D01*
X025645Y000758D01*
X025696Y000800D01*
X025744Y000846D01*
X025790Y000894D01*
X025832Y000945D01*
X025872Y000998D01*
X025909Y001053D01*
X025943Y001110D01*
X025973Y001169D01*
X026000Y001229D01*
X026024Y001291D01*
X026044Y001354D01*
X026060Y001418D01*
X026073Y001483D01*
X026083Y001549D01*
X026088Y001615D01*
X026090Y001681D01*
X026091Y001681D02*
X026091Y011130D01*
X026090Y011130D02*
X026088Y011196D01*
X026083Y011262D01*
X026073Y011328D01*
X026060Y011393D01*
X026044Y011457D01*
X026024Y011520D01*
X026000Y011582D01*
X025973Y011642D01*
X025943Y011701D01*
X025909Y011758D01*
X025872Y011813D01*
X025832Y011866D01*
X025790Y011917D01*
X025744Y011965D01*
X025696Y012011D01*
X025645Y012053D01*
X025592Y012093D01*
X025537Y012130D01*
X025480Y012164D01*
X025421Y012194D01*
X025361Y012221D01*
X025299Y012245D01*
X025236Y012265D01*
X025172Y012281D01*
X025107Y012294D01*
X025041Y012304D01*
X024975Y012309D01*
X024909Y012311D01*
X001681Y012311D01*
X001615Y012309D01*
X001549Y012304D01*
X001483Y012294D01*
X001418Y012281D01*
X001354Y012265D01*
X001291Y012245D01*
X001229Y012221D01*
X001169Y012194D01*
X001110Y012164D01*
X001053Y012130D01*
X000998Y012093D01*
X000945Y012053D01*
X000894Y012011D01*
X000846Y011965D01*
X000800Y011917D01*
X000758Y011866D01*
X000718Y011813D01*
X000681Y011758D01*
X000647Y011701D01*
X000617Y011642D01*
X000590Y011582D01*
X000566Y011520D01*
X000546Y011457D01*
X000530Y011393D01*
X000517Y011328D01*
X000507Y011262D01*
X000502Y011196D01*
X000500Y011130D01*
X000500Y001681D01*
X000502Y001615D01*
X000507Y001549D01*
X000517Y001483D01*
X000530Y001418D01*
X000546Y001354D01*
X000566Y001291D01*
X000590Y001229D01*
X000617Y001169D01*
X000647Y001110D01*
X000681Y001053D01*
X000718Y000998D01*
X000758Y000945D01*
X000800Y000894D01*
X000846Y000846D01*
X000894Y000800D01*
X000945Y000758D01*
X000998Y000718D01*
X001053Y000681D01*
X001110Y000647D01*
X001169Y000617D01*
X001229Y000590D01*
X001291Y000566D01*
X001354Y000546D01*
X001418Y000530D01*
X001483Y000517D01*
X001549Y000507D01*
X001615Y000502D01*
X001681Y000500D01*
X024909Y000500D01*
X024290Y003886D02*
X023500Y004666D01*
X021750Y004450D02*
X021350Y004450D01*
X021550Y004650D02*
X021550Y004250D01*
X024300Y006226D02*
X023510Y007016D01*
X021750Y006550D02*
X021350Y006550D01*
X023500Y008966D02*
X024290Y008186D01*
X021750Y008550D02*
X021350Y008550D01*
X021550Y008750D02*
X021550Y008350D01*
D12*
X022675Y008016D02*
X022675Y007866D01*
X022750Y007791D01*
X022675Y008016D02*
X022750Y008091D01*
X022825Y008091D01*
X023125Y007791D01*
X023125Y008091D01*
X020801Y007599D02*
X020801Y001261D01*
X020761Y001261D02*
X012100Y001261D01*
X012100Y001300D02*
X012100Y007599D01*
X020801Y007599D01*
X023125Y006141D02*
X023125Y005841D01*
X023125Y005991D02*
X022675Y005991D01*
X022825Y005841D01*
X024895Y006111D02*
X025345Y006411D01*
X025345Y006571D02*
X025345Y006871D01*
X025345Y006721D02*
X024895Y006721D01*
X025045Y006571D01*
X024895Y006411D02*
X025345Y006111D01*
X023125Y003791D02*
X023125Y003491D01*
X022825Y003791D01*
X022750Y003791D01*
X022675Y003716D01*
X022675Y003566D01*
X022750Y003491D01*
X024895Y002496D02*
X024895Y002346D01*
X024970Y002271D01*
X025045Y002571D02*
X025345Y002271D01*
X025345Y002571D01*
X025045Y002571D02*
X024970Y002571D01*
X024895Y002496D01*
X024895Y002111D02*
X025345Y001811D01*
X025345Y002111D02*
X024895Y001811D01*
X023125Y001841D02*
X023125Y001541D01*
X023125Y001691D02*
X022675Y001691D01*
X022825Y001541D01*
X012139Y001300D02*
X012100Y001300D01*
X005696Y008925D02*
X005396Y008925D01*
X005546Y008925D02*
X005546Y009375D01*
X005396Y009225D01*
X005236Y009375D02*
X004935Y009075D01*
X005010Y009150D02*
X005236Y008925D01*
X004935Y008925D02*
X004935Y009375D01*
X004775Y009300D02*
X004700Y009375D01*
X004550Y009375D01*
X004475Y009300D01*
X004475Y009000D01*
X004550Y008925D01*
X004700Y008925D01*
X004775Y009000D01*
X004775Y009300D01*
X003920Y009808D02*
X003920Y009933D01*
X004295Y009933D01*
X004295Y010933D01*
X003295Y010933D01*
X003295Y009933D01*
X003670Y009933D01*
X003670Y009808D01*
X003920Y009808D01*
X003920Y009933D02*
X003670Y009933D01*
X004295Y009933D02*
X023295Y009933D01*
X023295Y011933D01*
X003295Y011933D01*
X003295Y010933D01*
D13*
X003810Y009688D02*
X003810Y009328D01*
X003690Y009328D02*
X003930Y009328D01*
X003690Y009568D02*
X003810Y009688D01*
X002830Y007984D02*
X002830Y007751D01*
X002830Y007868D02*
X002480Y007868D01*
X002596Y007751D01*
X002538Y007625D02*
X002655Y007625D01*
X002713Y007567D01*
X002713Y007392D01*
X002713Y007509D02*
X002830Y007625D01*
X002538Y007625D02*
X002480Y007567D01*
X002480Y007392D01*
X002830Y007392D01*
X013289Y004617D02*
X013289Y004310D01*
X013366Y004233D01*
X013519Y004233D01*
X013596Y004310D01*
X013596Y004617D01*
X013519Y004694D01*
X013366Y004694D01*
X013289Y004617D01*
X013750Y004694D02*
X013750Y004310D01*
X013826Y004233D01*
X013980Y004233D01*
X014057Y004310D01*
X014057Y004694D01*
X014210Y004694D02*
X014517Y004694D01*
X014364Y004694D02*
X014364Y004233D01*
X018549Y004233D02*
X018703Y004233D01*
X018626Y004233D02*
X018626Y004694D01*
X018549Y004694D02*
X018703Y004694D01*
X018856Y004694D02*
X019163Y004233D01*
X019163Y004694D01*
X018856Y004694D02*
X018856Y004233D01*
X015438Y001861D02*
X015361Y001938D01*
X015208Y001938D01*
X015131Y001861D01*
X015131Y001554D01*
X015208Y001477D01*
X015361Y001477D01*
X015438Y001554D01*
X014977Y001554D02*
X014977Y001861D01*
X014901Y001938D01*
X014670Y001938D01*
X014670Y001477D01*
X014901Y001477D01*
X014977Y001554D01*
X014517Y001938D02*
X014210Y001477D01*
X014057Y001554D02*
X013980Y001477D01*
X013826Y001477D01*
X013750Y001554D01*
X013750Y001861D01*
X013826Y001938D01*
X013980Y001938D01*
X014057Y001861D01*
X013596Y001861D02*
X013596Y001554D01*
X013519Y001477D01*
X013289Y001477D01*
X013289Y001938D01*
X013519Y001938D01*
X013596Y001861D01*
D14*
X006674Y002948D03*
X006188Y003038D03*
X006182Y003026D03*
X005636Y003242D03*
X005336Y002426D03*
X005732Y002246D03*
X004964Y002372D03*
X005936Y001166D03*
X004208Y001094D03*
X004208Y001088D03*
X004208Y001082D03*
X003248Y000932D03*
X003212Y000848D03*
X003212Y000848D03*
X003212Y000842D03*
X003212Y000842D03*
X001832Y001778D03*
X002186Y001964D03*
X004178Y005054D03*
X005534Y005132D03*
D15*
X005531Y005126D03*
X006665Y004724D03*
X004721Y003608D03*
X003911Y003332D03*
X003845Y002504D03*
X004709Y002126D03*
X006185Y003032D03*
X005915Y001208D03*
X005921Y001196D03*
X004211Y001106D03*
X003215Y000854D03*
X003215Y000854D03*
X002009Y001532D03*
X001241Y004562D03*
X004175Y005018D03*
X004175Y005024D03*
X004175Y005036D03*
X004175Y005042D03*
X004175Y005048D03*
D16*
X004175Y005030D03*
X002849Y005180D03*
X006179Y003020D03*
X003305Y002660D03*
X005909Y001220D03*
X005921Y001190D03*
X003215Y000860D03*
X003215Y000860D03*
D17*
X000502Y000470D02*
X000500Y000472D01*
X000500Y000480D01*
X000502Y000482D01*
X000506Y000482D01*
X000508Y000480D01*
X000506Y000482D01*
X000502Y000482D01*
X000500Y000480D01*
X000500Y000472D01*
X000502Y000470D01*
X000506Y000470D01*
X000508Y000472D01*
X000506Y000470D01*
X000502Y000470D01*
X000511Y000470D02*
X000511Y000472D01*
X000513Y000472D01*
X000513Y000470D01*
X000511Y000470D01*
X000511Y000472D01*
X000513Y000472D01*
X000513Y000470D01*
X000511Y000470D01*
X000517Y000470D02*
X000525Y000482D01*
X000517Y000470D01*
X000513Y000476D02*
X000511Y000476D01*
X000511Y000478D01*
X000513Y000478D01*
X000513Y000476D01*
X000511Y000476D01*
X000511Y000478D01*
X000513Y000478D01*
X000513Y000476D01*
X000528Y000472D02*
X000530Y000470D01*
X000534Y000470D01*
X000536Y000472D01*
X000536Y000482D01*
X000536Y000472D01*
X000534Y000470D01*
X000530Y000470D01*
X000528Y000472D01*
X000528Y000482D01*
X000528Y000472D01*
X000539Y000470D02*
X000545Y000470D01*
X000547Y000472D01*
X000545Y000474D01*
X000541Y000474D01*
X000539Y000476D01*
X000541Y000478D01*
X000547Y000478D01*
X000541Y000478D01*
X000539Y000476D01*
X000541Y000474D01*
X000545Y000474D01*
X000547Y000472D01*
X000545Y000470D01*
X000539Y000470D01*
X000550Y000472D02*
X000550Y000476D01*
X000552Y000478D01*
X000556Y000478D01*
X000558Y000476D01*
X000558Y000474D01*
X000550Y000474D01*
X000558Y000474D01*
X000558Y000476D01*
X000556Y000478D01*
X000552Y000478D01*
X000550Y000476D01*
X000550Y000472D01*
X000552Y000470D01*
X000556Y000470D01*
X000552Y000470D01*
X000550Y000472D01*
X000561Y000470D02*
X000561Y000478D01*
X000561Y000470D01*
X000561Y000474D02*
X000565Y000478D01*
X000567Y000478D01*
X000565Y000478D01*
X000561Y000474D01*
X000570Y000476D02*
X000572Y000478D01*
X000578Y000478D01*
X000572Y000478D01*
X000570Y000476D01*
X000572Y000474D01*
X000576Y000474D01*
X000578Y000472D01*
X000576Y000470D01*
X000570Y000470D01*
X000576Y000470D01*
X000578Y000472D01*
X000576Y000474D01*
X000572Y000474D01*
X000570Y000476D01*
X000581Y000470D02*
X000589Y000482D01*
X000581Y000470D01*
X000592Y000470D02*
X000598Y000470D01*
X000600Y000472D01*
X000600Y000476D01*
X000598Y000478D01*
X000592Y000478D01*
X000598Y000478D01*
X000600Y000476D01*
X000600Y000472D01*
X000598Y000470D01*
X000592Y000470D01*
X000592Y000482D01*
X000592Y000470D01*
X000603Y000472D02*
X000605Y000474D01*
X000611Y000474D01*
X000605Y000474D01*
X000603Y000472D01*
X000605Y000470D01*
X000611Y000470D01*
X000611Y000476D01*
X000609Y000478D01*
X000605Y000478D01*
X000609Y000478D01*
X000611Y000476D01*
X000611Y000470D01*
X000605Y000470D01*
X000603Y000472D01*
X000614Y000474D02*
X000620Y000478D01*
X000614Y000474D01*
X000620Y000470D01*
X000614Y000474D01*
X000614Y000470D02*
X000614Y000482D01*
X000614Y000470D01*
X000623Y000472D02*
X000625Y000474D01*
X000631Y000474D01*
X000625Y000474D01*
X000623Y000472D01*
X000625Y000470D01*
X000631Y000470D01*
X000631Y000476D01*
X000629Y000478D01*
X000625Y000478D01*
X000629Y000478D01*
X000631Y000476D01*
X000631Y000470D01*
X000625Y000470D01*
X000623Y000472D01*
X000634Y000470D02*
X000638Y000470D01*
X000634Y000470D01*
X000636Y000470D02*
X000636Y000482D01*
X000634Y000482D01*
X000636Y000482D01*
X000636Y000470D01*
X000642Y000470D02*
X000648Y000470D01*
X000650Y000472D01*
X000648Y000474D01*
X000644Y000474D01*
X000642Y000476D01*
X000644Y000478D01*
X000650Y000478D01*
X000644Y000478D01*
X000642Y000476D01*
X000644Y000474D01*
X000648Y000474D01*
X000650Y000472D01*
X000648Y000470D01*
X000642Y000470D01*
X000653Y000470D02*
X000653Y000482D01*
X000653Y000470D01*
X000653Y000474D02*
X000659Y000478D01*
X000653Y000474D01*
X000659Y000470D01*
X000653Y000474D01*
X000662Y000470D02*
X000666Y000470D01*
X000662Y000470D01*
X000664Y000470D02*
X000664Y000478D01*
X000662Y000478D01*
X000664Y000478D01*
X000664Y000470D01*
X000669Y000470D02*
X000677Y000482D01*
X000669Y000470D01*
X000680Y000470D02*
X000686Y000470D01*
X000688Y000472D01*
X000688Y000480D01*
X000686Y000482D01*
X000680Y000482D01*
X000680Y000470D01*
X000686Y000470D01*
X000688Y000472D01*
X000688Y000480D01*
X000686Y000482D01*
X000680Y000482D01*
X000680Y000470D01*
X000692Y000472D02*
X000692Y000476D01*
X000694Y000478D01*
X000698Y000478D01*
X000700Y000476D01*
X000700Y000474D01*
X000692Y000474D01*
X000700Y000474D01*
X000700Y000476D01*
X000698Y000478D01*
X000694Y000478D01*
X000692Y000476D01*
X000692Y000472D01*
X000694Y000470D01*
X000698Y000470D01*
X000694Y000470D01*
X000692Y000472D01*
X000703Y000470D02*
X000709Y000470D01*
X000711Y000472D01*
X000709Y000474D01*
X000705Y000474D01*
X000703Y000476D01*
X000705Y000478D01*
X000711Y000478D01*
X000705Y000478D01*
X000703Y000476D01*
X000705Y000474D01*
X000709Y000474D01*
X000711Y000472D01*
X000709Y000470D01*
X000703Y000470D01*
X000714Y000470D02*
X000714Y000482D01*
X000714Y000470D01*
X000714Y000474D02*
X000720Y000478D01*
X000714Y000474D01*
X000720Y000470D01*
X000714Y000474D01*
X000723Y000478D02*
X000727Y000478D01*
X000723Y000478D01*
X000725Y000480D02*
X000725Y000472D01*
X000727Y000470D01*
X000725Y000472D01*
X000725Y000480D01*
X000730Y000476D02*
X000730Y000472D01*
X000732Y000470D01*
X000736Y000470D01*
X000738Y000472D01*
X000738Y000476D01*
X000736Y000478D01*
X000732Y000478D01*
X000730Y000476D01*
X000730Y000472D01*
X000732Y000470D01*
X000736Y000470D01*
X000738Y000472D01*
X000738Y000476D01*
X000736Y000478D01*
X000732Y000478D01*
X000730Y000476D01*
X000741Y000478D02*
X000747Y000478D01*
X000749Y000476D01*
X000749Y000472D01*
X000747Y000470D01*
X000741Y000470D01*
X000747Y000470D01*
X000749Y000472D01*
X000749Y000476D01*
X000747Y000478D01*
X000741Y000478D01*
X000741Y000466D01*
X000741Y000478D01*
X000752Y000470D02*
X000760Y000482D01*
X000752Y000470D01*
X000763Y000470D02*
X000769Y000470D01*
X000771Y000472D01*
X000771Y000476D01*
X000769Y000478D01*
X000763Y000478D01*
X000769Y000478D01*
X000771Y000476D01*
X000771Y000472D01*
X000769Y000470D01*
X000763Y000470D01*
X000763Y000482D01*
X000763Y000470D01*
X000774Y000472D02*
X000776Y000470D01*
X000780Y000470D01*
X000782Y000472D01*
X000782Y000476D01*
X000780Y000478D01*
X000776Y000478D01*
X000774Y000476D01*
X000774Y000472D01*
X000776Y000470D01*
X000780Y000470D01*
X000782Y000472D01*
X000782Y000476D01*
X000780Y000478D01*
X000776Y000478D01*
X000774Y000476D01*
X000774Y000472D01*
X000785Y000472D02*
X000787Y000470D01*
X000785Y000472D01*
X000785Y000476D01*
X000787Y000478D01*
X000785Y000476D01*
X000785Y000472D01*
X000787Y000470D02*
X000791Y000470D01*
X000793Y000472D01*
X000793Y000476D01*
X000791Y000478D01*
X000787Y000478D01*
X000791Y000478D01*
X000793Y000476D01*
X000793Y000472D01*
X000791Y000470D01*
X000787Y000470D01*
X000796Y000470D02*
X000796Y000478D01*
X000798Y000478D01*
X000800Y000476D01*
X000802Y000478D01*
X000804Y000476D01*
X000804Y000470D01*
X000804Y000476D01*
X000802Y000478D01*
X000800Y000476D01*
X000800Y000470D01*
X000800Y000476D01*
X000798Y000478D01*
X000796Y000478D01*
X000796Y000470D01*
X000808Y000468D02*
X000816Y000468D01*
X000808Y000468D01*
X000819Y000470D02*
X000819Y000478D01*
X000821Y000478D01*
X000823Y000476D01*
X000825Y000478D01*
X000827Y000476D01*
X000827Y000470D01*
X000827Y000476D01*
X000825Y000478D01*
X000823Y000476D01*
X000823Y000470D01*
X000823Y000476D01*
X000821Y000478D01*
X000819Y000478D01*
X000819Y000470D01*
X000830Y000472D02*
X000832Y000470D01*
X000836Y000470D01*
X000838Y000472D01*
X000838Y000476D01*
X000836Y000478D01*
X000832Y000478D01*
X000830Y000476D01*
X000830Y000472D01*
X000832Y000470D01*
X000836Y000470D01*
X000838Y000472D01*
X000838Y000476D01*
X000836Y000478D01*
X000832Y000478D01*
X000830Y000476D01*
X000830Y000472D01*
X000841Y000470D02*
X000841Y000478D01*
X000847Y000478D01*
X000849Y000476D01*
X000849Y000470D01*
X000849Y000476D01*
X000847Y000478D01*
X000841Y000478D01*
X000841Y000470D01*
X000852Y000472D02*
X000854Y000470D01*
X000858Y000470D01*
X000860Y000472D01*
X000860Y000476D01*
X000858Y000478D01*
X000854Y000478D01*
X000852Y000476D01*
X000852Y000472D01*
X000854Y000470D01*
X000858Y000470D01*
X000860Y000472D01*
X000860Y000476D01*
X000858Y000478D01*
X000854Y000478D01*
X000852Y000476D01*
X000852Y000472D01*
X000863Y000472D02*
X000865Y000472D01*
X000865Y000470D01*
X000863Y000470D01*
X000863Y000472D01*
X000865Y000472D01*
X000865Y000470D01*
X000863Y000470D01*
X000863Y000472D01*
X000868Y000470D02*
X000874Y000470D01*
X000876Y000472D01*
X000876Y000476D01*
X000874Y000478D01*
X000868Y000478D01*
X000874Y000478D01*
X000876Y000476D01*
X000876Y000472D01*
X000874Y000470D01*
X000868Y000470D01*
X000868Y000482D01*
X000868Y000470D01*
X000879Y000470D02*
X000879Y000478D01*
X000881Y000478D01*
X000883Y000476D01*
X000885Y000478D01*
X000887Y000476D01*
X000887Y000470D01*
X000887Y000476D01*
X000885Y000478D01*
X000883Y000476D01*
X000883Y000470D01*
X000883Y000476D01*
X000881Y000478D01*
X000879Y000478D01*
X000879Y000470D01*
X000890Y000470D02*
X000896Y000470D01*
X000898Y000472D01*
X000898Y000476D01*
X000896Y000478D01*
X000890Y000478D01*
X000890Y000466D01*
X000890Y000478D01*
X000896Y000478D01*
X000898Y000476D01*
X000898Y000472D01*
X000896Y000470D01*
X000890Y000470D01*
X000664Y000484D02*
X000664Y000482D01*
X000664Y000484D01*
D18*
X002012Y001538D03*
X003218Y000878D03*
X003218Y000872D03*
X003218Y000866D03*
X004208Y001112D03*
X004208Y001118D03*
X004208Y001124D03*
X004208Y001136D03*
X005912Y001214D03*
X005918Y001202D03*
X003848Y002498D03*
X001718Y003284D03*
X004172Y005006D03*
X004172Y005012D03*
X002858Y005156D03*
X002852Y005168D03*
X002852Y005174D03*
X005522Y005108D03*
X005522Y005102D03*
X005528Y005114D03*
D19*
X005519Y005096D03*
X006653Y004712D03*
X006659Y004718D03*
X005627Y003218D03*
X005627Y003212D03*
X005627Y003206D03*
X006173Y003002D03*
X006167Y002984D03*
X005891Y001256D03*
X004211Y001148D03*
X004211Y001142D03*
X003221Y000896D03*
X003221Y000884D03*
X001949Y003602D03*
X002873Y005114D03*
X002867Y005126D03*
X002867Y005132D03*
X002861Y005138D03*
X002861Y005144D03*
D20*
X002861Y005150D03*
X001259Y004550D03*
X005519Y005090D03*
X006167Y002990D03*
X003221Y000890D03*
D21*
X003224Y000902D03*
X003224Y000908D03*
X003224Y000932D03*
X004208Y001154D03*
X004208Y001166D03*
X004208Y001172D03*
X004208Y001178D03*
X005870Y001292D03*
X005870Y001298D03*
X005876Y001286D03*
X005882Y001274D03*
X003848Y002492D03*
X002114Y002384D03*
X003914Y003344D03*
X005624Y003194D03*
X005624Y003188D03*
X005948Y003206D03*
X006164Y002978D03*
X006164Y002972D03*
X006644Y004706D03*
X005516Y005084D03*
X005510Y005072D03*
X004172Y004958D03*
X004172Y004952D03*
X004172Y004946D03*
X002882Y005084D03*
X002876Y005096D03*
X002876Y005102D03*
X002876Y005108D03*
X001280Y004538D03*
X001268Y004544D03*
D22*
X001289Y004532D03*
X002891Y005054D03*
X005507Y005066D03*
X005513Y005078D03*
X005957Y003236D03*
X005951Y003218D03*
X005951Y003212D03*
X005621Y003182D03*
X005621Y003176D03*
X006161Y002966D03*
X003851Y002486D03*
X003851Y002474D03*
X002039Y001568D03*
X002033Y001562D03*
X002027Y001556D03*
X003227Y000926D03*
X003227Y000914D03*
X004211Y001184D03*
X004211Y001196D03*
X005861Y001316D03*
X005867Y001304D03*
D23*
X005861Y001310D03*
X004211Y001190D03*
X003227Y000950D03*
X003227Y000920D03*
X003851Y002480D03*
X003917Y003350D03*
X005621Y003170D03*
X006641Y004700D03*
X005507Y005060D03*
X002891Y005060D03*
D24*
X002894Y005048D03*
X002894Y005042D03*
X002900Y005036D03*
X002900Y005024D03*
X002906Y005012D03*
X005504Y005054D03*
X006584Y003794D03*
X006584Y003788D03*
X006584Y003782D03*
X006584Y003776D03*
X006584Y003764D03*
X005960Y003248D03*
X005960Y003242D03*
X005954Y003224D03*
X003920Y003356D03*
X003920Y003362D03*
X003920Y003368D03*
X001724Y003296D03*
X002066Y001598D03*
X002060Y001592D03*
X002054Y001586D03*
X003230Y000944D03*
X003230Y000938D03*
X005846Y001346D03*
D25*
X004208Y001100D03*
X003254Y000950D03*
X002084Y002900D03*
D26*
X001727Y003302D03*
X002117Y002396D03*
X003923Y003374D03*
X005963Y003254D03*
X006143Y002924D03*
X006443Y002684D03*
X006587Y003746D03*
X006587Y003752D03*
X006587Y003758D03*
X006623Y004688D03*
X002903Y005018D03*
X005837Y001364D03*
X005843Y001352D03*
X003233Y000962D03*
X003233Y000956D03*
D27*
X003236Y000968D03*
X003236Y000974D03*
X004208Y001244D03*
X004208Y001256D03*
X004208Y001262D03*
X005834Y001376D03*
X006446Y002486D03*
X006434Y002516D03*
X006428Y002528D03*
X006428Y002534D03*
X006422Y002552D03*
X006422Y002558D03*
X006422Y002564D03*
X006422Y002576D03*
X006422Y002582D03*
X006422Y002588D03*
X006422Y002594D03*
X006422Y002606D03*
X006428Y002624D03*
X006428Y002636D03*
X006428Y002642D03*
X006866Y002666D03*
X006872Y002654D03*
X006878Y002642D03*
X006884Y002624D03*
X005966Y003266D03*
X005966Y003272D03*
X005612Y003128D03*
X005612Y003122D03*
X005114Y003002D03*
X006896Y003884D03*
X006902Y003902D03*
X006914Y003932D03*
X006968Y004088D03*
X006974Y004106D03*
X005486Y005012D03*
X005492Y005024D03*
X004172Y004874D03*
X004172Y004868D03*
X004172Y004862D03*
X004172Y004856D03*
X002924Y004952D03*
X002918Y004964D03*
X002918Y004976D03*
X002912Y004988D03*
X001328Y004508D03*
X001316Y004514D03*
X001172Y003446D03*
X001178Y003428D03*
X001262Y003194D03*
X001406Y002804D03*
X001412Y002792D03*
X001418Y002774D03*
X001424Y002756D03*
X001436Y002726D03*
X001442Y002708D03*
X001442Y002702D03*
X001448Y002684D03*
X001454Y002678D03*
X001454Y002672D03*
X001466Y002642D03*
X001466Y002636D03*
X001472Y002624D03*
X001478Y002606D03*
X001484Y002594D03*
X001496Y002564D03*
X001496Y002558D03*
X001502Y002552D03*
X001502Y002546D03*
X001508Y002534D03*
X001508Y002528D03*
X001514Y002522D03*
X001514Y002516D03*
X001526Y002486D03*
X001532Y002468D03*
X001532Y002462D03*
X001538Y002444D03*
X001544Y002432D03*
X001544Y002426D03*
X001556Y002396D03*
X001568Y002366D03*
X001598Y002282D03*
X001616Y002234D03*
X001622Y002216D03*
X001628Y002204D03*
X001628Y002198D03*
X001634Y002186D03*
X001646Y002156D03*
X001652Y002138D03*
X001652Y002132D03*
X001658Y002114D03*
X001664Y002096D03*
X001712Y001964D03*
X001736Y001898D03*
X001856Y001592D03*
X002084Y001616D03*
X002078Y002492D03*
X002072Y002504D03*
D28*
X001538Y002450D03*
X001526Y002480D03*
X001514Y002510D03*
X001448Y002690D03*
X001436Y002720D03*
X001634Y002180D03*
X001646Y002150D03*
X001658Y002120D03*
X002078Y001610D03*
X003236Y000980D03*
X004208Y001250D03*
X005834Y001370D03*
X003848Y002450D03*
X005096Y002960D03*
X005108Y002990D03*
X006134Y002900D03*
X006446Y002690D03*
X006434Y002660D03*
X006428Y002630D03*
X006422Y002600D03*
X006422Y002570D03*
X006428Y002540D03*
X006434Y002510D03*
X004172Y004850D03*
X004172Y004880D03*
X002918Y004970D03*
D29*
X002921Y004958D03*
X002927Y004946D03*
X001337Y004502D03*
X001157Y003506D03*
X001157Y003494D03*
X001157Y003488D03*
X001163Y003482D03*
X001163Y003476D03*
X001169Y003464D03*
X001169Y003458D03*
X001169Y003452D03*
X001175Y003434D03*
X001181Y003422D03*
X001181Y003416D03*
X001187Y003404D03*
X001193Y003392D03*
X001193Y003386D03*
X001199Y003374D03*
X001199Y003368D03*
X001205Y003362D03*
X001205Y003356D03*
X001211Y003344D03*
X001211Y003338D03*
X001217Y003326D03*
X001223Y003308D03*
X001223Y003302D03*
X001235Y003278D03*
X001235Y003272D03*
X001241Y003254D03*
X001247Y003242D03*
X001247Y003236D03*
X001253Y003224D03*
X001253Y003218D03*
X001253Y003212D03*
X001259Y003206D03*
X001265Y003188D03*
X001265Y003182D03*
X001271Y003176D03*
X001271Y003164D03*
X001277Y003158D03*
X001277Y003152D03*
X001277Y003146D03*
X001283Y003134D03*
X001289Y003122D03*
X001289Y003116D03*
X001295Y003104D03*
X001295Y003098D03*
X001301Y003092D03*
X001301Y003086D03*
X001307Y003074D03*
X001307Y003068D03*
X001313Y003062D03*
X001313Y003056D03*
X001319Y003044D03*
X001319Y003038D03*
X001325Y003026D03*
X001343Y002972D03*
X001349Y002954D03*
X001355Y002942D03*
X001379Y002882D03*
X001379Y002876D03*
X001385Y002864D03*
X001385Y002858D03*
X001391Y002852D03*
X001391Y002846D03*
X001397Y002834D03*
X001397Y002828D03*
X001397Y002822D03*
X001403Y002816D03*
X001409Y002798D03*
X001415Y002786D03*
X001421Y002768D03*
X001421Y002762D03*
X001427Y002744D03*
X001433Y002732D03*
X001439Y002714D03*
X001445Y002696D03*
X001457Y002666D03*
X001463Y002648D03*
X001475Y002618D03*
X001475Y002612D03*
X001487Y002588D03*
X001529Y002474D03*
X001535Y002456D03*
X001541Y002438D03*
X001553Y002408D03*
X001553Y002402D03*
X001559Y002384D03*
X001565Y002378D03*
X001565Y002372D03*
X001571Y002354D03*
X001577Y002348D03*
X001577Y002342D03*
X001577Y002336D03*
X001583Y002324D03*
X001583Y002318D03*
X001589Y002312D03*
X001589Y002306D03*
X001595Y002294D03*
X001595Y002288D03*
X001601Y002276D03*
X001607Y002264D03*
X001607Y002258D03*
X001607Y002252D03*
X001613Y002246D03*
X001619Y002228D03*
X001619Y002222D03*
X001631Y002192D03*
X001643Y002162D03*
X001649Y002144D03*
X001655Y002126D03*
X001661Y002108D03*
X001661Y002102D03*
X001667Y002084D03*
X001673Y002072D03*
X001673Y002066D03*
X001679Y002048D03*
X001685Y002042D03*
X001685Y002036D03*
X001691Y002024D03*
X001691Y002018D03*
X001697Y002012D03*
X001697Y002006D03*
X001703Y001994D03*
X001703Y001988D03*
X001703Y001982D03*
X001709Y001976D03*
X001715Y001958D03*
X001715Y001952D03*
X001721Y001946D03*
X001721Y001934D03*
X001727Y001928D03*
X001727Y001922D03*
X001727Y001916D03*
X001733Y001904D03*
X001739Y001892D03*
X001739Y001886D03*
X001745Y001874D03*
X001745Y001868D03*
X001751Y001856D03*
X001757Y001844D03*
X001757Y001838D03*
X001763Y001826D03*
X001769Y001808D03*
X001769Y001802D03*
X001775Y001796D03*
X002093Y001628D03*
X002099Y001634D03*
X003239Y000998D03*
X003239Y000992D03*
X003239Y000986D03*
X004211Y001268D03*
X004211Y001274D03*
X005825Y001388D03*
X005825Y001394D03*
X005831Y001382D03*
X006461Y002456D03*
X006455Y002462D03*
X006455Y002468D03*
X006449Y002474D03*
X006443Y002492D03*
X006437Y002504D03*
X006431Y002522D03*
X006425Y002546D03*
X006431Y002648D03*
X006431Y002654D03*
X006437Y002666D03*
X006449Y002696D03*
X006455Y002708D03*
X006461Y002714D03*
X006131Y002888D03*
X006131Y002894D03*
X006137Y002906D03*
X005609Y003098D03*
X005609Y003104D03*
X005609Y003116D03*
X005969Y003278D03*
X005969Y003284D03*
X005975Y003296D03*
X005975Y003302D03*
X005255Y003332D03*
X005231Y003278D03*
X005219Y003248D03*
X005207Y003218D03*
X005201Y003206D03*
X005195Y003194D03*
X005195Y003188D03*
X005189Y003182D03*
X005189Y003176D03*
X005183Y003164D03*
X005177Y003152D03*
X005177Y003146D03*
X005165Y003122D03*
X005159Y003104D03*
X005153Y003098D03*
X005153Y003092D03*
X005147Y003086D03*
X005147Y003074D03*
X005141Y003068D03*
X005141Y003062D03*
X005135Y003056D03*
X005135Y003044D03*
X005129Y003038D03*
X005129Y003032D03*
X005123Y003026D03*
X005117Y003014D03*
X005117Y003008D03*
X005111Y002996D03*
X005099Y002972D03*
X005099Y002966D03*
X005093Y002954D03*
X005093Y002948D03*
X005087Y002942D03*
X005087Y002936D03*
X005081Y002924D03*
X005075Y002918D03*
X005075Y002912D03*
X005063Y002888D03*
X005051Y002858D03*
X005045Y002846D03*
X005027Y002804D03*
X005027Y002798D03*
X005021Y002786D03*
X005015Y002774D03*
X005009Y002762D03*
X004997Y002738D03*
X004997Y002732D03*
X004991Y002726D03*
X004991Y002714D03*
X004985Y002708D03*
X004985Y002702D03*
X004979Y002696D03*
X004973Y002678D03*
X004961Y002654D03*
X004955Y002642D03*
X004949Y002624D03*
X004943Y002612D03*
X004943Y002606D03*
X004937Y002594D03*
X004937Y002588D03*
X004931Y002582D03*
X004931Y002576D03*
X004925Y002564D03*
X004913Y002534D03*
X003851Y002444D03*
X002117Y002402D03*
X002081Y002486D03*
X002075Y002498D03*
X002069Y002516D03*
X002051Y002552D03*
X002051Y002558D03*
X002045Y002564D03*
X002039Y002582D03*
X002033Y002594D03*
X002027Y002606D03*
X002027Y002612D03*
X003923Y003392D03*
X003923Y003398D03*
X006053Y003992D03*
X006593Y003734D03*
X006827Y003692D03*
X006839Y003728D03*
X006845Y003746D03*
X006851Y003758D03*
X006851Y003764D03*
X006857Y003776D03*
X006857Y003782D03*
X006863Y003788D03*
X006863Y003794D03*
X006869Y003806D03*
X006869Y003812D03*
X006875Y003824D03*
X006881Y003842D03*
X006881Y003848D03*
X006887Y003854D03*
X006887Y003866D03*
X006893Y003872D03*
X006893Y003878D03*
X006899Y003896D03*
X006905Y003908D03*
X006905Y003914D03*
X006911Y003926D03*
X006917Y003938D03*
X006917Y003944D03*
X006923Y003956D03*
X006923Y003962D03*
X006923Y003968D03*
X006929Y003974D03*
X006929Y003986D03*
X006935Y003992D03*
X006935Y003998D03*
X006935Y004004D03*
X006941Y004016D03*
X006947Y004022D03*
X006947Y004028D03*
X006947Y004034D03*
X006953Y004046D03*
X006953Y004052D03*
X006959Y004058D03*
X006959Y004064D03*
X006965Y004076D03*
X006965Y004082D03*
X006971Y004094D03*
X006977Y004112D03*
X006977Y004118D03*
X006983Y004124D03*
X006611Y004676D03*
X006617Y004682D03*
X005489Y005018D03*
X005483Y005006D03*
X006857Y002684D03*
X006857Y002678D03*
X006863Y002672D03*
X006875Y002648D03*
X006881Y002636D03*
X006887Y002618D03*
X006887Y002612D03*
D30*
X006896Y002594D03*
X006896Y002588D03*
X006482Y002432D03*
X006476Y002438D03*
X006452Y002702D03*
X006476Y002732D03*
X006128Y002882D03*
X005606Y003086D03*
X005606Y003092D03*
X005216Y003236D03*
X005216Y003242D03*
X005222Y003254D03*
X005228Y003266D03*
X005228Y003272D03*
X005234Y003284D03*
X005246Y003308D03*
X005246Y003314D03*
X005252Y003326D03*
X005258Y003338D03*
X005258Y003344D03*
X005264Y003356D03*
X005264Y003362D03*
X005282Y003398D03*
X005294Y003422D03*
X005204Y003212D03*
X005168Y003134D03*
X005168Y003128D03*
X005162Y003116D03*
X005102Y002984D03*
X005102Y002978D03*
X005072Y002906D03*
X005066Y002894D03*
X005054Y002864D03*
X005048Y002852D03*
X005042Y002834D03*
X005024Y002792D03*
X005012Y002768D03*
X005006Y002756D03*
X004976Y002684D03*
X004964Y002666D03*
X004958Y002648D03*
X004952Y002636D03*
X004946Y002618D03*
X004922Y002558D03*
X004922Y002552D03*
X004916Y002546D03*
X004466Y002528D03*
X003848Y002438D03*
X002648Y002648D03*
X002624Y002702D03*
X002618Y002714D03*
X002612Y002732D03*
X002594Y002774D03*
X002564Y002858D03*
X002558Y002876D03*
X002558Y002882D03*
X002552Y002894D03*
X002546Y002918D03*
X002522Y003002D03*
X002516Y003026D03*
X002504Y003086D03*
X002504Y003092D03*
X002504Y003098D03*
X002498Y003128D03*
X002498Y003134D03*
X002498Y003146D03*
X002492Y003182D03*
X002492Y003188D03*
X002492Y003194D03*
X002486Y003248D03*
X002486Y003254D03*
X002486Y003266D03*
X002486Y003272D03*
X002486Y003278D03*
X001376Y002888D03*
X001358Y002936D03*
X001352Y002948D03*
X001346Y002966D03*
X001334Y002996D03*
X001334Y003002D03*
X001328Y003008D03*
X001328Y003014D03*
X001322Y003032D03*
X001286Y003128D03*
X001244Y003248D03*
X001238Y003266D03*
X001232Y003284D03*
X001226Y003296D03*
X001214Y003332D03*
X002024Y002624D03*
X002024Y002618D03*
X002036Y002588D03*
X002042Y002576D03*
X002054Y002546D03*
X002054Y002534D03*
X002354Y002654D03*
X002366Y002666D03*
X002366Y002672D03*
X002372Y002678D03*
X002378Y002684D03*
X001682Y002054D03*
X001748Y001862D03*
X001766Y001814D03*
X001778Y001784D03*
X001784Y001778D03*
X002114Y001646D03*
X003248Y001034D03*
X003248Y001028D03*
X003242Y001016D03*
X003242Y001004D03*
X004208Y001286D03*
X004208Y001292D03*
X005816Y001406D03*
X005816Y001412D03*
X007088Y002072D03*
X005978Y003308D03*
X005978Y003314D03*
X006782Y003578D03*
X006794Y003608D03*
X006806Y003638D03*
X006806Y003644D03*
X006812Y003656D03*
X006812Y003662D03*
X006818Y003674D03*
X006824Y003686D03*
X006836Y003716D03*
X006836Y003722D03*
X006842Y003734D03*
X006848Y003752D03*
X006872Y003818D03*
X006878Y003836D03*
X007628Y003962D03*
X004172Y004826D03*
X004172Y004832D03*
X004172Y004838D03*
X004172Y004844D03*
X002936Y004916D03*
X002936Y004922D03*
X001346Y004496D03*
D31*
X002486Y003260D03*
X002492Y003200D03*
X002498Y003140D03*
X002552Y002900D03*
X002642Y002660D03*
X002378Y002690D03*
X002054Y002540D03*
X002084Y002480D03*
X001358Y002930D03*
X001346Y002960D03*
X001754Y001850D03*
X003242Y001010D03*
X005822Y001400D03*
X006464Y002450D03*
X006464Y002720D03*
X006854Y002690D03*
X005972Y003290D03*
X005606Y003080D03*
X005198Y003200D03*
X005276Y003380D03*
X005288Y003410D03*
X005018Y002780D03*
X004928Y002570D03*
X006788Y003590D03*
X006866Y003800D03*
X006602Y004670D03*
X004172Y004820D03*
D32*
X002945Y004892D03*
X002939Y004904D03*
X005471Y004976D03*
X007631Y003974D03*
X007631Y003968D03*
X007625Y003956D03*
X007619Y003944D03*
X006815Y003668D03*
X006791Y003602D03*
X006791Y003596D03*
X006785Y003584D03*
X006599Y003728D03*
X005981Y003326D03*
X005291Y003416D03*
X005285Y003404D03*
X005279Y003392D03*
X005279Y003386D03*
X006125Y002876D03*
X006119Y002864D03*
X006119Y002858D03*
X006479Y002738D03*
X006485Y002744D03*
X006851Y002696D03*
X006899Y002582D03*
X006545Y001934D03*
X004211Y001322D03*
X004211Y001316D03*
X004211Y001304D03*
X004211Y001298D03*
X003251Y001052D03*
X003251Y001046D03*
X003245Y001022D03*
X003851Y002432D03*
X003305Y002666D03*
X002681Y002582D03*
X002675Y002594D03*
X002669Y002606D03*
X002651Y002636D03*
X002651Y002642D03*
X002645Y002654D03*
X002639Y002666D03*
X002639Y002672D03*
X002621Y002708D03*
X002615Y002726D03*
X002591Y002786D03*
X002585Y002792D03*
X002585Y002798D03*
X002579Y002804D03*
X002561Y002864D03*
X002555Y002888D03*
X002549Y002906D03*
X002549Y002912D03*
X002531Y002966D03*
X002531Y002972D03*
X002531Y002978D03*
X002525Y002984D03*
X002525Y002996D03*
X002519Y003008D03*
X002519Y003014D03*
X002501Y003104D03*
X002501Y003116D03*
X002501Y003122D03*
X002495Y003152D03*
X002495Y003158D03*
X002495Y003164D03*
X002495Y003176D03*
X002489Y003206D03*
X002489Y003212D03*
X002489Y003218D03*
X002489Y003224D03*
X002489Y003236D03*
X002489Y003242D03*
X001355Y002924D03*
X001241Y002888D03*
X002021Y002636D03*
X002321Y002612D03*
X002339Y002636D03*
X002345Y002642D03*
X002351Y002648D03*
X002381Y002696D03*
X002381Y002702D03*
D33*
X002339Y002630D03*
X002615Y002720D03*
X002591Y002780D03*
X002561Y002870D03*
X002525Y002990D03*
X002519Y003020D03*
X002501Y003110D03*
X002495Y003170D03*
X002489Y003230D03*
X002021Y002630D03*
X002669Y002600D03*
X004961Y002660D03*
X005261Y003350D03*
X005981Y003320D03*
X006125Y002870D03*
X006491Y002750D03*
X006809Y003650D03*
X007619Y003950D03*
X002939Y004910D03*
X001355Y004490D03*
X004211Y001310D03*
X003251Y001040D03*
D34*
X003254Y001058D03*
X003254Y001064D03*
X005804Y001436D03*
X005810Y001424D03*
X004910Y002516D03*
X004916Y002522D03*
X005600Y003044D03*
X005600Y003056D03*
X005984Y003332D03*
X005984Y003338D03*
X005990Y003356D03*
X005306Y003458D03*
X005300Y003446D03*
X006560Y002984D03*
X006560Y002978D03*
X006560Y002972D03*
X006500Y002756D03*
X006116Y002846D03*
X006116Y002852D03*
X006854Y002702D03*
X006896Y002576D03*
X007616Y003932D03*
X007616Y003938D03*
X006590Y004658D03*
X003920Y003416D03*
X002576Y002816D03*
X002606Y002744D03*
X002606Y002738D03*
X002636Y002684D03*
X002636Y002678D03*
X002684Y002576D03*
X002690Y002564D03*
X002696Y002552D03*
X002714Y002522D03*
X002726Y002504D03*
X002306Y002594D03*
X002246Y002528D03*
X002240Y002522D03*
X002234Y002516D03*
X002216Y002498D03*
X002210Y002492D03*
X002126Y002414D03*
X002276Y003266D03*
X001166Y003524D03*
X001370Y004478D03*
X001364Y004484D03*
D35*
X002957Y004850D03*
X001169Y003530D03*
X001739Y003320D03*
X002603Y002750D03*
X005303Y003470D03*
X006113Y002840D03*
X006563Y002960D03*
X006563Y002990D03*
X006899Y002570D03*
X006497Y002420D03*
X004211Y001340D03*
X003257Y001070D03*
D36*
X003257Y001076D03*
X003257Y001082D03*
X004211Y001328D03*
X004211Y001334D03*
X004211Y001346D03*
X004211Y001352D03*
X005801Y001442D03*
X006899Y002564D03*
X006563Y002966D03*
X006563Y002996D03*
X006563Y003002D03*
X006107Y002834D03*
X006107Y002828D03*
X005597Y003038D03*
X005993Y003362D03*
X005993Y003368D03*
X005303Y003464D03*
X003923Y003428D03*
X003923Y003422D03*
X002603Y002756D03*
X002381Y002708D03*
X002279Y002564D03*
X002273Y002558D03*
X002267Y002552D03*
X002261Y002546D03*
X002201Y002486D03*
X002021Y002648D03*
X002717Y002516D03*
X002729Y002498D03*
X002729Y002492D03*
X001181Y003542D03*
X002957Y004856D03*
X002957Y004862D03*
X002951Y004868D03*
X002951Y004874D03*
X005459Y004946D03*
X006581Y004652D03*
X007631Y003986D03*
X007613Y003926D03*
D37*
X006578Y004646D03*
X005462Y004952D03*
X004172Y004778D03*
X004172Y004772D03*
X002960Y004838D03*
X002960Y004844D03*
X003548Y004016D03*
X003926Y003434D03*
X005306Y003476D03*
X005306Y003482D03*
X005996Y003374D03*
X005594Y003032D03*
X005594Y003026D03*
X005594Y003014D03*
X005594Y003008D03*
X006104Y002822D03*
X006104Y002816D03*
X006098Y002804D03*
X006566Y002954D03*
X006566Y003008D03*
X006566Y003014D03*
X006854Y002708D03*
X006902Y002558D03*
X006902Y002552D03*
X006500Y002414D03*
X004910Y002498D03*
X003848Y002414D03*
X002378Y002714D03*
X002186Y002474D03*
X004214Y001358D03*
X003260Y001094D03*
X003260Y001088D03*
X005798Y001448D03*
X005798Y001454D03*
X001394Y004466D03*
D38*
X003926Y003440D03*
X002126Y002420D03*
X003260Y001100D03*
X005792Y001460D03*
X006566Y003020D03*
X005996Y003380D03*
X005456Y004940D03*
D39*
X005453Y004934D03*
X005453Y004928D03*
X003563Y004004D03*
X003539Y004022D03*
X003929Y003446D03*
X005309Y003488D03*
X005999Y003392D03*
X005999Y003386D03*
X005591Y003002D03*
X005591Y002996D03*
X006509Y002762D03*
X006569Y003026D03*
X006569Y003032D03*
X006569Y003038D03*
X006509Y002408D03*
X007049Y002084D03*
X005789Y001466D03*
X004211Y001382D03*
X004211Y001376D03*
X004211Y001364D03*
X003263Y001118D03*
X003263Y001112D03*
X003263Y001106D03*
X002129Y002426D03*
X002021Y002654D03*
X001349Y002918D03*
X001739Y003326D03*
X002291Y003272D03*
X001211Y003566D03*
X001193Y003554D03*
X001187Y003548D03*
X002969Y004814D03*
X002963Y004826D03*
X002963Y004832D03*
X006563Y003812D03*
D40*
X006614Y003722D03*
X007616Y003914D03*
X006560Y004634D03*
X005450Y004922D03*
X003530Y004028D03*
X003524Y004034D03*
X003926Y003452D03*
X005306Y003494D03*
X006086Y002774D03*
X006524Y002402D03*
X004916Y002492D03*
X004214Y001388D03*
X003266Y001124D03*
X005780Y001484D03*
X005786Y001478D03*
X005786Y001472D03*
X001226Y003578D03*
X001220Y003572D03*
D41*
X002024Y002660D03*
X003266Y001130D03*
X005306Y003500D03*
X005444Y004910D03*
D42*
X005528Y005120D03*
X004208Y001130D03*
D43*
X004211Y001394D03*
X004211Y001406D03*
X004211Y001412D03*
X003269Y001148D03*
X003269Y001142D03*
X003269Y001136D03*
X003845Y002396D03*
X002735Y002474D03*
X002381Y002732D03*
X002129Y002432D03*
X001745Y003338D03*
X001259Y003602D03*
X001235Y003584D03*
X001415Y004454D03*
X002975Y004796D03*
X002981Y004772D03*
X004175Y004742D03*
X004175Y004736D03*
X005441Y004904D03*
X003509Y004046D03*
X003491Y004058D03*
X003929Y003458D03*
X005309Y003506D03*
X005309Y003512D03*
X006011Y003434D03*
X006011Y003428D03*
X006581Y003086D03*
X006575Y002948D03*
X006521Y002768D03*
X006905Y002534D03*
X005585Y002954D03*
X005585Y002966D03*
D44*
X005582Y002948D03*
X005582Y002942D03*
X005582Y002936D03*
X006068Y002732D03*
X006074Y002738D03*
X006074Y002744D03*
X006584Y003092D03*
X006584Y003098D03*
X006584Y003104D03*
X006014Y003446D03*
X005306Y003518D03*
X006554Y003818D03*
X006548Y004622D03*
X005438Y004892D03*
X005438Y004898D03*
X004178Y004724D03*
X004178Y004718D03*
X002984Y004766D03*
X002978Y004778D03*
X002978Y004784D03*
X003482Y004064D03*
X003932Y003464D03*
X002378Y002738D03*
X002132Y002438D03*
X002732Y002468D03*
X001874Y001604D03*
X003272Y001166D03*
X003272Y001154D03*
X004214Y001418D03*
X004214Y001424D03*
X005768Y001508D03*
X005774Y001502D03*
X005774Y001496D03*
X006536Y002396D03*
X006902Y002522D03*
X006902Y002528D03*
X004922Y002486D03*
X001928Y003584D03*
X001748Y003344D03*
X001268Y003608D03*
X001292Y003626D03*
X001304Y003632D03*
X001322Y003644D03*
X001424Y004448D03*
D45*
X001286Y003620D03*
X002984Y004760D03*
X003596Y003980D03*
X003842Y002390D03*
X003272Y001160D03*
D46*
X004208Y001160D03*
X005876Y001280D03*
X005948Y003200D03*
X005624Y003200D03*
X004172Y004940D03*
X002882Y005090D03*
X002870Y005120D03*
X001718Y003290D03*
X002024Y001550D03*
D47*
X003275Y001178D03*
X003275Y001172D03*
X004211Y001436D03*
X005765Y001514D03*
X006533Y002132D03*
X006905Y002516D03*
X006065Y002726D03*
X006059Y002708D03*
X005579Y002918D03*
X005579Y002924D03*
X006023Y003476D03*
X005309Y003524D03*
X004685Y003602D03*
X003605Y003974D03*
X003461Y004076D03*
X004175Y004706D03*
X004175Y004712D03*
X002993Y004736D03*
X002987Y004748D03*
X002987Y004754D03*
X001433Y004442D03*
X002303Y003278D03*
X001337Y002912D03*
X002735Y002462D03*
X003299Y002672D03*
X003845Y002384D03*
X006587Y003116D03*
X006587Y003122D03*
X006617Y003578D03*
X006617Y003584D03*
X006617Y003596D03*
X006617Y003602D03*
X006617Y003608D03*
X006617Y003614D03*
X006617Y003626D03*
X006617Y003632D03*
X006623Y003704D03*
X007037Y004178D03*
X007619Y003998D03*
X007619Y003908D03*
X006539Y004616D03*
X005435Y004886D03*
X005429Y004874D03*
D48*
X002843Y005192D03*
X005633Y003236D03*
X006677Y002942D03*
X005927Y001184D03*
X005933Y001172D03*
D49*
X005930Y001178D03*
X005240Y002414D03*
X001910Y003614D03*
D50*
X001352Y003662D03*
X001448Y004436D03*
X002996Y004724D03*
X004178Y004694D03*
X004178Y004688D03*
X003452Y004082D03*
X003146Y003776D03*
X003932Y003476D03*
X002372Y002744D03*
X002132Y002444D03*
X002738Y002456D03*
X003842Y002378D03*
X005576Y002906D03*
X005576Y002912D03*
X006056Y002702D03*
X006056Y002696D03*
X006062Y002714D03*
X006902Y002504D03*
X006902Y002498D03*
X006026Y003482D03*
X006026Y003488D03*
X005426Y004868D03*
X005762Y001526D03*
X004214Y001448D03*
X004214Y001442D03*
X003278Y001196D03*
X003278Y001184D03*
D51*
X003278Y001190D03*
X005762Y001520D03*
X005576Y002900D03*
X006536Y004610D03*
X005432Y004880D03*
X004178Y004700D03*
X002996Y004730D03*
X001748Y003350D03*
D52*
X001919Y003578D03*
X001421Y003704D03*
X001391Y003686D03*
X001361Y003668D03*
X002315Y002954D03*
X003929Y003482D03*
X005309Y003536D03*
X005309Y003542D03*
X006029Y003494D03*
X006035Y003506D03*
X006035Y003512D03*
X006035Y003518D03*
X006545Y003824D03*
X004181Y004682D03*
X002999Y004712D03*
X002999Y004718D03*
X005759Y001532D03*
X004211Y001466D03*
X004211Y001454D03*
X003281Y001214D03*
X003281Y001208D03*
X003281Y001202D03*
D53*
X004208Y001202D03*
X004208Y001208D03*
X004208Y001214D03*
X005852Y001334D03*
X005858Y001322D03*
X007112Y002066D03*
X006152Y002942D03*
X006152Y002948D03*
X005618Y003152D03*
X005618Y003158D03*
X005618Y003164D03*
X006632Y004694D03*
X005498Y005042D03*
X004172Y004916D03*
X004172Y004904D03*
X004172Y004898D03*
X004172Y004892D03*
X004172Y004886D03*
X001298Y004526D03*
X002252Y003254D03*
X001208Y002882D03*
D54*
X001430Y003710D03*
X001484Y003740D03*
X005420Y004850D03*
X006596Y003170D03*
X005570Y002870D03*
X005750Y001550D03*
X003284Y001220D03*
D55*
X004208Y001220D03*
X002048Y001580D03*
X004172Y004910D03*
D56*
X005420Y004856D03*
X006596Y003164D03*
X006596Y003158D03*
X006590Y002942D03*
X006050Y002684D03*
X006044Y002672D03*
X006044Y002666D03*
X005570Y002864D03*
X005570Y002876D03*
X004214Y001478D03*
X004214Y001472D03*
X003284Y001226D03*
X002036Y002678D03*
X001754Y003356D03*
X001454Y003722D03*
X001496Y003746D03*
X001466Y004424D03*
D57*
X002909Y004994D03*
X002909Y005006D03*
X002915Y004982D03*
X005495Y005036D03*
X005501Y005048D03*
X005615Y003146D03*
X005615Y003134D03*
X006149Y002936D03*
X006425Y002618D03*
X006425Y002612D03*
X003851Y002468D03*
X003851Y002462D03*
X003851Y002456D03*
X002075Y001604D03*
X004211Y001238D03*
X004211Y001232D03*
X004211Y001226D03*
D58*
X005894Y001244D03*
X005900Y001238D03*
X005900Y001232D03*
X005906Y001226D03*
X005240Y002408D03*
X006170Y002996D03*
X006176Y003008D03*
X006176Y003014D03*
X005630Y003224D03*
X003914Y003338D03*
X002240Y003248D03*
X001904Y003608D03*
X001250Y004556D03*
X002846Y005186D03*
X007004Y004196D03*
X002114Y002378D03*
D59*
X002369Y002756D03*
X001757Y003362D03*
X001913Y003572D03*
X001523Y003758D03*
X001511Y003752D03*
X001463Y003728D03*
X001331Y002906D03*
X003431Y004094D03*
X003929Y003494D03*
X005309Y003554D03*
X006041Y003542D03*
X006041Y003536D03*
X006047Y003554D03*
X006599Y003182D03*
X006599Y003176D03*
X005567Y002858D03*
X005567Y002852D03*
X005567Y002846D03*
X004943Y002474D03*
X005747Y001562D03*
X005747Y001556D03*
X004211Y001484D03*
X003287Y001244D03*
X003287Y001238D03*
X003287Y001232D03*
X006899Y002474D03*
X007607Y004004D03*
X006521Y004598D03*
X005417Y004844D03*
X005411Y004832D03*
X004181Y004658D03*
X003011Y004676D03*
X003011Y004682D03*
D60*
X003014Y004670D03*
X001544Y003770D03*
X003932Y003500D03*
X005312Y003560D03*
X006050Y003560D03*
X006536Y003830D03*
X005564Y002840D03*
X006032Y002630D03*
X005738Y001580D03*
X003290Y001250D03*
D61*
X005894Y001250D03*
X005630Y003230D03*
D62*
X005564Y002834D03*
X005564Y002828D03*
X006032Y002648D03*
X006032Y002642D03*
X006032Y002636D03*
X006026Y002624D03*
X006026Y002618D03*
X006602Y003188D03*
X006608Y003212D03*
X006608Y003218D03*
X006608Y003224D03*
X006044Y003548D03*
X006050Y003566D03*
X006050Y003572D03*
X007046Y004172D03*
X006506Y004586D03*
X005414Y004838D03*
X005408Y004826D03*
X004178Y004652D03*
X004178Y004646D03*
X003014Y004664D03*
X003404Y004112D03*
X003410Y004106D03*
X003932Y003506D03*
X002324Y003284D03*
X002366Y002762D03*
X002036Y002684D03*
X002138Y002456D03*
X002738Y002438D03*
X001886Y001616D03*
X003290Y001256D03*
X004214Y001496D03*
X004214Y001502D03*
X005738Y001574D03*
X005744Y001568D03*
X006896Y002462D03*
X006896Y002468D03*
X001568Y003782D03*
X001556Y003776D03*
X001532Y003764D03*
X001478Y004418D03*
D63*
X001487Y004412D03*
X001583Y003788D03*
X001757Y003368D03*
X002141Y002462D03*
X002741Y002432D03*
X003839Y002354D03*
X004211Y001514D03*
X004211Y001508D03*
X003293Y001274D03*
X003293Y001268D03*
X003293Y001262D03*
X006017Y002594D03*
X006023Y002606D03*
X006023Y002612D03*
X005561Y002816D03*
X005561Y002822D03*
X006611Y003236D03*
X006053Y003578D03*
X006053Y003584D03*
X005309Y003566D03*
X004181Y004634D03*
X003017Y004658D03*
X006893Y002456D03*
X007001Y002096D03*
X006509Y001946D03*
D64*
X005885Y001268D03*
X005885Y001262D03*
X005945Y003188D03*
X005945Y003194D03*
X004685Y003608D03*
X004175Y004964D03*
X004175Y004976D03*
X004175Y004982D03*
X004175Y004988D03*
X004175Y004994D03*
X002855Y005162D03*
X002015Y001544D03*
D65*
X003296Y001280D03*
X004214Y001520D03*
X005006Y002450D03*
X004460Y002540D03*
X006056Y003590D03*
X006500Y004580D03*
X003026Y004640D03*
D66*
X002927Y004940D03*
X001157Y003500D03*
X001163Y003470D03*
X001175Y003440D03*
X001187Y003410D03*
X001199Y003380D03*
X001205Y003350D03*
X001217Y003320D03*
X001229Y003290D03*
X001241Y003260D03*
X001259Y003200D03*
X001271Y003170D03*
X001283Y003140D03*
X001295Y003110D03*
X001301Y003080D03*
X001313Y003050D03*
X001325Y003020D03*
X001337Y002990D03*
X001385Y002870D03*
X001391Y002840D03*
X001403Y002810D03*
X001415Y002780D03*
X001427Y002750D03*
X001469Y002630D03*
X001481Y002600D03*
X001493Y002570D03*
X001505Y002540D03*
X001547Y002420D03*
X001559Y002390D03*
X001571Y002360D03*
X001583Y002330D03*
X001589Y002300D03*
X001601Y002270D03*
X001613Y002240D03*
X001625Y002210D03*
X001667Y002090D03*
X001679Y002060D03*
X001685Y002030D03*
X001697Y002000D03*
X001709Y001970D03*
X001721Y001940D03*
X001733Y001910D03*
X001739Y001880D03*
X001763Y001820D03*
X001775Y001790D03*
X002105Y001640D03*
X002069Y002510D03*
X002045Y002570D03*
X002315Y002960D03*
X002261Y003260D03*
X004913Y002540D03*
X004937Y002600D03*
X004949Y002630D03*
X004979Y002690D03*
X004991Y002720D03*
X005003Y002750D03*
X005045Y002840D03*
X005057Y002870D03*
X005069Y002900D03*
X005081Y002930D03*
X005135Y003050D03*
X005147Y003080D03*
X005159Y003110D03*
X005171Y003140D03*
X005183Y003170D03*
X005225Y003260D03*
X005237Y003290D03*
X005249Y003320D03*
X005609Y003110D03*
X006449Y002480D03*
X006869Y002660D03*
X006881Y002630D03*
X006821Y003680D03*
X006833Y003710D03*
X006845Y003740D03*
X006857Y003770D03*
X006875Y003830D03*
X006887Y003860D03*
X006899Y003890D03*
X006911Y003920D03*
X006917Y003950D03*
X006929Y003980D03*
X006941Y004010D03*
X006953Y004040D03*
X006959Y004070D03*
X006971Y004100D03*
X007013Y004190D03*
X006581Y003800D03*
X004211Y001280D03*
D67*
X004214Y001526D03*
X003296Y001286D03*
X003836Y002348D03*
X003296Y002678D03*
X001760Y003374D03*
X001634Y003812D03*
X001496Y004406D03*
X003020Y004646D03*
X003020Y004652D03*
X003026Y004634D03*
X003026Y004628D03*
X006056Y003596D03*
X006524Y003836D03*
X006614Y003254D03*
X006614Y003248D03*
X006614Y003242D03*
X007634Y003896D03*
X006494Y004574D03*
X006014Y002588D03*
X005024Y002444D03*
X004970Y002462D03*
D68*
X004985Y002456D03*
X005039Y002438D03*
X005555Y002786D03*
X005555Y002792D03*
X006011Y002582D03*
X006011Y002576D03*
X005729Y001604D03*
X005729Y001598D03*
X004211Y001532D03*
X003299Y001304D03*
X003299Y001298D03*
X003299Y001292D03*
X001895Y001622D03*
X002141Y002468D03*
X002045Y002696D03*
X002309Y002948D03*
X003839Y002342D03*
X003935Y003518D03*
X004679Y003596D03*
X006059Y003602D03*
X006065Y003626D03*
X006485Y004568D03*
X005399Y004802D03*
X004181Y004622D03*
X004181Y004616D03*
X003029Y004622D03*
X001691Y003836D03*
X001661Y003824D03*
X001649Y003818D03*
D69*
X001898Y003560D03*
X001508Y004400D03*
X003032Y004610D03*
X005396Y004790D03*
X005312Y003590D03*
X002738Y002420D03*
X004214Y001550D03*
X003302Y001310D03*
X005726Y001610D03*
D70*
X004214Y001544D03*
X004214Y001538D03*
X003302Y001316D03*
X003836Y002336D03*
X005066Y002432D03*
X005084Y002426D03*
X005552Y002762D03*
X005552Y002768D03*
X005552Y002774D03*
X005552Y002798D03*
X005552Y002804D03*
X006002Y002564D03*
X006002Y002558D03*
X006884Y002438D03*
X005312Y003584D03*
X006068Y003632D03*
X006068Y003638D03*
X006068Y003644D03*
X005396Y004796D03*
X003152Y003764D03*
X003932Y003524D03*
X001706Y003842D03*
X003032Y004616D03*
D71*
X003035Y004604D03*
X003035Y004598D03*
X004181Y004598D03*
X004181Y004604D03*
X004181Y004592D03*
X005387Y004772D03*
X005393Y004784D03*
X006473Y004556D03*
X006479Y004562D03*
X007055Y004166D03*
X006515Y003842D03*
X006077Y003668D03*
X006077Y003662D03*
X006071Y003656D03*
X006629Y003314D03*
X006629Y003308D03*
X006629Y003302D03*
X006623Y003296D03*
X006611Y002936D03*
X005999Y002552D03*
X005999Y002546D03*
X005993Y002534D03*
X005549Y002744D03*
X005549Y002756D03*
X006881Y002432D03*
X005717Y001628D03*
X004211Y001556D03*
X003305Y001334D03*
X003305Y001328D03*
X003305Y001322D03*
X002741Y002414D03*
X002435Y003488D03*
X002435Y003494D03*
X002435Y003506D03*
X002441Y003524D03*
X002441Y003536D03*
X002441Y003542D03*
X002441Y003548D03*
X001763Y003386D03*
X001721Y003848D03*
X001517Y004394D03*
X003935Y003536D03*
X005309Y003596D03*
D72*
X006155Y002954D03*
X005855Y001328D03*
X002045Y001574D03*
X001895Y003602D03*
X004175Y004922D03*
X004175Y004928D03*
X004175Y004934D03*
X002885Y005066D03*
X002885Y005072D03*
X002885Y005078D03*
D73*
X002444Y003560D03*
X002432Y003470D03*
X005096Y002420D03*
X006632Y003320D03*
X006464Y004550D03*
X003308Y001340D03*
D74*
X005849Y001340D03*
X005615Y003140D03*
X005495Y005030D03*
X002909Y005000D03*
D75*
X003038Y004592D03*
X003038Y004586D03*
X003362Y004136D03*
X004184Y004586D03*
X005384Y004766D03*
X007586Y004016D03*
X006632Y003326D03*
X005546Y002738D03*
X005546Y002732D03*
X006878Y002426D03*
X005714Y001634D03*
X004214Y001574D03*
X004214Y001568D03*
X004214Y001562D03*
X003308Y001346D03*
X002048Y002702D03*
X001766Y003392D03*
X001736Y003854D03*
X002444Y003578D03*
X002444Y003572D03*
X002444Y003566D03*
X002444Y003554D03*
X002438Y003518D03*
X002438Y003512D03*
X002432Y003482D03*
X002432Y003476D03*
X002426Y003464D03*
X002426Y003458D03*
X002426Y003452D03*
X005312Y003602D03*
D76*
X005309Y003608D03*
X006635Y003344D03*
X006635Y003338D03*
X006635Y003332D03*
X005981Y002504D03*
X005975Y002492D03*
X005711Y001646D03*
X003311Y001364D03*
X003311Y001358D03*
X003311Y001352D03*
X001901Y001628D03*
X002741Y002408D03*
X003299Y002684D03*
X003935Y003542D03*
X001889Y003554D03*
X001541Y004382D03*
X001529Y004388D03*
X003041Y004574D03*
X004181Y004574D03*
X005381Y004754D03*
D77*
X003920Y003386D03*
X006140Y002918D03*
X006140Y002912D03*
X006440Y002678D03*
X006440Y002672D03*
X006440Y002498D03*
X005840Y001358D03*
X002090Y001622D03*
X001670Y002078D03*
X001640Y002168D03*
X001640Y002174D03*
X001550Y002414D03*
X001520Y002492D03*
X001520Y002498D03*
X001520Y002504D03*
X001490Y002576D03*
X001490Y002582D03*
X001460Y002654D03*
X001430Y002738D03*
X001190Y003398D03*
D78*
X002420Y003410D03*
X002444Y003590D03*
X003314Y001370D03*
D79*
X004211Y001370D03*
X002381Y002720D03*
X001931Y003590D03*
X003557Y004010D03*
X002969Y004820D03*
X001403Y004460D03*
X005591Y003020D03*
X005591Y002990D03*
X006089Y002780D03*
X006101Y002810D03*
X007613Y003920D03*
X006569Y004640D03*
D80*
X007646Y003884D03*
X006500Y003848D03*
X006086Y003704D03*
X006086Y003698D03*
X005540Y002708D03*
X005540Y002702D03*
X005540Y002696D03*
X004466Y002546D03*
X003836Y002324D03*
X002744Y002402D03*
X002054Y002708D03*
X001766Y003398D03*
X001880Y003548D03*
X002420Y003416D03*
X002420Y003404D03*
X002444Y003584D03*
X002444Y003596D03*
X001550Y004376D03*
X003044Y004562D03*
X003044Y004568D03*
X004184Y004568D03*
X004184Y004562D03*
X004214Y001598D03*
X004214Y001592D03*
X004214Y001586D03*
X003314Y001376D03*
D81*
X003317Y001382D03*
X003317Y001388D03*
X003317Y001394D03*
X001907Y001634D03*
X003833Y002318D03*
X005537Y002678D03*
X005963Y002462D03*
X005963Y002456D03*
X005969Y002468D03*
X005969Y002474D03*
X006491Y001952D03*
X005699Y001664D03*
X006641Y003362D03*
X006641Y003368D03*
X006641Y003374D03*
X006647Y003386D03*
X007481Y004046D03*
X003347Y004142D03*
X003149Y003758D03*
X002417Y003398D03*
X002417Y003392D03*
X001769Y003404D03*
X003047Y004556D03*
D82*
X004184Y004550D03*
X005372Y004730D03*
X006098Y003740D03*
X006470Y003860D03*
X006644Y003380D03*
X005534Y002660D03*
X005960Y002450D03*
X004214Y001610D03*
X003320Y001400D03*
X001772Y003410D03*
X002444Y003620D03*
X001562Y004370D03*
X003938Y003560D03*
X004676Y003590D03*
D83*
X003515Y004040D03*
X004175Y004730D03*
X002975Y004790D03*
X001241Y003590D03*
X004211Y001400D03*
X005585Y002960D03*
X006011Y003440D03*
X006581Y003080D03*
D84*
X006650Y003392D03*
X006650Y003398D03*
X006650Y003404D03*
X006098Y003734D03*
X006488Y003854D03*
X007436Y004058D03*
X007460Y004052D03*
X007526Y004034D03*
X007550Y004028D03*
X007646Y003878D03*
X007646Y003872D03*
X006446Y004532D03*
X005372Y004736D03*
X004184Y004556D03*
X004184Y004544D03*
X003050Y004544D03*
X003050Y004538D03*
X001790Y003872D03*
X001874Y003542D03*
X002414Y003386D03*
X002444Y003602D03*
X002444Y003608D03*
X002444Y003614D03*
X002744Y002396D03*
X003830Y002312D03*
X004214Y001616D03*
X004214Y001604D03*
X003320Y001406D03*
X005696Y001676D03*
X005954Y002432D03*
X005954Y002438D03*
X005960Y002444D03*
X005534Y002666D03*
X005534Y002672D03*
X005540Y002684D03*
X006866Y002414D03*
X005312Y003626D03*
X005312Y003632D03*
D85*
X006101Y003746D03*
X006101Y003752D03*
X006431Y003872D03*
X006449Y003866D03*
X006203Y003992D03*
X006437Y004526D03*
X007301Y004094D03*
X007643Y003866D03*
X007559Y003728D03*
X007523Y003674D03*
X007517Y003662D03*
X007511Y003656D03*
X007499Y003638D03*
X007499Y003632D03*
X007493Y003626D03*
X007487Y003614D03*
X007469Y003584D03*
X007463Y003578D03*
X007457Y003566D03*
X007439Y003542D03*
X007439Y003536D03*
X007427Y003518D03*
X007409Y003488D03*
X007403Y003482D03*
X007391Y003464D03*
X007379Y003446D03*
X007373Y003434D03*
X007367Y003428D03*
X007367Y003422D03*
X007361Y003416D03*
X007349Y003398D03*
X007331Y003368D03*
X007307Y003332D03*
X007289Y003302D03*
X007277Y003284D03*
X007271Y003272D03*
X007259Y003254D03*
X007247Y003236D03*
X007229Y003206D03*
X007199Y003158D03*
X007181Y003128D03*
X007121Y003032D03*
X007109Y003014D03*
X007097Y002996D03*
X007091Y002984D03*
X007079Y002966D03*
X007061Y002936D03*
X007043Y002906D03*
X006911Y002714D03*
X005951Y002426D03*
X005531Y002642D03*
X005531Y002648D03*
X005531Y002654D03*
X005117Y002408D03*
X005693Y001682D03*
X004217Y001622D03*
X003323Y001418D03*
X003323Y001412D03*
X002057Y002714D03*
X002297Y002936D03*
X002411Y003368D03*
X002411Y003374D03*
X002441Y003626D03*
X001769Y003416D03*
X001571Y004364D03*
X003053Y004532D03*
X004187Y004538D03*
X005369Y004724D03*
X003941Y003566D03*
X006653Y003422D03*
X006653Y003416D03*
D86*
X006797Y003614D03*
X006803Y003632D03*
X005987Y003344D03*
X005603Y003074D03*
X005603Y003068D03*
X005603Y003062D03*
X005033Y002828D03*
X005033Y002822D03*
X005027Y002816D03*
X004907Y002504D03*
X005273Y003374D03*
X005297Y003428D03*
X005297Y003434D03*
X005303Y003452D03*
X003923Y003404D03*
X002483Y003284D03*
X002507Y003074D03*
X002507Y003068D03*
X002513Y003044D03*
X002513Y003038D03*
X002513Y003032D03*
X002537Y002954D03*
X002537Y002948D03*
X002537Y002942D03*
X002543Y002924D03*
X002567Y002852D03*
X002567Y002846D03*
X002573Y002828D03*
X002573Y002822D03*
X002597Y002768D03*
X002597Y002762D03*
X002627Y002696D03*
X002657Y002624D03*
X002663Y002618D03*
X002663Y002612D03*
X002693Y002558D03*
X002333Y002624D03*
X002327Y002618D03*
X002303Y002588D03*
X002297Y002582D03*
X001733Y003314D03*
X001157Y003512D03*
X001787Y001772D03*
X001793Y001766D03*
X002117Y001652D03*
X002123Y001658D03*
X005813Y001418D03*
X007073Y002078D03*
X006593Y004664D03*
X005477Y004982D03*
X005477Y004988D03*
D87*
X005366Y004718D03*
X004184Y004532D03*
X004184Y004526D03*
X003056Y004526D03*
X002444Y003644D03*
X002444Y003638D03*
X002444Y003632D03*
X004466Y002552D03*
X003830Y002306D03*
X004214Y001634D03*
X004214Y001628D03*
X003326Y001436D03*
X003326Y001424D03*
X005690Y001688D03*
X005690Y001694D03*
X006950Y002108D03*
X006860Y002408D03*
X007046Y002912D03*
X007064Y002942D03*
X007070Y002948D03*
X007070Y002954D03*
X007100Y003002D03*
X007106Y003008D03*
X007124Y003038D03*
X007130Y003044D03*
X007136Y003056D03*
X007154Y003086D03*
X007160Y003092D03*
X007160Y003098D03*
X007166Y003104D03*
X007184Y003134D03*
X007190Y003146D03*
X007196Y003152D03*
X007214Y003182D03*
X007220Y003188D03*
X007220Y003194D03*
X007250Y003242D03*
X007256Y003248D03*
X007274Y003278D03*
X007286Y003296D03*
X007304Y003326D03*
X007310Y003338D03*
X007316Y003344D03*
X007334Y003374D03*
X007340Y003386D03*
X007346Y003392D03*
X007400Y003476D03*
X007424Y003512D03*
X007430Y003524D03*
X007460Y003572D03*
X007484Y003608D03*
X007520Y003668D03*
X007544Y003704D03*
X007550Y003716D03*
X007556Y003722D03*
X007574Y003746D03*
X007574Y003752D03*
X007580Y003758D03*
X007580Y003764D03*
X007604Y003794D03*
X007610Y003806D03*
X007616Y003818D03*
X007634Y003848D03*
X007370Y004076D03*
X007346Y004082D03*
X007256Y004106D03*
X007076Y004154D03*
X006110Y003782D03*
X006110Y003776D03*
X006104Y003764D03*
X006104Y003758D03*
X006656Y003434D03*
X006656Y003428D03*
X005306Y003638D03*
D88*
X006656Y003440D03*
X007226Y003200D03*
X007244Y003230D03*
X007130Y003050D03*
X007094Y002990D03*
X007076Y002960D03*
X007394Y003470D03*
X007490Y003620D03*
X007544Y003710D03*
X007586Y003770D03*
X007604Y003800D03*
X007640Y003860D03*
X007394Y004070D03*
X007280Y004100D03*
X005936Y002390D03*
X003326Y001430D03*
X002744Y002390D03*
X002060Y002720D03*
X003056Y004520D03*
D89*
X001331Y003650D03*
X003929Y003470D03*
X005309Y003530D03*
X006023Y003470D03*
X006617Y003590D03*
X006617Y003620D03*
X006587Y003110D03*
X006065Y002720D03*
X005579Y002930D03*
X006905Y002510D03*
X007031Y002090D03*
X006527Y001940D03*
X004211Y001430D03*
D90*
X005804Y001430D03*
X002720Y002510D03*
X002630Y002690D03*
X002576Y002810D03*
X002534Y002960D03*
X003920Y003410D03*
X005600Y003050D03*
X005990Y003350D03*
X007634Y003980D03*
D91*
X007631Y003842D03*
X007211Y004118D03*
X006665Y003464D03*
X006659Y003452D03*
X006659Y003446D03*
X005525Y002618D03*
X005525Y002612D03*
X005525Y002606D03*
X005939Y002396D03*
X003941Y003578D03*
X002405Y003344D03*
X003059Y004508D03*
X003059Y004514D03*
X003329Y001448D03*
X003329Y001442D03*
D92*
X003332Y001454D03*
X004214Y001646D03*
X004214Y001652D03*
X005684Y001706D03*
X005924Y002354D03*
X005522Y002588D03*
X005522Y002594D03*
X006854Y002402D03*
X006668Y003476D03*
X006668Y003482D03*
X006668Y003488D03*
X006116Y003806D03*
X006116Y003812D03*
X006122Y003818D03*
X006122Y003824D03*
X005306Y003644D03*
X006416Y004508D03*
X006422Y004514D03*
X005354Y004694D03*
X003152Y003752D03*
X002444Y003656D03*
X002402Y003338D03*
X001772Y003428D03*
X001832Y003884D03*
X003062Y004502D03*
D93*
X002444Y003650D03*
X005306Y003650D03*
X006116Y003800D03*
X006914Y002720D03*
X005924Y002360D03*
X005522Y002600D03*
X003332Y001460D03*
D94*
X004211Y001460D03*
X004931Y002480D03*
X002735Y002450D03*
X002135Y002450D03*
X001379Y003680D03*
X006029Y003500D03*
D95*
X006125Y003836D03*
X006671Y003506D03*
X006671Y003494D03*
X005309Y003668D03*
X005303Y003656D03*
X003941Y003584D03*
X002441Y003662D03*
X002399Y003332D03*
X002399Y003326D03*
X002063Y002726D03*
X002747Y002378D03*
X003293Y002696D03*
X003827Y002294D03*
X004469Y002558D03*
X005129Y002402D03*
X005519Y002576D03*
X005519Y002582D03*
X005921Y002348D03*
X006473Y001958D03*
X005681Y001712D03*
X004217Y001664D03*
X004217Y001658D03*
X003335Y001478D03*
X003335Y001472D03*
X003335Y001466D03*
X001919Y001646D03*
X001595Y004352D03*
X003065Y004496D03*
X004187Y004502D03*
X004187Y004508D03*
X005351Y004682D03*
X005351Y004688D03*
D96*
X006401Y004496D03*
X007085Y004148D03*
X006131Y003854D03*
X005309Y003686D03*
X003149Y003746D03*
X003065Y004478D03*
X003065Y004484D03*
X001841Y003518D03*
X001925Y001652D03*
X003335Y001484D03*
X005909Y002312D03*
X005909Y002318D03*
X006845Y002396D03*
D97*
X005675Y001730D03*
X003335Y001490D03*
X001775Y003440D03*
X005309Y003680D03*
X005345Y004670D03*
D98*
X003419Y004100D03*
X003149Y003770D03*
X006041Y002660D03*
X006899Y002480D03*
X004211Y001490D03*
X003839Y002360D03*
D99*
X005777Y001490D03*
X006077Y002750D03*
D100*
X005672Y001736D03*
X003338Y001502D03*
X003338Y001496D03*
X002072Y002732D03*
X001778Y003446D03*
X001832Y003512D03*
X003068Y004472D03*
X005342Y004658D03*
X005342Y004664D03*
D101*
X005339Y004652D03*
X005309Y003692D03*
X003947Y003608D03*
X002891Y004154D03*
X003071Y004466D03*
X002441Y003692D03*
X001817Y003494D03*
X001811Y003488D03*
X001781Y003452D03*
X003293Y002702D03*
X004469Y002564D03*
X005507Y002504D03*
X005507Y002498D03*
X005897Y002288D03*
X005897Y002282D03*
X005669Y001742D03*
X004217Y001694D03*
X003341Y001514D03*
X003341Y001508D03*
X006653Y002924D03*
D102*
X005888Y002270D03*
X005504Y002480D03*
X003344Y001520D03*
X002750Y002360D03*
X001790Y003470D03*
X004190Y004460D03*
D103*
X004190Y004466D03*
X003074Y004454D03*
X001628Y004334D03*
X002444Y003698D03*
X001802Y003482D03*
X001796Y003476D03*
X001784Y003464D03*
X001784Y003458D03*
X002078Y002738D03*
X003944Y003614D03*
X004670Y003572D03*
X005306Y003698D03*
X006386Y004484D03*
X005336Y004646D03*
X006914Y002738D03*
X005894Y002276D03*
X005888Y002264D03*
X005504Y002486D03*
X005504Y002492D03*
X005666Y001748D03*
X004214Y001706D03*
X003344Y001532D03*
X003344Y001526D03*
D104*
X003347Y001538D03*
X003347Y001544D03*
X004217Y001712D03*
X004217Y001718D03*
X003821Y002276D03*
X005501Y002468D03*
X005501Y002474D03*
X005663Y001754D03*
X001931Y001658D03*
X002441Y003704D03*
X002867Y004148D03*
X003077Y004442D03*
X003077Y004448D03*
X004193Y004454D03*
X006161Y003968D03*
X006377Y004478D03*
X007097Y004142D03*
X001643Y004328D03*
D105*
X001403Y003692D03*
X003443Y004088D03*
X003617Y003968D03*
X005423Y004862D03*
X006527Y004604D03*
X006593Y003152D03*
X006593Y003146D03*
X006047Y002678D03*
X005573Y002882D03*
X005573Y002888D03*
X005573Y002894D03*
X005753Y001544D03*
X005753Y001538D03*
D106*
X003350Y001550D03*
X006164Y003980D03*
X003080Y004430D03*
D107*
X003083Y004424D03*
X004193Y004436D03*
X004193Y004442D03*
X005327Y004622D03*
X006167Y003998D03*
X004667Y003566D03*
X003947Y003626D03*
X003947Y003632D03*
X005657Y001772D03*
X004217Y001736D03*
X003347Y001556D03*
X001937Y001664D03*
D108*
X003350Y001568D03*
X003350Y001562D03*
X003290Y002714D03*
D109*
X002753Y002342D03*
X002273Y002912D03*
X002441Y003728D03*
X003083Y004412D03*
X004193Y004424D03*
X003947Y003638D03*
X005303Y003722D03*
X007109Y004136D03*
X005489Y002408D03*
X005489Y002402D03*
X005489Y002396D03*
X005873Y002216D03*
X005807Y002102D03*
X005651Y001784D03*
X004217Y001754D03*
X004217Y001748D03*
X004217Y001742D03*
X003353Y001574D03*
D110*
X003353Y001580D03*
X002087Y002750D03*
X005321Y004610D03*
X006161Y004010D03*
X006167Y003950D03*
X006359Y004460D03*
X006911Y002750D03*
X005873Y002210D03*
D111*
X005711Y001640D03*
X004211Y001580D03*
X003839Y002330D03*
X001751Y003860D03*
X003041Y004580D03*
X004181Y004580D03*
X005381Y004760D03*
D112*
X005318Y004604D03*
X005318Y004598D03*
X004196Y004418D03*
X004196Y004412D03*
X003086Y004406D03*
X003152Y003728D03*
X002438Y003734D03*
X004478Y002576D03*
X003818Y002258D03*
X003356Y001598D03*
X003356Y001592D03*
X003356Y001586D03*
X005486Y002384D03*
X005816Y002108D03*
X006878Y002126D03*
X006674Y002918D03*
X005306Y003728D03*
D113*
X003635Y003962D03*
X003395Y004118D03*
X001625Y003806D03*
X001595Y003794D03*
X004955Y002468D03*
X005735Y001586D03*
X005405Y004814D03*
D114*
X005402Y004808D03*
X004178Y004628D03*
X006062Y003614D03*
X006062Y003608D03*
X005312Y003578D03*
X005312Y003572D03*
X003932Y003512D03*
X002738Y002426D03*
X005732Y001592D03*
D115*
X006488Y002426D03*
X003848Y002426D03*
X002708Y002528D03*
X002708Y002534D03*
X002702Y002546D03*
X002678Y002588D03*
X002318Y002606D03*
X002288Y002576D03*
X002252Y002534D03*
X002222Y002504D03*
X002018Y002642D03*
X002132Y001664D03*
X001862Y001598D03*
X006572Y003806D03*
X005468Y004964D03*
X004172Y004814D03*
X004172Y004808D03*
X004172Y004802D03*
X004172Y004796D03*
X002948Y004886D03*
X002942Y004898D03*
D116*
X004196Y004406D03*
X003950Y003656D03*
X004670Y003554D03*
X006344Y004448D03*
X005480Y002378D03*
X005870Y002198D03*
X005870Y002192D03*
X004904Y002144D03*
X003356Y001604D03*
X002270Y002906D03*
D117*
X001883Y001610D03*
X006053Y002690D03*
X006593Y003140D03*
X001457Y004430D03*
D118*
X003290Y002720D03*
X004034Y002060D03*
X003356Y001610D03*
X005306Y003740D03*
D119*
X005303Y003746D03*
X006179Y003944D03*
X005303Y004574D03*
X004199Y004394D03*
X003161Y003716D03*
X002093Y002762D03*
X004049Y002054D03*
X004217Y001784D03*
X004217Y001778D03*
X004883Y002126D03*
X004889Y002132D03*
X005153Y002378D03*
X005639Y001814D03*
X003359Y001622D03*
X003359Y001616D03*
D120*
X005720Y001616D03*
X005720Y001622D03*
X006890Y002444D03*
X006620Y003278D03*
X006620Y003284D03*
D121*
X006902Y002762D03*
X005828Y002114D03*
X004868Y002114D03*
X004058Y002048D03*
X004016Y002066D03*
X003812Y002246D03*
X003290Y002726D03*
X003362Y001634D03*
X003362Y001628D03*
X003950Y003662D03*
X005306Y003752D03*
X006152Y004022D03*
X005300Y004568D03*
X003092Y004376D03*
X001700Y004298D03*
D122*
X004187Y004520D03*
X005357Y004700D03*
X003827Y002300D03*
X004217Y001640D03*
X005687Y001700D03*
X001913Y001640D03*
D123*
X003365Y001640D03*
X003095Y004370D03*
D124*
X003098Y004364D03*
X003098Y004358D03*
X002432Y003764D03*
X001712Y004292D03*
X004202Y004376D03*
X006188Y003938D03*
X006692Y002912D03*
X004478Y002588D03*
X003362Y001646D03*
D125*
X003365Y001652D03*
X003365Y001658D03*
X002759Y002318D03*
X004481Y002594D03*
X003101Y004352D03*
X005291Y004544D03*
D126*
X005378Y004748D03*
X006452Y004538D03*
X006458Y004544D03*
X007568Y004022D03*
X006092Y003716D03*
X006638Y003356D03*
X005312Y003614D03*
X003938Y003548D03*
X005978Y002498D03*
X005972Y002486D03*
X005108Y002414D03*
X005708Y001652D03*
X001772Y003866D03*
D127*
X003935Y003554D03*
X006095Y003722D03*
X006095Y003728D03*
X005375Y004742D03*
X005705Y001658D03*
D128*
X003806Y002234D03*
X003368Y001664D03*
X003164Y003704D03*
X004202Y004364D03*
X005288Y004538D03*
X006308Y004424D03*
D129*
X006278Y004400D03*
X005270Y004490D03*
X003110Y004310D03*
X002414Y001970D03*
X002174Y001820D03*
X001982Y001670D03*
D130*
X003368Y001670D03*
X002432Y003770D03*
X004202Y004370D03*
D131*
X003062Y004490D03*
X003944Y003590D03*
X002396Y003320D03*
X004214Y001670D03*
X005912Y002330D03*
X006134Y003860D03*
D132*
X006089Y003710D03*
X007067Y004160D03*
X005537Y002690D03*
X005699Y001670D03*
X003047Y004550D03*
D133*
X006875Y002774D03*
X002435Y001982D03*
X002135Y001796D03*
X001985Y001676D03*
D134*
X002759Y002312D03*
X002255Y002894D03*
X003167Y003698D03*
X002429Y003776D03*
X001727Y004286D03*
X003101Y004346D03*
X003953Y003686D03*
X004205Y004358D03*
X005285Y004532D03*
X006197Y003932D03*
X005303Y003776D03*
X004823Y002084D03*
X004085Y002036D03*
X003371Y001676D03*
X005627Y001844D03*
D135*
X004217Y001682D03*
X004217Y001676D03*
X003827Y002288D03*
X002747Y002372D03*
X002393Y003308D03*
X004187Y004484D03*
X005303Y003662D03*
X006137Y003866D03*
X006137Y003872D03*
X006677Y003542D03*
X006677Y003536D03*
X005513Y002546D03*
X005513Y002534D03*
D136*
X005612Y001886D03*
X002768Y002294D03*
X001988Y001682D03*
X004658Y003518D03*
X004208Y004322D03*
D137*
X005282Y004526D03*
X006302Y004418D03*
X004664Y003536D03*
X003284Y002744D03*
X003806Y002228D03*
X003368Y001682D03*
X002252Y001868D03*
X004814Y002078D03*
X003104Y004334D03*
D138*
X001778Y004262D03*
X004658Y003512D03*
X005294Y003824D03*
X006224Y003914D03*
X002768Y002288D03*
X002096Y001772D03*
X001988Y001688D03*
X006386Y001982D03*
X006686Y002228D03*
D139*
X005621Y001856D03*
X003371Y001694D03*
X003371Y001688D03*
X002345Y001928D03*
X002339Y001922D03*
X002309Y001904D03*
X002291Y001892D03*
X002279Y001886D03*
X002261Y001874D03*
X002231Y001856D03*
X002255Y002888D03*
X004205Y004346D03*
X004205Y004352D03*
X005279Y004514D03*
D140*
X006140Y003878D03*
X006686Y003572D03*
X006686Y003566D03*
X006680Y003554D03*
X006680Y003548D03*
X006914Y002732D03*
X005906Y002306D03*
X005900Y002294D03*
X005510Y002516D03*
X005510Y002522D03*
X005510Y002528D03*
X003824Y002282D03*
X002750Y002366D03*
X004214Y001688D03*
X002390Y003296D03*
X002390Y003302D03*
X002444Y003686D03*
X001826Y003506D03*
X003944Y003602D03*
X004670Y003578D03*
X004190Y004472D03*
X004190Y004478D03*
D141*
X004211Y004304D03*
X005261Y004466D03*
X006113Y004046D03*
X003959Y003728D03*
X003113Y004286D03*
X003281Y002774D03*
X002237Y002864D03*
X002489Y002012D03*
X002477Y002006D03*
X001991Y001694D03*
X004487Y002624D03*
X004757Y002048D03*
X005609Y001898D03*
X006689Y002222D03*
X006689Y002264D03*
X006695Y002276D03*
D142*
X005603Y001910D03*
X004487Y002630D03*
X001997Y001700D03*
D143*
X002366Y001940D03*
X003374Y001700D03*
X004100Y002030D03*
X003284Y002750D03*
D144*
X002387Y003290D03*
X003071Y004460D03*
X005507Y002510D03*
X004217Y001700D03*
D145*
X003791Y002198D03*
X003383Y001784D03*
X002513Y002024D03*
X001997Y001706D03*
X005921Y002168D03*
X006701Y002204D03*
X006707Y002306D03*
X006107Y004052D03*
X005249Y004436D03*
X004217Y004286D03*
X003119Y004262D03*
D146*
X002420Y003782D03*
X003956Y003698D03*
X005300Y003788D03*
X006134Y004034D03*
X006206Y003926D03*
X005276Y004508D03*
X004484Y002606D03*
X003374Y001706D03*
X002384Y001952D03*
X002204Y001838D03*
D147*
X002000Y001712D03*
X003386Y001796D03*
X004724Y002036D03*
X005600Y001922D03*
X006704Y002198D03*
X006710Y002312D03*
X006710Y002318D03*
X004490Y002642D03*
X003278Y002792D03*
X002222Y002846D03*
X003962Y003746D03*
X004652Y003494D03*
X005288Y003848D03*
X006236Y003902D03*
D148*
X005270Y004496D03*
X004208Y004334D03*
X004208Y004328D03*
X003956Y003704D03*
X002420Y003788D03*
X002420Y003794D03*
X003284Y002756D03*
X003800Y002216D03*
X004484Y002612D03*
X005618Y001874D03*
X005618Y001868D03*
X003374Y001718D03*
X003374Y001712D03*
X002426Y001976D03*
X002162Y001814D03*
D149*
X002000Y001718D03*
X002540Y002036D03*
X002774Y002264D03*
X003386Y001808D03*
X004490Y002648D03*
X004490Y002654D03*
X005594Y001934D03*
X006716Y002336D03*
X003176Y003638D03*
X001820Y004244D03*
X005240Y004418D03*
X006224Y004364D03*
D150*
X005348Y004676D03*
X006128Y003848D03*
X006128Y003842D03*
X006674Y003524D03*
X006674Y003518D03*
X006674Y003512D03*
X005312Y003674D03*
X003944Y003596D03*
X002444Y003668D03*
X002444Y003674D03*
X001844Y003524D03*
X001772Y003434D03*
X002396Y003314D03*
X001604Y004346D03*
X005516Y002564D03*
X005516Y002558D03*
X005516Y002552D03*
X005918Y002342D03*
X005918Y002336D03*
X005912Y002324D03*
X006926Y002114D03*
X006914Y002726D03*
X005678Y001724D03*
X005678Y001718D03*
D151*
X006722Y002354D03*
X006728Y002372D03*
X003968Y003764D03*
X003122Y004244D03*
X001832Y004238D03*
X005234Y004406D03*
X005282Y003866D03*
X002006Y001724D03*
D152*
X002147Y001802D03*
X002153Y001808D03*
X003377Y001724D03*
X003281Y002762D03*
X002243Y002876D03*
X001763Y004268D03*
X005267Y004484D03*
X005297Y003806D03*
X006677Y002246D03*
D153*
X005660Y001766D03*
X004214Y001724D03*
X002750Y002354D03*
X003290Y002708D03*
X005306Y003704D03*
X006164Y003974D03*
X006164Y003986D03*
X005330Y004628D03*
X005330Y004634D03*
X004190Y004448D03*
X003080Y004436D03*
D154*
X003275Y002810D03*
X002009Y001730D03*
D155*
X003377Y001730D03*
X004781Y002060D03*
X003959Y003710D03*
X003167Y003680D03*
D156*
X005303Y003710D03*
X004217Y001730D03*
D157*
X003389Y001844D03*
X002009Y001736D03*
X003275Y002822D03*
X005399Y002108D03*
X005585Y001952D03*
X006725Y002168D03*
X005279Y003878D03*
X005231Y004394D03*
D158*
X005264Y004478D03*
X005294Y003812D03*
X003956Y003716D03*
X003170Y003674D03*
X002420Y003806D03*
X003110Y004298D03*
X003110Y004304D03*
X004484Y002618D03*
X003380Y001736D03*
X002456Y001994D03*
X002444Y001988D03*
X006680Y002252D03*
D159*
X003968Y003776D03*
X003122Y004226D03*
X005228Y004388D03*
X003272Y002828D03*
X002012Y001742D03*
D160*
X002117Y001784D03*
X003377Y001742D03*
X005903Y002174D03*
X006683Y002234D03*
X006683Y002258D03*
X005297Y003818D03*
X003113Y004292D03*
D161*
X003968Y003782D03*
X004226Y004232D03*
X005222Y004376D03*
X003272Y002834D03*
X002780Y002246D03*
X003392Y001862D03*
X004682Y002024D03*
X005582Y001964D03*
X006728Y002156D03*
X004496Y002684D03*
X002192Y002798D03*
X002018Y001748D03*
D162*
X003380Y001748D03*
X003380Y001754D03*
X003170Y003668D03*
X002420Y003812D03*
X006260Y004388D03*
D163*
X003128Y004208D03*
X003272Y002846D03*
X004292Y001832D03*
X002018Y001754D03*
D164*
X002021Y001760D03*
X003395Y001880D03*
D165*
X003383Y001760D03*
D166*
X004217Y001760D03*
X004913Y002150D03*
X003947Y003650D03*
D167*
X003947Y003620D03*
X003149Y003740D03*
X002927Y004160D03*
X005333Y004640D03*
X005663Y001760D03*
D168*
X005606Y001904D03*
X006692Y002216D03*
X006698Y002282D03*
X004652Y003506D03*
X003962Y003734D03*
X004214Y004298D03*
X002414Y003818D03*
X002234Y002858D03*
X003794Y002204D03*
X002084Y001766D03*
D169*
X003380Y001766D03*
X001790Y004256D03*
D170*
X002087Y002756D03*
X002753Y002336D03*
X004217Y001772D03*
X004217Y001766D03*
X005303Y003734D03*
D171*
X003173Y003662D03*
X003383Y001778D03*
X003383Y001772D03*
D172*
X004121Y002024D03*
X004769Y002054D03*
X005609Y001892D03*
X003281Y002768D03*
X003959Y003722D03*
X004211Y004316D03*
X005261Y004472D03*
X006269Y004394D03*
X002105Y001778D03*
D173*
X002756Y002348D03*
X003818Y002264D03*
X005492Y002414D03*
X005492Y002426D03*
X005876Y002228D03*
X005876Y002222D03*
X005654Y001778D03*
X005306Y003716D03*
X006164Y004004D03*
X006362Y004466D03*
X005324Y004616D03*
X003152Y003734D03*
X002438Y003722D03*
X001664Y004316D03*
X003086Y004418D03*
D174*
X003797Y002210D03*
X002123Y001790D03*
D175*
X003383Y001790D03*
X006707Y002300D03*
X002411Y003830D03*
D176*
X002267Y002900D03*
X003809Y002240D03*
X004217Y001790D03*
D177*
X005486Y002390D03*
X005648Y001790D03*
X006818Y002390D03*
X001676Y004310D03*
D178*
X003953Y003668D03*
X004667Y003548D03*
X005303Y003758D03*
X006323Y004436D03*
X005297Y004562D03*
X004199Y004388D03*
X004199Y004382D03*
X003287Y002732D03*
X002759Y002324D03*
X004217Y001796D03*
X004859Y002108D03*
X005873Y002186D03*
X006851Y002132D03*
D179*
X006905Y002756D03*
X005645Y001802D03*
X005645Y001796D03*
X004919Y002156D03*
X003815Y002252D03*
X003161Y003722D03*
X003089Y004394D03*
X005315Y004592D03*
D180*
X005243Y004424D03*
X004217Y004274D03*
X003119Y004256D03*
X003173Y003644D03*
X004649Y003488D03*
X006713Y002324D03*
X006707Y002192D03*
X005597Y001928D03*
X003389Y001802D03*
D181*
X004070Y002042D03*
X004214Y001802D03*
X004844Y002096D03*
X004850Y002102D03*
X005636Y001826D03*
X002096Y002768D03*
X003950Y003674D03*
X005294Y004556D03*
D182*
X005303Y003764D03*
X004667Y003542D03*
X003287Y002738D03*
X004217Y001814D03*
X004217Y001808D03*
X005633Y001832D03*
D183*
X005642Y001808D03*
X004898Y002138D03*
X004478Y002582D03*
X006158Y004016D03*
X005312Y004586D03*
X003092Y004388D03*
X001688Y004304D03*
D184*
X002405Y003842D03*
X003965Y003758D03*
X004649Y003482D03*
X003275Y002804D03*
X003389Y001814D03*
X004271Y001826D03*
X006719Y002342D03*
X006719Y002348D03*
X006725Y002366D03*
X006245Y003896D03*
X006095Y004058D03*
D185*
X005285Y003860D03*
X003389Y001820D03*
D186*
X004217Y001820D03*
X004481Y002600D03*
X003101Y004340D03*
D187*
X002756Y002330D03*
X004874Y002120D03*
X005636Y001820D03*
X006428Y001970D03*
X007118Y004130D03*
D188*
X006287Y004406D03*
X005273Y004502D03*
X005297Y003794D03*
X004661Y003524D03*
X003167Y003686D03*
X003107Y004316D03*
X003107Y004322D03*
X001751Y004274D03*
X003803Y002222D03*
X004793Y002066D03*
X002393Y001958D03*
X002183Y001826D03*
D189*
X002555Y002042D03*
X002777Y002258D03*
X003389Y001832D03*
X003389Y001826D03*
X003785Y002186D03*
X004493Y002666D03*
X004649Y003476D03*
X003173Y003626D03*
X003125Y004238D03*
X004223Y004256D03*
X006215Y004358D03*
X006725Y002384D03*
X006725Y002378D03*
X006719Y002174D03*
X005591Y001946D03*
X002207Y002822D03*
D190*
X002540Y002936D03*
X002570Y002834D03*
X002510Y003056D03*
X002510Y003062D03*
X001730Y003308D03*
X001220Y003314D03*
X001160Y003518D03*
X001340Y002984D03*
X001340Y002978D03*
X001370Y002894D03*
X002060Y002528D03*
X002060Y002522D03*
X002090Y002474D03*
X002120Y002408D03*
X001760Y001832D03*
X004910Y002528D03*
X004970Y002672D03*
X005000Y002744D03*
X005060Y002876D03*
X005060Y002882D03*
X005180Y003158D03*
X005210Y003224D03*
X005240Y003296D03*
X005240Y003302D03*
X005270Y003368D03*
X006800Y003626D03*
X006830Y003698D03*
X006830Y003704D03*
X006470Y002726D03*
X006470Y002444D03*
X006890Y002606D03*
X002930Y004928D03*
X002930Y004934D03*
X005480Y004994D03*
D191*
X002405Y001964D03*
X002195Y001832D03*
D192*
X003392Y001838D03*
X003272Y002816D03*
X002204Y002816D03*
X003122Y004232D03*
X005282Y003872D03*
X005936Y002162D03*
X005408Y002102D03*
D193*
X004307Y001838D03*
X003767Y002168D03*
X004637Y003422D03*
X005267Y003914D03*
X005213Y004346D03*
D194*
X006140Y004028D03*
X005630Y001838D03*
D195*
X006707Y002906D03*
X003953Y003692D03*
X003167Y003692D03*
X003107Y004328D03*
X006293Y004412D03*
X002357Y001934D03*
X002327Y001916D03*
X002243Y001862D03*
X002213Y001844D03*
D196*
X004316Y001844D03*
X005204Y004322D03*
D197*
X002222Y001850D03*
D198*
X003392Y001850D03*
X003782Y002180D03*
X002198Y002810D03*
D199*
X003191Y003500D03*
X001955Y004190D03*
X004625Y003350D03*
X004331Y001850D03*
D200*
X005624Y001850D03*
X002318Y001910D03*
D201*
X003395Y001856D03*
X002195Y002804D03*
X001865Y004226D03*
X005225Y004382D03*
X006725Y002162D03*
X005585Y001958D03*
D202*
X004337Y001856D03*
X004523Y002816D03*
X004619Y003326D03*
X003983Y003848D03*
X001973Y004184D03*
X006101Y004292D03*
D203*
X003248Y003002D03*
X004532Y002852D03*
X004532Y002846D03*
X005312Y002372D03*
X004346Y001862D03*
X001988Y004178D03*
D204*
X002252Y002882D03*
X002762Y002306D03*
X002372Y001946D03*
X004802Y002072D03*
X005618Y001862D03*
D205*
X003395Y001868D03*
X003395Y001874D03*
X003125Y004214D03*
D206*
X003989Y003866D03*
X003245Y003056D03*
X003245Y003044D03*
X004541Y002894D03*
X004541Y002888D03*
X004541Y002882D03*
X004349Y001868D03*
D207*
X004358Y001874D03*
X005294Y002324D03*
X006020Y002132D03*
X004598Y003206D03*
X004598Y003212D03*
X004598Y003218D03*
X003242Y003104D03*
X003242Y003098D03*
X003242Y003092D03*
X003212Y003332D03*
X003212Y003338D03*
X003212Y003344D03*
X003992Y003872D03*
X006002Y004112D03*
X002816Y002186D03*
D208*
X002270Y001880D03*
D209*
X004364Y001880D03*
X004556Y002990D03*
X004586Y003140D03*
X003236Y003140D03*
X003230Y003170D03*
X003230Y003200D03*
X003224Y003230D03*
X003224Y003260D03*
D210*
X005615Y001880D03*
X006215Y003920D03*
X006125Y004040D03*
D211*
X006176Y004334D03*
X005216Y004358D03*
X003176Y003584D03*
X002384Y003866D03*
X003128Y004202D03*
X002786Y002234D03*
X002594Y002054D03*
X003398Y001886D03*
X005378Y002138D03*
X005576Y001982D03*
X005954Y002156D03*
D212*
X005279Y002294D03*
X004367Y001886D03*
X004571Y003086D03*
D213*
X004637Y003428D03*
X005267Y003908D03*
X005213Y004352D03*
X006065Y004076D03*
X004499Y002708D03*
X005375Y002144D03*
X006743Y002138D03*
X003395Y001892D03*
X003269Y002858D03*
X003179Y003572D03*
X003179Y003578D03*
X001895Y004214D03*
D214*
X005273Y002282D03*
X004373Y001892D03*
D215*
X006410Y001976D03*
X006890Y002768D03*
X005300Y003782D03*
X002300Y001898D03*
D216*
X003398Y001898D03*
X003398Y001904D03*
X004502Y002714D03*
X003266Y002864D03*
X003182Y003566D03*
X003128Y004196D03*
X004232Y004214D03*
X006164Y004328D03*
X005576Y001988D03*
D217*
X006044Y002126D03*
X005264Y002258D03*
X004376Y001898D03*
D218*
X004382Y001904D03*
X005258Y002252D03*
X005192Y003992D03*
D219*
X003182Y003560D03*
X003128Y004190D03*
X003398Y001910D03*
D220*
X004385Y001910D03*
X005255Y002240D03*
D221*
X003401Y001916D03*
X003977Y003812D03*
X004241Y004202D03*
X005207Y004334D03*
X006053Y004082D03*
D222*
X005249Y002228D03*
X004391Y001916D03*
D223*
X005600Y001916D03*
X006704Y002294D03*
X004490Y002636D03*
X002774Y002276D03*
X003176Y003656D03*
X002414Y003824D03*
X003116Y004268D03*
X003116Y004274D03*
X004214Y004292D03*
X006230Y003908D03*
D224*
X005261Y003926D03*
X005207Y004328D03*
X004241Y004196D03*
X003977Y003818D03*
X004631Y003398D03*
X004631Y003392D03*
X003263Y002894D03*
X003401Y001928D03*
X003401Y001922D03*
X005573Y002006D03*
X002369Y003878D03*
D225*
X004394Y001922D03*
D226*
X004397Y001928D03*
D227*
X003401Y001934D03*
X004511Y002756D03*
X003185Y003524D03*
X005255Y003932D03*
X006791Y002792D03*
D228*
X004400Y001934D03*
X004010Y003932D03*
D229*
X004628Y003380D03*
X003404Y001940D03*
D230*
X004403Y001940D03*
D231*
X004706Y002030D03*
X005594Y001940D03*
X006716Y002180D03*
X006722Y002360D03*
D232*
X006812Y002846D03*
X004514Y002774D03*
X003188Y003506D03*
X003404Y001946D03*
D233*
X004406Y001946D03*
X005216Y002174D03*
X002264Y003926D03*
D234*
X003983Y003836D03*
X003257Y002942D03*
X004517Y002786D03*
X005987Y002144D03*
X005567Y002024D03*
X003407Y001952D03*
D235*
X004409Y001952D03*
X002279Y003962D03*
D236*
X003116Y004166D03*
X003194Y003482D03*
X003194Y003476D03*
X003260Y002948D03*
X004520Y002798D03*
X004520Y002792D03*
X003746Y002156D03*
X003404Y001958D03*
X006824Y002876D03*
D237*
X004409Y001958D03*
D238*
X003404Y001964D03*
X003254Y002966D03*
X003254Y002972D03*
X003194Y003464D03*
X005198Y004298D03*
X006830Y002894D03*
X006830Y002888D03*
X005564Y002036D03*
D239*
X004412Y001964D03*
X002228Y003908D03*
X002282Y003974D03*
D240*
X002441Y003716D03*
X002081Y002744D03*
X005495Y002444D03*
X005495Y002438D03*
X005495Y002432D03*
X005879Y002234D03*
X006449Y001964D03*
X006911Y002744D03*
X006161Y003956D03*
X006371Y004472D03*
D241*
X006023Y004100D03*
X004523Y002810D03*
X003407Y001970D03*
D242*
X004415Y001970D03*
D243*
X005582Y001970D03*
X005222Y004370D03*
D244*
X003203Y003446D03*
X004613Y003308D03*
X004613Y003296D03*
X002807Y002198D03*
X003407Y001976D03*
D245*
X004415Y001976D03*
D246*
X005579Y001976D03*
X004499Y002702D03*
X003269Y002852D03*
X003971Y003794D03*
X005219Y004364D03*
D247*
X003200Y003434D03*
X003200Y003428D03*
X003200Y003422D03*
X004610Y003302D03*
X004610Y003284D03*
X003410Y001982D03*
D248*
X004421Y001982D03*
D249*
X003410Y001988D03*
X002810Y002192D03*
D250*
X004421Y001988D03*
X002285Y004004D03*
D251*
X002408Y003836D03*
X003278Y002798D03*
X003788Y002192D03*
X006362Y001988D03*
D252*
X005300Y002336D03*
X005300Y002342D03*
X004544Y002906D03*
X004604Y003242D03*
X004604Y003248D03*
X004604Y003254D03*
X003206Y003368D03*
X003206Y003374D03*
X003410Y001994D03*
D253*
X004421Y001994D03*
D254*
X005366Y002156D03*
X005576Y001994D03*
X003266Y002876D03*
X003266Y002882D03*
X004634Y003416D03*
X003974Y003806D03*
X001910Y004208D03*
D255*
X002393Y003854D03*
X003173Y003608D03*
X004643Y003458D03*
X005279Y003884D03*
X006263Y003884D03*
X006197Y004346D03*
X004223Y004238D03*
X006341Y001994D03*
D256*
X002465Y002000D03*
D257*
X003407Y002000D03*
X005297Y002330D03*
X004601Y003230D03*
X003209Y003350D03*
D258*
X004424Y002000D03*
D259*
X005573Y002000D03*
X004631Y003410D03*
X005261Y003920D03*
D260*
X004232Y004220D03*
X006326Y002000D03*
D261*
X005291Y002318D03*
X004547Y002936D03*
X004547Y002942D03*
X004553Y002966D03*
X004589Y003164D03*
X004589Y003176D03*
X003239Y003128D03*
X003239Y003122D03*
X003239Y003116D03*
X003239Y003086D03*
X003239Y003074D03*
X003239Y003068D03*
X003239Y003062D03*
X003221Y003266D03*
X003221Y003272D03*
X005219Y003974D03*
X003407Y002006D03*
D262*
X004427Y002006D03*
D263*
X004508Y002738D03*
X004508Y002744D03*
X004634Y003404D03*
X003182Y003548D03*
X003266Y002888D03*
X002792Y002222D03*
X006308Y002006D03*
X006146Y004316D03*
D264*
X004583Y003134D03*
X004583Y003128D03*
X004583Y003122D03*
X004583Y003116D03*
X003227Y003206D03*
X003227Y003212D03*
X003407Y002012D03*
D265*
X004427Y002012D03*
X002291Y004028D03*
D266*
X003977Y003824D03*
X003263Y002912D03*
X003263Y002906D03*
X005567Y002012D03*
X006797Y002798D03*
X006797Y002804D03*
X006803Y002816D03*
D267*
X006305Y002114D03*
X006305Y002108D03*
X006305Y002102D03*
X006305Y002096D03*
X006305Y002084D03*
X006305Y002078D03*
X006305Y002072D03*
X006305Y002066D03*
X006305Y002054D03*
X006305Y002048D03*
X006305Y002042D03*
X006305Y002012D03*
X003185Y003536D03*
X003185Y003542D03*
X001925Y004202D03*
D268*
X005255Y004448D03*
X005255Y004454D03*
X006251Y004382D03*
X005291Y003836D03*
X006701Y002288D03*
X004745Y002042D03*
X002771Y002282D03*
X002501Y002018D03*
D269*
X003404Y002018D03*
X005276Y002288D03*
X005558Y002078D03*
D270*
X004427Y002018D03*
D271*
X005567Y002018D03*
X006809Y002828D03*
X006809Y002834D03*
X004625Y003362D03*
X004625Y003368D03*
X005255Y003938D03*
X006125Y004304D03*
X003191Y003512D03*
X003263Y002924D03*
X003263Y002918D03*
X002801Y002216D03*
X003119Y004172D03*
D272*
X003122Y004178D03*
X004628Y003386D03*
X003758Y002162D03*
X006302Y002036D03*
X006302Y002024D03*
X006302Y002018D03*
D273*
X005270Y002276D03*
X003404Y002024D03*
X005204Y003986D03*
X006044Y004274D03*
D274*
X002525Y002030D03*
D275*
X003404Y002030D03*
D276*
X005564Y002030D03*
X006824Y002870D03*
D277*
X006302Y002030D03*
X004508Y002750D03*
D278*
X003401Y002036D03*
X004001Y003914D03*
X004199Y003992D03*
D279*
X003398Y002042D03*
D280*
X004529Y002834D03*
X003251Y002996D03*
X005561Y002042D03*
X006005Y002138D03*
X005201Y004292D03*
D281*
X004646Y003464D03*
X003176Y003614D03*
X002396Y003848D03*
X004496Y002678D03*
X005396Y002114D03*
X002570Y002048D03*
D282*
X003392Y002048D03*
X005228Y002192D03*
X002276Y003932D03*
D283*
X003203Y003416D03*
X003203Y003404D03*
X003245Y003008D03*
X004535Y002858D03*
X004607Y003272D03*
X004607Y003278D03*
X005231Y003962D03*
X005201Y004286D03*
X004271Y004166D03*
X005309Y002366D03*
X005561Y002048D03*
D284*
X005213Y002168D03*
X003383Y002054D03*
X004253Y004004D03*
D285*
X003206Y003398D03*
X003206Y003392D03*
X003206Y003386D03*
X003248Y003038D03*
X003248Y003032D03*
X003248Y003026D03*
X003248Y003014D03*
X004538Y002876D03*
X004538Y002864D03*
X005306Y002354D03*
X005558Y002054D03*
X006014Y004106D03*
X006086Y004286D03*
D286*
X003083Y002060D03*
D287*
X003722Y002150D03*
X005558Y002060D03*
D288*
X006305Y002060D03*
X006305Y002090D03*
D289*
X003095Y002066D03*
D290*
X004595Y003182D03*
X004595Y003188D03*
X004595Y003194D03*
X003215Y003296D03*
X003215Y003302D03*
X003215Y003308D03*
X003215Y003314D03*
X003215Y003326D03*
X005555Y002066D03*
D291*
X003260Y002072D03*
D292*
X004559Y002996D03*
X004559Y003002D03*
X004559Y003008D03*
X004559Y003014D03*
X004565Y003026D03*
X004565Y003032D03*
X004565Y003038D03*
X004571Y003056D03*
X004571Y003062D03*
X004571Y003068D03*
X005285Y002306D03*
X005555Y002072D03*
D293*
X003257Y002078D03*
D294*
X003254Y002084D03*
D295*
X005555Y002084D03*
X003995Y003896D03*
D296*
X003251Y002090D03*
D297*
X004835Y002090D03*
D298*
X005558Y002090D03*
D299*
X003254Y002096D03*
X004712Y004022D03*
X004718Y004028D03*
D300*
X005258Y002246D03*
X005558Y002096D03*
D301*
X003251Y002102D03*
X004739Y004064D03*
X004751Y004082D03*
D302*
X006083Y003692D03*
X006083Y003686D03*
X005543Y002726D03*
X005543Y002714D03*
X005987Y002516D03*
X006977Y002102D03*
X002423Y003422D03*
X002423Y003428D03*
X002423Y003434D03*
X002423Y003446D03*
X002303Y002942D03*
D303*
X003251Y002108D03*
X004757Y004094D03*
X004763Y004106D03*
X004769Y004112D03*
D304*
X005522Y004172D03*
X003248Y002114D03*
D305*
X003248Y002120D03*
D306*
X005393Y002120D03*
D307*
X006131Y002120D03*
D308*
X005882Y002240D03*
X005498Y002450D03*
X006902Y002120D03*
X003818Y002270D03*
X002438Y003710D03*
D309*
X003248Y002126D03*
D310*
X002189Y002792D03*
X003173Y003602D03*
X003971Y003788D03*
X004643Y003452D03*
X004643Y003446D03*
X005387Y002126D03*
D311*
X004460Y002534D03*
X006530Y002126D03*
X006590Y003128D03*
X006590Y003134D03*
X006620Y003638D03*
X006620Y003644D03*
X006620Y003656D03*
X006620Y003662D03*
X006620Y003668D03*
X006620Y003674D03*
X006620Y003686D03*
X006620Y003692D03*
X006620Y003698D03*
X002990Y004742D03*
X001370Y003674D03*
X001340Y003656D03*
X002030Y002672D03*
D312*
X003248Y002132D03*
D313*
X003776Y002174D03*
X004496Y002696D03*
X005384Y002132D03*
X003176Y003596D03*
X004226Y004226D03*
X005270Y003896D03*
X002186Y002786D03*
X002186Y002774D03*
D314*
X003248Y002138D03*
D315*
X003248Y002144D03*
D316*
X006737Y002144D03*
D317*
X002882Y002150D03*
D318*
X005372Y002150D03*
X003974Y003800D03*
D319*
X005972Y002150D03*
D320*
X006734Y002150D03*
X004640Y003440D03*
X002186Y002780D03*
X001880Y004220D03*
D321*
X004007Y003926D03*
X002849Y002156D03*
D322*
X002843Y002162D03*
X005183Y003998D03*
D323*
X004016Y003944D03*
X002282Y003956D03*
X005210Y002162D03*
D324*
X002834Y002168D03*
D325*
X002828Y002174D03*
D326*
X002822Y002180D03*
X004568Y003050D03*
X005282Y002300D03*
X005216Y003980D03*
D327*
X005222Y002180D03*
D328*
X005891Y002180D03*
X004661Y003530D03*
X005279Y004520D03*
X001739Y004280D03*
D329*
X002279Y003938D03*
X005159Y004004D03*
X005225Y002186D03*
D330*
X006713Y002186D03*
X003173Y003632D03*
X004217Y004268D03*
X005237Y004412D03*
X002213Y002834D03*
D331*
X002099Y004148D03*
X005231Y002198D03*
D332*
X004523Y002804D03*
X004619Y003332D03*
X003983Y003842D03*
X004259Y004178D03*
X005201Y004304D03*
X006113Y004298D03*
X006827Y002882D03*
X003257Y002954D03*
X002801Y002204D03*
D333*
X005234Y002204D03*
D334*
X005150Y002384D03*
X005870Y002204D03*
X003950Y003644D03*
X006350Y004454D03*
D335*
X005204Y004310D03*
X006812Y002840D03*
X002798Y002210D03*
D336*
X005240Y002210D03*
D337*
X006698Y002210D03*
X004652Y003500D03*
X003962Y003740D03*
D338*
X004217Y003998D03*
X005243Y002216D03*
D339*
X005246Y002222D03*
D340*
X002789Y002228D03*
X002381Y003872D03*
X004235Y004208D03*
D341*
X002072Y004154D03*
X005252Y002234D03*
D342*
X004499Y002690D03*
X003269Y002840D03*
X002783Y002240D03*
X002393Y003860D03*
X006077Y004070D03*
D343*
X002420Y003800D03*
X002240Y002870D03*
X006680Y002240D03*
D344*
X005882Y002246D03*
X005498Y002456D03*
X005498Y002462D03*
X006158Y003962D03*
X002282Y002918D03*
X001652Y004322D03*
D345*
X001847Y004232D03*
X004223Y004244D03*
X006083Y004064D03*
X006203Y004352D03*
X004493Y002672D03*
X002777Y002252D03*
D346*
X005885Y002252D03*
X005885Y002258D03*
D347*
X005267Y002264D03*
X004151Y003974D03*
D348*
X004214Y004280D03*
X005246Y004430D03*
X003176Y003650D03*
X002774Y002270D03*
D349*
X005267Y002270D03*
D350*
X006692Y002270D03*
X005294Y003830D03*
X005258Y004460D03*
X003116Y004280D03*
D351*
X004205Y004340D03*
X002765Y002300D03*
D352*
X002444Y003680D03*
X001616Y004340D03*
X005900Y002300D03*
X006680Y003560D03*
D353*
X005288Y002312D03*
X003218Y003278D03*
X003218Y003284D03*
X003992Y003878D03*
D354*
X006716Y002330D03*
D355*
X005303Y002348D03*
X004607Y003266D03*
D356*
X003989Y003860D03*
X003203Y003410D03*
X005309Y002360D03*
D357*
X006038Y002654D03*
X006902Y002492D03*
X006902Y002486D03*
X006038Y003524D03*
X005312Y003548D03*
X003932Y003488D03*
X003842Y002372D03*
X003842Y002366D03*
X002738Y002444D03*
X001442Y003716D03*
X001412Y003698D03*
X003008Y004688D03*
X003008Y004694D03*
X003002Y004706D03*
X004178Y004676D03*
X004178Y004664D03*
X007628Y003902D03*
D358*
X007190Y004124D03*
X005930Y002372D03*
X005930Y002366D03*
D359*
X005933Y002378D03*
X005933Y002384D03*
X004673Y003584D03*
X003323Y004154D03*
X004187Y004514D03*
X005363Y004706D03*
X005363Y004712D03*
X006413Y003878D03*
X006113Y003794D03*
X006113Y003788D03*
X007613Y003812D03*
X007637Y003854D03*
X002747Y002384D03*
X001583Y004358D03*
D360*
X001304Y004520D03*
X002900Y005030D03*
X006584Y003770D03*
X005954Y003230D03*
X006146Y002930D03*
X002114Y002390D03*
D361*
X004475Y002570D03*
X005141Y002390D03*
D362*
X005549Y002750D03*
X005993Y002540D03*
X006569Y002390D03*
X006623Y003290D03*
X006071Y003650D03*
X003935Y003530D03*
X003371Y004130D03*
X002441Y003530D03*
X002435Y003500D03*
D363*
X002285Y002924D03*
X005135Y002396D03*
D364*
X005588Y002972D03*
X005588Y002978D03*
X005588Y002984D03*
X006092Y002792D03*
X006092Y002786D03*
X006572Y003044D03*
X006578Y003062D03*
X006578Y003068D03*
X006578Y003074D03*
X006008Y003416D03*
X006008Y003422D03*
X006902Y002546D03*
X007628Y003992D03*
X004172Y004748D03*
X002972Y004802D03*
X002972Y004808D03*
X003572Y003998D03*
X003578Y003992D03*
X001742Y003332D03*
X002378Y002726D03*
X003848Y002402D03*
D365*
X005528Y002624D03*
X005528Y002636D03*
X005942Y002408D03*
X005942Y002402D03*
X005948Y002414D03*
X007052Y002918D03*
X007052Y002924D03*
X007082Y002972D03*
X007088Y002978D03*
X007118Y003026D03*
X007142Y003062D03*
X007142Y003068D03*
X007148Y003074D03*
X007172Y003116D03*
X007178Y003122D03*
X007202Y003164D03*
X007208Y003176D03*
X007232Y003212D03*
X007238Y003218D03*
X007238Y003224D03*
X007268Y003266D03*
X007298Y003314D03*
X007322Y003356D03*
X007352Y003404D03*
X007382Y003452D03*
X007388Y003458D03*
X007412Y003494D03*
X007418Y003506D03*
X007448Y003554D03*
X007478Y003602D03*
X007532Y003686D03*
X007532Y003692D03*
X007538Y003698D03*
X007562Y003734D03*
X007592Y003776D03*
X007592Y003782D03*
X007598Y003788D03*
X007622Y003824D03*
X007628Y003836D03*
X007322Y004088D03*
X006662Y003458D03*
X003938Y003572D03*
X002408Y003362D03*
X002408Y003356D03*
X001862Y003536D03*
X001772Y003422D03*
X001808Y003878D03*
D366*
X001925Y003596D03*
X002735Y002486D03*
X003845Y002408D03*
X006005Y003398D03*
X006005Y003404D03*
X006575Y003056D03*
X006095Y002798D03*
X007025Y004184D03*
X004175Y004754D03*
X004175Y004766D03*
D367*
X004175Y004790D03*
X002285Y002570D03*
X002255Y002540D03*
X002195Y002480D03*
X003845Y002420D03*
D368*
X005333Y002420D03*
D369*
X005492Y002420D03*
X004196Y004430D03*
D370*
X006428Y004520D03*
X007622Y003830D03*
X007568Y003740D03*
X007472Y003590D03*
X007358Y003410D03*
X007262Y003260D03*
X007208Y003170D03*
X007112Y003020D03*
X007058Y002930D03*
X006632Y002930D03*
X005948Y002420D03*
X005528Y002630D03*
D371*
X005972Y002480D03*
X006872Y002420D03*
X006638Y003350D03*
X005312Y003620D03*
D372*
X006617Y003260D03*
X006893Y002450D03*
D373*
X006575Y003050D03*
X006005Y003410D03*
X004175Y004760D03*
X001205Y003560D03*
X002735Y002480D03*
D374*
X002702Y002540D03*
X002312Y002600D03*
X002228Y002510D03*
X002948Y004880D03*
X005468Y004970D03*
D375*
X002507Y003080D03*
X002543Y002930D03*
X002657Y002630D03*
X002687Y002570D03*
X004907Y002510D03*
D376*
X005543Y002720D03*
X005987Y002510D03*
X002423Y003440D03*
D377*
X005390Y004778D03*
X006080Y003674D03*
X005990Y002528D03*
X005990Y002522D03*
D378*
X005513Y002540D03*
X006677Y003530D03*
X004187Y004490D03*
X001823Y003500D03*
D379*
X006902Y002540D03*
D380*
X005519Y002570D03*
X006671Y003500D03*
X006125Y003830D03*
X002291Y002930D03*
D381*
X001679Y003830D03*
X004181Y004610D03*
X006065Y003620D03*
X005555Y002810D03*
X005555Y002780D03*
X006005Y002570D03*
D382*
X005030Y002810D03*
X005210Y003230D03*
X005300Y003440D03*
X006800Y003620D03*
X006890Y002600D03*
X002570Y002840D03*
X002360Y002660D03*
X002030Y002600D03*
X002510Y003050D03*
X001250Y003230D03*
X005480Y005000D03*
D383*
X004181Y004640D03*
X001607Y003800D03*
X006017Y002600D03*
X006611Y003230D03*
D384*
X006590Y003740D03*
X005120Y003020D03*
X003920Y003380D03*
X001460Y002660D03*
D385*
X004490Y002660D03*
D386*
X006020Y003458D03*
X006020Y003464D03*
X006620Y003716D03*
X002030Y002666D03*
X001310Y003638D03*
D387*
X001322Y002900D03*
X002042Y002690D03*
X007598Y004010D03*
D388*
X007529Y003680D03*
X007511Y003650D03*
X007451Y003560D03*
X007433Y003530D03*
X007379Y003440D03*
X007337Y003380D03*
X007319Y003350D03*
X007301Y003320D03*
X007283Y003290D03*
X007187Y003140D03*
X007169Y003110D03*
X006653Y003410D03*
X006107Y003770D03*
X003299Y002690D03*
X002411Y003380D03*
D389*
X003269Y002870D03*
X004505Y002720D03*
D390*
X004502Y002726D03*
X006158Y004322D03*
D391*
X003185Y003554D03*
X003125Y004184D03*
X004505Y002732D03*
D392*
X006038Y003530D03*
X004178Y004670D03*
X003002Y004700D03*
X002372Y002750D03*
D393*
X001277Y002894D03*
X001253Y003596D03*
X001277Y003614D03*
X003497Y004052D03*
X003587Y003986D03*
X005447Y004916D03*
X006557Y004628D03*
X006017Y003452D03*
X006083Y002768D03*
X006083Y002762D03*
X006077Y002756D03*
D394*
X006782Y002786D03*
X006806Y002822D03*
X004628Y003374D03*
X004514Y002768D03*
X004514Y002762D03*
X003188Y003518D03*
X005204Y004316D03*
X006044Y004088D03*
D395*
X006617Y003272D03*
X006617Y003266D03*
X003383Y004124D03*
X001907Y003566D03*
X002363Y002768D03*
D396*
X001475Y003734D03*
X006515Y004592D03*
X006605Y003206D03*
X006605Y003194D03*
X006545Y002774D03*
D397*
X003281Y002780D03*
D398*
X004517Y002780D03*
D399*
X006779Y002780D03*
D400*
X005288Y003842D03*
X005252Y004442D03*
X006242Y004376D03*
X003278Y002786D03*
X002228Y002852D03*
D401*
X004247Y004190D03*
X006137Y004310D03*
X006803Y002810D03*
D402*
X004616Y003314D03*
X004526Y002828D03*
X004526Y002822D03*
X003254Y002978D03*
X003254Y002984D03*
X003200Y003452D03*
X003200Y003458D03*
X003986Y003854D03*
X005240Y003956D03*
D403*
X004220Y004262D03*
X002210Y002828D03*
D404*
X002219Y002840D03*
X006233Y004370D03*
D405*
X003251Y002990D03*
X004529Y002840D03*
D406*
X004625Y003356D03*
X005249Y003944D03*
X006035Y004094D03*
X006821Y002864D03*
X006821Y002858D03*
X006815Y002852D03*
X003191Y003488D03*
X003191Y003494D03*
D407*
X003248Y003020D03*
X004538Y002870D03*
D408*
X003266Y002900D03*
D409*
X004544Y002900D03*
X005204Y004280D03*
D410*
X003194Y003470D03*
X006836Y002900D03*
D411*
X004601Y003224D03*
X004601Y003236D03*
X004547Y002924D03*
X004547Y002918D03*
X004547Y002912D03*
X003209Y003356D03*
X003209Y003362D03*
X002009Y004172D03*
D412*
X003260Y002930D03*
D413*
X003239Y003080D03*
X003239Y003110D03*
X004547Y002930D03*
X004553Y002960D03*
X004589Y003170D03*
D414*
X003260Y002936D03*
X002360Y003884D03*
X004250Y004184D03*
D415*
X005204Y004274D03*
X003224Y003254D03*
X003224Y003248D03*
X003224Y003242D03*
X003224Y003236D03*
X003224Y003224D03*
X003224Y003218D03*
X003230Y003194D03*
X003230Y003188D03*
X003230Y003182D03*
X003230Y003176D03*
X003230Y003164D03*
X003230Y003158D03*
X003236Y003152D03*
X003236Y003146D03*
X003236Y003134D03*
X004550Y002954D03*
X004550Y002948D03*
X004556Y002972D03*
X004556Y002978D03*
X004556Y002984D03*
X004586Y003146D03*
X004586Y003152D03*
X004586Y003158D03*
D416*
X003257Y002960D03*
X005243Y003950D03*
D417*
X006155Y002960D03*
D418*
X004565Y003020D03*
D419*
X004568Y003044D03*
X004574Y003074D03*
X004574Y003092D03*
X004574Y003098D03*
X004574Y003104D03*
X003992Y003884D03*
X002024Y004166D03*
D420*
X003209Y003380D03*
X003245Y003050D03*
D421*
X004571Y003080D03*
D422*
X006665Y003470D03*
X007151Y003080D03*
X002405Y003350D03*
X001859Y003530D03*
D423*
X004580Y003110D03*
D424*
X004598Y003200D03*
D425*
X006605Y003200D03*
D426*
X004607Y003260D03*
D427*
X005963Y003260D03*
D428*
X003218Y003290D03*
D429*
X004610Y003290D03*
D430*
X003335Y004148D03*
X007235Y004112D03*
X007415Y004064D03*
X007505Y003644D03*
X007475Y003596D03*
X007445Y003548D03*
X007325Y003362D03*
X007295Y003308D03*
D431*
X006065Y004280D03*
X003215Y003320D03*
D432*
X004616Y003320D03*
D433*
X004622Y003338D03*
X004622Y003344D03*
D434*
X001760Y003380D03*
D435*
X004640Y003434D03*
X005270Y003902D03*
D436*
X003203Y003440D03*
D437*
X003176Y003620D03*
X003968Y003770D03*
X004646Y003470D03*
X006254Y003890D03*
X005234Y004400D03*
D438*
X007415Y003500D03*
D439*
X003185Y003530D03*
D440*
X001385Y004472D03*
X001175Y003536D03*
X004175Y004784D03*
X005465Y004958D03*
D441*
X004670Y003560D03*
D442*
X003173Y003590D03*
D443*
X006620Y003650D03*
X006620Y003680D03*
D444*
X005300Y003770D03*
X003950Y003680D03*
D445*
X006080Y003680D03*
X007640Y003890D03*
D446*
X005294Y004550D03*
X003164Y003710D03*
D447*
X003470Y004070D03*
X006620Y003710D03*
D448*
X003089Y004400D03*
X002435Y003740D03*
D449*
X002435Y003746D03*
X002435Y003752D03*
X002825Y004142D03*
X003095Y004382D03*
X006335Y004442D03*
D450*
X005285Y003854D03*
X003965Y003752D03*
D451*
X002435Y003758D03*
D452*
X005297Y003800D03*
D453*
X003980Y003830D03*
D454*
X001865Y003890D03*
D455*
X002342Y003890D03*
D456*
X003995Y003890D03*
D457*
X005276Y003890D03*
D458*
X002210Y003896D03*
D459*
X002222Y003902D03*
X002144Y004142D03*
D460*
X003995Y003902D03*
D461*
X004001Y003908D03*
X004181Y003986D03*
D462*
X002237Y003914D03*
D463*
X002252Y003920D03*
D464*
X004004Y003920D03*
D465*
X004013Y003938D03*
D466*
X002279Y003944D03*
D467*
X002282Y003950D03*
D468*
X004019Y003950D03*
D469*
X004019Y003956D03*
D470*
X004121Y003962D03*
X004139Y003968D03*
D471*
X002282Y003968D03*
D472*
X005228Y003968D03*
D473*
X002282Y003980D03*
D474*
X004166Y003980D03*
D475*
X002282Y003986D03*
D476*
X002282Y003992D03*
D477*
X002285Y003998D03*
D478*
X002285Y004010D03*
D479*
X004706Y004010D03*
D480*
X002285Y004016D03*
D481*
X004709Y004016D03*
D482*
X002285Y004022D03*
D483*
X002291Y004034D03*
D484*
X004721Y004034D03*
D485*
X002291Y004040D03*
D486*
X004727Y004040D03*
D487*
X007505Y004040D03*
D488*
X002291Y004046D03*
D489*
X004730Y004046D03*
D490*
X002291Y004052D03*
D491*
X004736Y004052D03*
X004736Y004058D03*
D492*
X002294Y004058D03*
D493*
X002297Y004064D03*
D494*
X002300Y004070D03*
D495*
X004745Y004070D03*
D496*
X002300Y004076D03*
D497*
X004748Y004076D03*
D498*
X002303Y004082D03*
D499*
X002303Y004088D03*
D500*
X004754Y004088D03*
X005504Y004166D03*
D501*
X002306Y004094D03*
D502*
X002312Y004100D03*
D503*
X004763Y004100D03*
D504*
X002315Y004106D03*
D505*
X002315Y004112D03*
D506*
X002318Y004118D03*
D507*
X005132Y004118D03*
X005138Y004136D03*
X005144Y004142D03*
X005144Y004148D03*
X005150Y004154D03*
D508*
X002321Y004124D03*
D509*
X005135Y004124D03*
D510*
X002327Y004130D03*
D511*
X005138Y004130D03*
X005150Y004160D03*
D512*
X002333Y004136D03*
D513*
X002045Y004160D03*
D514*
X003302Y004160D03*
X006392Y004490D03*
D515*
X004262Y004172D03*
D516*
X005531Y004178D03*
D517*
X005540Y004184D03*
D518*
X005552Y004190D03*
D519*
X001940Y004196D03*
D520*
X005555Y004196D03*
D521*
X005564Y004202D03*
D522*
X005570Y004208D03*
D523*
X005576Y004214D03*
D524*
X003125Y004220D03*
D525*
X005582Y004220D03*
D526*
X005588Y004226D03*
D527*
X005594Y004232D03*
D528*
X005600Y004238D03*
D529*
X005609Y004244D03*
D530*
X001805Y004250D03*
D531*
X003122Y004250D03*
D532*
X004223Y004250D03*
D533*
X005612Y004250D03*
D534*
X005618Y004256D03*
D535*
X005624Y004262D03*
D536*
X005627Y004268D03*
D537*
X004214Y004310D03*
D538*
X005210Y004340D03*
D539*
X006185Y004340D03*
D540*
X005309Y004580D03*
X004199Y004400D03*
D541*
X006317Y004430D03*
D542*
X006410Y004502D03*
X004190Y004496D03*
D543*
X005405Y004820D03*
D544*
X004175Y004970D03*
X004175Y005000D03*
D545*
X002000Y006300D02*
X002000Y006500D01*
X002000Y008100D02*
X002000Y008300D01*
D546*
X002000Y008050D03*
X002000Y006550D03*
M02*
