%
M48
M72
T01C0.0320
T02C0.0394
T03C0.0470
T04C0.0472
%
T01
X2000Y6300
X4100Y6300
X4100Y7300
X4100Y8300
X2000Y8300
X7100Y8300
X7100Y7300
X7100Y6300
T02
X6795Y10433
X5795Y10433
X4795Y10433
X3795Y10433
X3795Y11433
X4795Y11433
X5795Y11433
X6795Y11433
X7795Y11433
X8795Y11433
X9795Y11433
X10795Y11433
X11795Y11433
X12795Y11433
X13795Y11433
X14795Y11433
X15795Y11433
X16795Y11433
X17795Y11433
X18795Y11433
X19795Y11433
X20795Y11433
X21795Y11433
X22795Y11433
X22795Y10433
X21795Y10433
X20795Y10433
X19795Y10433
X18795Y10433
X17795Y10433
X16795Y10433
X15795Y10433
X14795Y10433
X13795Y10433
X12795Y10433
X11795Y10433
X10795Y10433
X9795Y10433
X8795Y10433
X7795Y10433
T03
X23900Y8584
X23900Y6616
X23900Y4284
X23900Y2316
T04
X12710Y1859
X20151Y1875
X20143Y7166
X12718Y7135
M30
