G75*
%MOIN*%
%OFA0B0*%
%FSLAX24Y24*%
%IPPOS*%
%LPD*%
%AMOC8*
5,1,8,0,0,1.08239X$1,22.5*
%
%ADD10R,0.0700X0.0700*%
%ADD11C,0.0700*%
%ADD12C,0.0520*%
%ADD13OC8,0.0520*%
%ADD14C,0.0705*%
%ADD15R,0.0709X0.0709*%
%ADD16C,0.0240*%
%ADD17C,0.0120*%
D10*
X003795Y010433D03*
D11*
X004795Y010433D03*
X005795Y010433D03*
X006795Y010433D03*
X007795Y010433D03*
X008795Y010433D03*
X009795Y010433D03*
X010795Y010433D03*
X011795Y010433D03*
X012795Y010433D03*
X013795Y010433D03*
X014795Y010433D03*
X015795Y010433D03*
X016795Y010433D03*
X017795Y010433D03*
X018795Y010433D03*
X019795Y010433D03*
X020795Y010433D03*
X021795Y010433D03*
X022795Y010433D03*
X022795Y011433D03*
X021795Y011433D03*
X020795Y011433D03*
X019795Y011433D03*
X018795Y011433D03*
X017795Y011433D03*
X016795Y011433D03*
X015795Y011433D03*
X014795Y011433D03*
X013795Y011433D03*
X012795Y011433D03*
X011795Y011433D03*
X010795Y011433D03*
X009795Y011433D03*
X008795Y011433D03*
X007795Y011433D03*
X006795Y011433D03*
X005795Y011433D03*
X004795Y011433D03*
X003795Y011433D03*
D12*
X003580Y008300D02*
X004100Y008300D01*
X004100Y007300D02*
X003580Y007300D01*
X003580Y006300D02*
X004100Y006300D01*
X007100Y006300D02*
X007620Y006300D01*
X007620Y007300D02*
X007100Y007300D01*
X007100Y008300D02*
X007620Y008300D01*
D13*
X002000Y008300D03*
X002000Y006300D03*
D14*
X023548Y006616D02*
X024253Y006616D01*
X024253Y008584D02*
X023548Y008584D01*
X023548Y004284D02*
X024253Y004284D01*
X024253Y002316D02*
X023548Y002316D01*
D15*
X020151Y001875D03*
X012710Y001859D03*
X012718Y007135D03*
X020143Y007166D03*
D16*
X022516Y008000D02*
X023900Y006616D01*
X022516Y008000D02*
X010600Y008000D01*
X008900Y006300D01*
X007100Y006300D01*
X007100Y007300D02*
X008700Y007300D01*
X009984Y008584D01*
X023900Y008584D01*
X012718Y007135D02*
X010935Y007135D01*
X009300Y005500D01*
X003300Y005500D01*
X002800Y006000D01*
X002800Y011000D01*
X003200Y011400D01*
X003762Y011400D01*
X003795Y011433D01*
X007795Y010433D02*
X007795Y009495D01*
X007500Y009200D01*
X005300Y009200D01*
X004800Y008700D01*
X004800Y008000D01*
X004100Y007300D01*
D17*
X001139Y000974D02*
X001340Y000858D01*
X001565Y000798D01*
X001681Y000790D01*
X024909Y000790D01*
X025026Y000798D01*
X025250Y000858D01*
X025452Y000974D01*
X025616Y001139D01*
X025733Y001340D01*
X025793Y001565D01*
X025801Y001681D01*
X025801Y011130D01*
X025793Y011246D01*
X025733Y011471D01*
X025616Y011672D01*
X025452Y011837D01*
X025250Y011953D01*
X025026Y012013D01*
X024909Y012021D01*
X001681Y012021D01*
X001565Y012013D01*
X001340Y011953D01*
X001139Y011837D01*
X000974Y011672D01*
X000858Y011471D01*
X000798Y011246D01*
X000798Y011246D01*
X000790Y011130D01*
X000790Y001681D01*
X000798Y001565D01*
X000858Y001340D01*
X000974Y001139D01*
X001139Y000974D01*
X025452Y000974D01*
X025570Y001093D02*
X001020Y001093D01*
X000932Y001211D02*
X025658Y001211D01*
X025727Y001330D02*
X000864Y001330D01*
X000829Y001448D02*
X012205Y001448D01*
X012207Y001443D02*
X012228Y001406D01*
X012258Y001377D01*
X012294Y001356D01*
X012335Y001345D01*
X012652Y001345D01*
X012652Y001801D01*
X012196Y001801D01*
X012196Y001484D01*
X012207Y001443D01*
X012196Y001567D02*
X000798Y001567D01*
X000790Y001685D02*
X012196Y001685D01*
X012196Y001917D02*
X012652Y001917D01*
X012652Y001801D01*
X012768Y001801D01*
X012768Y001345D01*
X013086Y001345D01*
X013126Y001356D01*
X013163Y001377D01*
X013193Y001406D01*
X013214Y001443D01*
X013225Y001484D01*
X013225Y001801D01*
X012768Y001801D01*
X012768Y001917D01*
X012652Y001917D01*
X012652Y002373D01*
X012335Y002373D01*
X012294Y002362D01*
X012258Y002341D01*
X012228Y002312D01*
X012207Y002275D01*
X012196Y002234D01*
X012196Y001917D01*
X012196Y001922D02*
X000790Y001922D01*
X000790Y001804D02*
X012652Y001804D01*
X012768Y001804D02*
X019627Y001804D01*
X019627Y001922D02*
X013225Y001922D01*
X013225Y001917D02*
X013225Y002234D01*
X013214Y002275D01*
X013193Y002312D01*
X013163Y002341D01*
X013126Y002362D01*
X013086Y002373D01*
X012768Y002373D01*
X012768Y001917D01*
X013225Y001917D01*
X013225Y002041D02*
X019627Y002041D01*
X019627Y002159D02*
X013225Y002159D01*
X013212Y002278D02*
X019627Y002278D01*
X019627Y002300D02*
X019627Y001450D01*
X019726Y001350D01*
X020576Y001350D01*
X020676Y001450D01*
X020676Y002300D01*
X020576Y002399D01*
X019726Y002399D01*
X019627Y002300D01*
X019723Y002396D02*
X000790Y002396D01*
X000790Y002278D02*
X012208Y002278D01*
X012196Y002159D02*
X000790Y002159D01*
X000790Y002041D02*
X012196Y002041D01*
X012652Y002041D02*
X012768Y002041D01*
X012768Y002159D02*
X012652Y002159D01*
X012652Y002278D02*
X012768Y002278D01*
X012768Y001922D02*
X012652Y001922D01*
X012652Y001685D02*
X012768Y001685D01*
X012768Y001567D02*
X012652Y001567D01*
X012652Y001448D02*
X012768Y001448D01*
X013215Y001448D02*
X019629Y001448D01*
X019627Y001567D02*
X013225Y001567D01*
X013225Y001685D02*
X019627Y001685D01*
X020676Y001685D02*
X025801Y001685D01*
X025801Y001804D02*
X024381Y001804D01*
X024356Y001793D02*
X024548Y001873D01*
X024695Y002020D01*
X024775Y002212D01*
X024775Y002420D01*
X024695Y002612D01*
X024548Y002759D01*
X024356Y002838D01*
X023444Y002838D01*
X023252Y002759D01*
X023105Y002612D01*
X023025Y002420D01*
X023025Y002212D01*
X023105Y002020D01*
X023252Y001873D01*
X023444Y001793D01*
X024356Y001793D01*
X024598Y001922D02*
X025801Y001922D01*
X025801Y002041D02*
X024704Y002041D01*
X024753Y002159D02*
X025801Y002159D01*
X025801Y002278D02*
X024775Y002278D01*
X024775Y002396D02*
X025801Y002396D01*
X025801Y002515D02*
X024736Y002515D01*
X024674Y002633D02*
X025801Y002633D01*
X025801Y002752D02*
X024556Y002752D01*
X025801Y002870D02*
X000790Y002870D01*
X000790Y002752D02*
X023244Y002752D01*
X023126Y002633D02*
X000790Y002633D01*
X000790Y002515D02*
X023064Y002515D01*
X023025Y002396D02*
X020579Y002396D01*
X020676Y002278D02*
X023025Y002278D01*
X023047Y002159D02*
X020676Y002159D01*
X020676Y002041D02*
X023096Y002041D01*
X023202Y001922D02*
X020676Y001922D01*
X020676Y001804D02*
X023419Y001804D01*
X025242Y000856D02*
X001349Y000856D01*
X000790Y002989D02*
X025801Y002989D01*
X025801Y003107D02*
X000790Y003107D01*
X000790Y003226D02*
X025801Y003226D01*
X025801Y003344D02*
X000790Y003344D01*
X000790Y003463D02*
X025801Y003463D01*
X025801Y003581D02*
X000790Y003581D01*
X000790Y003700D02*
X025801Y003700D01*
X025801Y003818D02*
X024492Y003818D01*
X024548Y003841D02*
X024695Y003988D01*
X024775Y004180D01*
X024775Y004388D01*
X024695Y004580D01*
X024548Y004727D01*
X024356Y004807D01*
X023444Y004807D01*
X023252Y004727D01*
X023105Y004580D01*
X023025Y004388D01*
X023025Y004180D01*
X023105Y003988D01*
X023252Y003841D01*
X023444Y003762D01*
X024356Y003762D01*
X024548Y003841D01*
X024644Y003937D02*
X025801Y003937D01*
X025801Y004055D02*
X024723Y004055D01*
X024772Y004174D02*
X025801Y004174D01*
X025801Y004292D02*
X024775Y004292D01*
X024766Y004411D02*
X025801Y004411D01*
X025801Y004529D02*
X024717Y004529D01*
X024628Y004648D02*
X025801Y004648D01*
X025801Y004766D02*
X024455Y004766D01*
X023345Y004766D02*
X000790Y004766D01*
X000790Y004648D02*
X023172Y004648D01*
X023083Y004529D02*
X000790Y004529D01*
X000790Y004411D02*
X023034Y004411D01*
X023025Y004292D02*
X000790Y004292D01*
X000790Y004174D02*
X023028Y004174D01*
X023077Y004055D02*
X000790Y004055D01*
X000790Y003937D02*
X023156Y003937D01*
X023308Y003818D02*
X000790Y003818D01*
X000790Y004885D02*
X025801Y004885D01*
X025801Y005003D02*
X000790Y005003D01*
X000790Y005122D02*
X025801Y005122D01*
X025801Y005240D02*
X009430Y005240D01*
X009464Y005254D02*
X009358Y005210D01*
X003242Y005210D01*
X003136Y005254D01*
X002636Y005754D01*
X002554Y005836D01*
X002510Y005942D01*
X002510Y011058D01*
X002554Y011164D01*
X002954Y011564D01*
X003036Y011646D01*
X003142Y011690D01*
X003339Y011690D01*
X003354Y011728D01*
X003501Y011874D01*
X003692Y011953D01*
X003899Y011953D01*
X004090Y011874D01*
X004236Y011728D01*
X004295Y011585D01*
X004354Y011728D01*
X004501Y011874D01*
X004692Y011953D01*
X004899Y011953D01*
X005090Y011874D01*
X005236Y011728D01*
X005303Y011567D01*
X005323Y011629D01*
X005359Y011700D01*
X005406Y011765D01*
X005463Y011822D01*
X005528Y011869D01*
X005600Y011906D01*
X005676Y011931D01*
X005755Y011943D01*
X005757Y011943D01*
X005757Y011472D01*
X005834Y011472D01*
X005834Y011943D01*
X005835Y011943D01*
X005915Y011931D01*
X005991Y011906D01*
X006063Y011869D01*
X006128Y011822D01*
X006184Y011765D01*
X006231Y011700D01*
X006268Y011629D01*
X006288Y011567D01*
X006354Y011728D01*
X006501Y011874D01*
X006692Y011953D01*
X006899Y011953D01*
X007090Y011874D01*
X007236Y011728D01*
X007295Y011585D01*
X007354Y011728D01*
X007501Y011874D01*
X007692Y011953D01*
X007899Y011953D01*
X008090Y011874D01*
X008236Y011728D01*
X008295Y011585D01*
X008354Y011728D01*
X008501Y011874D01*
X008692Y011953D01*
X008899Y011953D01*
X009090Y011874D01*
X009236Y011728D01*
X009295Y011585D01*
X009354Y011728D01*
X009501Y011874D01*
X009692Y011953D01*
X009899Y011953D01*
X010090Y011874D01*
X010236Y011728D01*
X010295Y011585D01*
X010354Y011728D01*
X010501Y011874D01*
X010692Y011953D01*
X010899Y011953D01*
X011090Y011874D01*
X011236Y011728D01*
X011295Y011585D01*
X011354Y011728D01*
X011501Y011874D01*
X011692Y011953D01*
X011899Y011953D01*
X012090Y011874D01*
X012236Y011728D01*
X012295Y011585D01*
X012354Y011728D01*
X012501Y011874D01*
X012692Y011953D01*
X012899Y011953D01*
X013090Y011874D01*
X013236Y011728D01*
X013295Y011585D01*
X013354Y011728D01*
X013501Y011874D01*
X013692Y011953D01*
X013899Y011953D01*
X014090Y011874D01*
X014236Y011728D01*
X014295Y011585D01*
X014354Y011728D01*
X014501Y011874D01*
X014692Y011953D01*
X014899Y011953D01*
X015090Y011874D01*
X015236Y011728D01*
X015295Y011585D01*
X015354Y011728D01*
X015501Y011874D01*
X015692Y011953D01*
X015899Y011953D01*
X016090Y011874D01*
X016236Y011728D01*
X016295Y011585D01*
X016354Y011728D01*
X016501Y011874D01*
X016692Y011953D01*
X016899Y011953D01*
X017090Y011874D01*
X017236Y011728D01*
X017295Y011585D01*
X017354Y011728D01*
X017501Y011874D01*
X017692Y011953D01*
X017899Y011953D01*
X018090Y011874D01*
X018236Y011728D01*
X018295Y011585D01*
X018354Y011728D01*
X018501Y011874D01*
X018692Y011953D01*
X018899Y011953D01*
X019090Y011874D01*
X019236Y011728D01*
X019295Y011585D01*
X019354Y011728D01*
X019501Y011874D01*
X019692Y011953D01*
X019899Y011953D01*
X020090Y011874D01*
X020236Y011728D01*
X020295Y011585D01*
X020354Y011728D01*
X020501Y011874D01*
X020692Y011953D01*
X020899Y011953D01*
X021090Y011874D01*
X021236Y011728D01*
X021295Y011585D01*
X021354Y011728D01*
X021501Y011874D01*
X021692Y011953D01*
X021899Y011953D01*
X022090Y011874D01*
X022236Y011728D01*
X022295Y011585D01*
X022354Y011728D01*
X022501Y011874D01*
X022692Y011953D01*
X022899Y011953D01*
X023090Y011874D01*
X023236Y011728D01*
X023315Y011537D01*
X023315Y011330D01*
X023236Y011139D01*
X023090Y010992D01*
X022947Y010933D01*
X023090Y010874D01*
X023236Y010728D01*
X023315Y010537D01*
X023315Y010330D01*
X023236Y010139D01*
X023090Y009992D01*
X022899Y009913D01*
X022692Y009913D01*
X022501Y009992D01*
X022354Y010139D01*
X022295Y010281D01*
X022236Y010139D01*
X022090Y009992D01*
X021899Y009913D01*
X021692Y009913D01*
X021501Y009992D01*
X021354Y010139D01*
X021295Y010281D01*
X021236Y010139D01*
X021090Y009992D01*
X020899Y009913D01*
X020692Y009913D01*
X020501Y009992D01*
X020354Y010139D01*
X020295Y010281D01*
X020236Y010139D01*
X020090Y009992D01*
X019899Y009913D01*
X019692Y009913D01*
X019501Y009992D01*
X019354Y010139D01*
X019295Y010281D01*
X019236Y010139D01*
X019090Y009992D01*
X018899Y009913D01*
X018692Y009913D01*
X018501Y009992D01*
X018354Y010139D01*
X018295Y010281D01*
X018236Y010139D01*
X018090Y009992D01*
X017899Y009913D01*
X017692Y009913D01*
X017501Y009992D01*
X017354Y010139D01*
X017295Y010281D01*
X017236Y010139D01*
X017090Y009992D01*
X016899Y009913D01*
X016692Y009913D01*
X016501Y009992D01*
X016354Y010139D01*
X016288Y010299D01*
X016268Y010237D01*
X016231Y010166D01*
X016184Y010101D01*
X016128Y010044D01*
X016063Y009997D01*
X015991Y009960D01*
X015915Y009936D01*
X015835Y009923D01*
X015834Y009923D01*
X015834Y010395D01*
X015757Y010395D01*
X015757Y009923D01*
X015755Y009923D01*
X015676Y009936D01*
X015600Y009960D01*
X015528Y009997D01*
X015463Y010044D01*
X015406Y010101D01*
X015359Y010166D01*
X015323Y010237D01*
X015303Y010299D01*
X015236Y010139D01*
X015090Y009992D01*
X014899Y009913D01*
X014692Y009913D01*
X014501Y009992D01*
X014354Y010139D01*
X014295Y010281D01*
X014236Y010139D01*
X014090Y009992D01*
X013899Y009913D01*
X013692Y009913D01*
X013501Y009992D01*
X013354Y010139D01*
X013295Y010281D01*
X013236Y010139D01*
X013090Y009992D01*
X012899Y009913D01*
X012692Y009913D01*
X012501Y009992D01*
X012354Y010139D01*
X012295Y010281D01*
X012236Y010139D01*
X012090Y009992D01*
X011899Y009913D01*
X011692Y009913D01*
X011501Y009992D01*
X011354Y010139D01*
X011295Y010281D01*
X011236Y010139D01*
X011090Y009992D01*
X010899Y009913D01*
X010692Y009913D01*
X010501Y009992D01*
X010354Y010139D01*
X010295Y010281D01*
X010236Y010139D01*
X010090Y009992D01*
X009899Y009913D01*
X009692Y009913D01*
X009501Y009992D01*
X009354Y010139D01*
X009295Y010281D01*
X009236Y010139D01*
X009090Y009992D01*
X008899Y009913D01*
X008692Y009913D01*
X008501Y009992D01*
X008354Y010139D01*
X008288Y010299D01*
X008268Y010237D01*
X008231Y010166D01*
X008184Y010101D01*
X008128Y010044D01*
X008063Y009997D01*
X007991Y009960D01*
X007915Y009936D01*
X007835Y009923D01*
X007834Y009923D01*
X007834Y010395D01*
X007757Y010395D01*
X007757Y009923D01*
X007755Y009923D01*
X007676Y009936D01*
X007600Y009960D01*
X007528Y009997D01*
X007463Y010044D01*
X007406Y010101D01*
X007359Y010166D01*
X007323Y010237D01*
X007303Y010299D01*
X007236Y010139D01*
X007090Y009992D01*
X006899Y009913D01*
X006692Y009913D01*
X006501Y009992D01*
X006354Y010139D01*
X006295Y010281D01*
X006236Y010139D01*
X006090Y009992D01*
X005899Y009913D01*
X005692Y009913D01*
X005501Y009992D01*
X005354Y010139D01*
X005295Y010281D01*
X005236Y010139D01*
X005090Y009992D01*
X004899Y009913D01*
X004692Y009913D01*
X004501Y009992D01*
X004354Y010139D01*
X004315Y010233D01*
X004315Y010013D01*
X004216Y009913D01*
X003375Y009913D01*
X003275Y010013D01*
X003275Y010853D01*
X003375Y010953D01*
X003595Y010953D01*
X003501Y010992D01*
X003383Y011110D01*
X003320Y011110D01*
X003090Y010880D01*
X003090Y006120D01*
X003420Y005790D01*
X009180Y005790D01*
X010770Y007380D01*
X010877Y007425D01*
X012194Y007425D01*
X012194Y007559D01*
X012293Y007659D01*
X013143Y007659D01*
X013242Y007559D01*
X013242Y006710D01*
X013143Y006610D01*
X012293Y006610D01*
X012194Y006710D01*
X012194Y006845D01*
X011055Y006845D01*
X009464Y005254D01*
X009569Y005359D02*
X025801Y005359D01*
X025801Y005477D02*
X009687Y005477D01*
X009806Y005596D02*
X025801Y005596D01*
X025801Y005714D02*
X009924Y005714D01*
X010043Y005833D02*
X025801Y005833D01*
X025801Y005951D02*
X010161Y005951D01*
X010280Y006070D02*
X025801Y006070D01*
X025801Y006188D02*
X024564Y006188D01*
X024548Y006173D02*
X024695Y006320D01*
X024775Y006512D01*
X024775Y006720D01*
X024695Y006912D01*
X024548Y007059D01*
X024356Y007138D01*
X023788Y007138D01*
X022680Y008246D01*
X022573Y008290D01*
X010542Y008290D01*
X010436Y008246D01*
X010354Y008164D01*
X008780Y006590D01*
X007938Y006590D01*
X007864Y006665D01*
X007706Y006730D01*
X007014Y006730D01*
X006856Y006665D01*
X006735Y006544D01*
X006670Y006386D01*
X006670Y006214D01*
X006735Y006056D01*
X006856Y005935D01*
X007014Y005870D01*
X007706Y005870D01*
X007864Y005935D01*
X007938Y006010D01*
X008958Y006010D01*
X009064Y006054D01*
X010720Y007710D01*
X022396Y007710D01*
X023149Y006956D01*
X023105Y006912D01*
X023025Y006720D01*
X023025Y006512D01*
X023105Y006320D01*
X023252Y006173D01*
X023444Y006093D01*
X024356Y006093D01*
X024548Y006173D01*
X024682Y006307D02*
X025801Y006307D01*
X025801Y006425D02*
X024739Y006425D01*
X024775Y006544D02*
X025801Y006544D01*
X025801Y006662D02*
X024775Y006662D01*
X024750Y006781D02*
X025801Y006781D01*
X025801Y006899D02*
X024701Y006899D01*
X024590Y007018D02*
X025801Y007018D01*
X025801Y007136D02*
X024362Y007136D01*
X023671Y007255D02*
X025801Y007255D01*
X025801Y007373D02*
X023553Y007373D01*
X023434Y007492D02*
X025801Y007492D01*
X025801Y007610D02*
X023316Y007610D01*
X023197Y007729D02*
X025801Y007729D01*
X025801Y007847D02*
X023079Y007847D01*
X022960Y007966D02*
X025801Y007966D01*
X025801Y008084D02*
X024410Y008084D01*
X024356Y008062D02*
X024548Y008141D01*
X024695Y008288D01*
X024775Y008480D01*
X024775Y008688D01*
X024695Y008880D01*
X024548Y009027D01*
X024356Y009107D01*
X023444Y009107D01*
X023252Y009027D01*
X023105Y008880D01*
X023102Y008874D01*
X009927Y008874D01*
X009820Y008830D01*
X008580Y007590D01*
X007938Y007590D01*
X007864Y007665D01*
X007706Y007730D01*
X007014Y007730D01*
X006856Y007665D01*
X006735Y007544D01*
X006670Y007386D01*
X006670Y007214D01*
X006735Y007056D01*
X006856Y006935D01*
X007014Y006870D01*
X007706Y006870D01*
X007864Y006935D01*
X007938Y007010D01*
X008758Y007010D01*
X008864Y007054D01*
X008946Y007136D01*
X009326Y007136D01*
X009444Y007255D02*
X009065Y007255D01*
X009183Y007373D02*
X009563Y007373D01*
X009681Y007492D02*
X009302Y007492D01*
X009420Y007610D02*
X009800Y007610D01*
X009918Y007729D02*
X009539Y007729D01*
X009657Y007847D02*
X010037Y007847D01*
X010155Y007966D02*
X009776Y007966D01*
X009894Y008084D02*
X010274Y008084D01*
X010392Y008203D02*
X010013Y008203D01*
X010104Y008294D02*
X023102Y008294D01*
X023105Y008288D01*
X023252Y008141D01*
X023444Y008062D01*
X024356Y008062D01*
X024610Y008203D02*
X025801Y008203D01*
X025801Y008321D02*
X024709Y008321D01*
X024758Y008440D02*
X025801Y008440D01*
X025801Y008558D02*
X024775Y008558D01*
X024775Y008677D02*
X025801Y008677D01*
X025801Y008795D02*
X024731Y008795D01*
X024662Y008914D02*
X025801Y008914D01*
X025801Y009032D02*
X024537Y009032D01*
X025801Y009151D02*
X003090Y009151D01*
X003090Y009269D02*
X025801Y009269D01*
X025801Y009388D02*
X003090Y009388D01*
X003090Y009506D02*
X025801Y009506D01*
X025801Y009625D02*
X003090Y009625D01*
X003090Y009743D02*
X025801Y009743D01*
X025801Y009862D02*
X003090Y009862D01*
X003090Y009980D02*
X003308Y009980D01*
X003275Y010099D02*
X003090Y010099D01*
X003090Y010217D02*
X003275Y010217D01*
X003275Y010336D02*
X003090Y010336D01*
X003090Y010454D02*
X003275Y010454D01*
X003275Y010573D02*
X003090Y010573D01*
X003090Y010691D02*
X003275Y010691D01*
X003275Y010810D02*
X003090Y010810D01*
X003138Y010928D02*
X003350Y010928D01*
X003257Y011047D02*
X003446Y011047D01*
X002792Y011402D02*
X000839Y011402D01*
X000808Y011284D02*
X002673Y011284D01*
X002555Y011165D02*
X000792Y011165D01*
X000790Y011047D02*
X002510Y011047D01*
X002510Y010928D02*
X000790Y010928D01*
X000790Y010810D02*
X002510Y010810D01*
X002510Y010691D02*
X000790Y010691D01*
X000790Y010573D02*
X002510Y010573D01*
X002510Y010454D02*
X000790Y010454D01*
X000790Y010336D02*
X002510Y010336D01*
X002510Y010217D02*
X000790Y010217D01*
X000790Y010099D02*
X002510Y010099D01*
X002510Y009980D02*
X000790Y009980D01*
X000790Y009862D02*
X002510Y009862D01*
X002510Y009743D02*
X000790Y009743D01*
X000790Y009625D02*
X002510Y009625D01*
X002510Y009506D02*
X000790Y009506D01*
X000790Y009388D02*
X002510Y009388D01*
X002510Y009269D02*
X000790Y009269D01*
X000790Y009151D02*
X002510Y009151D01*
X002510Y009032D02*
X000790Y009032D01*
X000790Y008914D02*
X002510Y008914D01*
X002510Y008795D02*
X000790Y008795D01*
X000790Y008677D02*
X001768Y008677D01*
X001822Y008730D02*
X001570Y008478D01*
X001570Y008122D01*
X001822Y007870D01*
X002178Y007870D01*
X002430Y008122D01*
X002430Y008478D01*
X002178Y008730D01*
X001822Y008730D01*
X001650Y008558D02*
X000790Y008558D01*
X000790Y008440D02*
X001570Y008440D01*
X001570Y008321D02*
X000790Y008321D01*
X000790Y008203D02*
X001570Y008203D01*
X001608Y008084D02*
X000790Y008084D01*
X000790Y007966D02*
X001726Y007966D01*
X002274Y007966D02*
X002510Y007966D01*
X002510Y008084D02*
X002392Y008084D01*
X002430Y008203D02*
X002510Y008203D01*
X002510Y008321D02*
X002430Y008321D01*
X002430Y008440D02*
X002510Y008440D01*
X002510Y008558D02*
X002350Y008558D01*
X002232Y008677D02*
X002510Y008677D01*
X003090Y008677D02*
X003365Y008677D01*
X003336Y008665D02*
X003215Y008544D01*
X003150Y008386D01*
X003150Y008214D01*
X003215Y008056D01*
X003336Y007935D01*
X003494Y007870D01*
X004186Y007870D01*
X004344Y007935D01*
X004465Y008056D01*
X004530Y008214D01*
X004530Y008386D01*
X004465Y008544D01*
X004344Y008665D01*
X004186Y008730D01*
X003494Y008730D01*
X003336Y008665D01*
X003230Y008558D02*
X003090Y008558D01*
X003090Y008440D02*
X003172Y008440D01*
X003150Y008321D02*
X003090Y008321D01*
X003090Y008203D02*
X003155Y008203D01*
X003204Y008084D02*
X003090Y008084D01*
X003090Y007966D02*
X003306Y007966D01*
X003090Y007847D02*
X008837Y007847D01*
X008955Y007966D02*
X007894Y007966D01*
X007864Y007935D02*
X007985Y008056D01*
X008050Y008214D01*
X008050Y008386D01*
X007985Y008544D01*
X007864Y008665D01*
X007706Y008730D01*
X007014Y008730D01*
X006856Y008665D01*
X006735Y008544D01*
X006670Y008386D01*
X006670Y008214D01*
X006735Y008056D01*
X006856Y007935D01*
X007014Y007870D01*
X007706Y007870D01*
X007864Y007935D01*
X007996Y008084D02*
X009074Y008084D01*
X009192Y008203D02*
X008045Y008203D01*
X008050Y008321D02*
X009311Y008321D01*
X009429Y008440D02*
X008028Y008440D01*
X007970Y008558D02*
X009548Y008558D01*
X009666Y008677D02*
X007835Y008677D01*
X006885Y008677D02*
X004315Y008677D01*
X004450Y008558D02*
X006750Y008558D01*
X006692Y008440D02*
X004508Y008440D01*
X004530Y008321D02*
X006670Y008321D01*
X006675Y008203D02*
X004525Y008203D01*
X004476Y008084D02*
X006724Y008084D01*
X006826Y007966D02*
X004374Y007966D01*
X004261Y007689D02*
X004198Y007710D01*
X004133Y007720D01*
X004120Y007720D01*
X004120Y007320D01*
X004080Y007320D01*
X004080Y007720D01*
X003547Y007720D01*
X003482Y007710D01*
X003419Y007689D01*
X003360Y007659D01*
X003306Y007620D01*
X003260Y007574D01*
X003221Y007520D01*
X003191Y007461D01*
X003170Y007398D01*
X003160Y007333D01*
X003160Y007320D01*
X004080Y007320D01*
X004080Y007280D01*
X004120Y007280D01*
X004120Y007320D01*
X004520Y007320D01*
X004520Y007333D01*
X004510Y007398D01*
X004489Y007461D01*
X004459Y007520D01*
X004420Y007574D01*
X004374Y007620D01*
X004320Y007659D01*
X004261Y007689D01*
X004384Y007610D02*
X006802Y007610D01*
X006714Y007492D02*
X004474Y007492D01*
X004514Y007373D02*
X006670Y007373D01*
X006670Y007255D02*
X004518Y007255D01*
X004520Y007267D02*
X004520Y007280D01*
X004120Y007280D01*
X004120Y006880D01*
X004133Y006880D01*
X004198Y006890D01*
X004261Y006911D01*
X004320Y006941D01*
X004374Y006980D01*
X004420Y007026D01*
X004459Y007080D01*
X004489Y007139D01*
X004510Y007202D01*
X004520Y007267D01*
X004488Y007136D02*
X006702Y007136D01*
X006774Y007018D02*
X004411Y007018D01*
X004225Y006899D02*
X006944Y006899D01*
X006854Y006662D02*
X004346Y006662D01*
X004344Y006665D02*
X004186Y006730D01*
X003494Y006730D01*
X003336Y006665D01*
X003215Y006544D01*
X003150Y006386D01*
X003150Y006214D01*
X003215Y006056D01*
X003336Y005935D01*
X003494Y005870D01*
X004186Y005870D01*
X004344Y005935D01*
X004465Y006056D01*
X004530Y006214D01*
X004530Y006386D01*
X004465Y006544D01*
X004344Y006665D01*
X004465Y006544D02*
X006735Y006544D01*
X006686Y006425D02*
X004514Y006425D01*
X004530Y006307D02*
X006670Y006307D01*
X006681Y006188D02*
X004519Y006188D01*
X004470Y006070D02*
X006730Y006070D01*
X006841Y005951D02*
X004359Y005951D01*
X003378Y005833D02*
X009222Y005833D01*
X009341Y005951D02*
X007879Y005951D01*
X009080Y006070D02*
X009459Y006070D01*
X009578Y006188D02*
X009198Y006188D01*
X009317Y006307D02*
X009696Y006307D01*
X009815Y006425D02*
X009435Y006425D01*
X009554Y006544D02*
X009933Y006544D01*
X010052Y006662D02*
X009672Y006662D01*
X009791Y006781D02*
X010170Y006781D01*
X010289Y006899D02*
X009909Y006899D01*
X010028Y007018D02*
X010407Y007018D01*
X010526Y007136D02*
X010146Y007136D01*
X010265Y007255D02*
X010644Y007255D01*
X010763Y007373D02*
X010383Y007373D01*
X010502Y007492D02*
X012194Y007492D01*
X012244Y007610D02*
X010620Y007610D01*
X010104Y008294D02*
X008946Y007136D01*
X008776Y007018D02*
X009207Y007018D01*
X009089Y006899D02*
X007776Y006899D01*
X007866Y006662D02*
X008852Y006662D01*
X008970Y006781D02*
X003090Y006781D01*
X003090Y006899D02*
X003455Y006899D01*
X003482Y006890D02*
X003547Y006880D01*
X004080Y006880D01*
X004080Y007280D01*
X003160Y007280D01*
X003160Y007267D01*
X003170Y007202D01*
X003191Y007139D01*
X003221Y007080D01*
X003260Y007026D01*
X003306Y006980D01*
X003360Y006941D01*
X003419Y006911D01*
X003482Y006890D01*
X003269Y007018D02*
X003090Y007018D01*
X003090Y007136D02*
X003192Y007136D01*
X003162Y007255D02*
X003090Y007255D01*
X003090Y007373D02*
X003166Y007373D01*
X003206Y007492D02*
X003090Y007492D01*
X003090Y007610D02*
X003296Y007610D01*
X003090Y007729D02*
X007011Y007729D01*
X007709Y007729D02*
X008718Y007729D01*
X008600Y007610D02*
X007918Y007610D01*
X009785Y008795D02*
X003090Y008795D01*
X003090Y008914D02*
X023138Y008914D01*
X023263Y009032D02*
X003090Y009032D01*
X004283Y009980D02*
X004530Y009980D01*
X004394Y010099D02*
X004315Y010099D01*
X004315Y010217D02*
X004322Y010217D01*
X005060Y009980D02*
X005530Y009980D01*
X005394Y010099D02*
X005196Y010099D01*
X005269Y010217D02*
X005322Y010217D01*
X006060Y009980D02*
X006530Y009980D01*
X006394Y010099D02*
X006196Y010099D01*
X006269Y010217D02*
X006322Y010217D01*
X007060Y009980D02*
X007561Y009980D01*
X007409Y010099D02*
X007196Y010099D01*
X007269Y010217D02*
X007333Y010217D01*
X007757Y010217D02*
X007834Y010217D01*
X007834Y010099D02*
X007757Y010099D01*
X007757Y009980D02*
X007834Y009980D01*
X008029Y009980D02*
X008530Y009980D01*
X008394Y010099D02*
X008182Y010099D01*
X008258Y010217D02*
X008322Y010217D01*
X007834Y010336D02*
X007757Y010336D01*
X009060Y009980D02*
X009530Y009980D01*
X009394Y010099D02*
X009196Y010099D01*
X009269Y010217D02*
X009322Y010217D01*
X010060Y009980D02*
X010530Y009980D01*
X010394Y010099D02*
X010196Y010099D01*
X010269Y010217D02*
X010322Y010217D01*
X011060Y009980D02*
X011530Y009980D01*
X011394Y010099D02*
X011196Y010099D01*
X011269Y010217D02*
X011322Y010217D01*
X012060Y009980D02*
X012530Y009980D01*
X012394Y010099D02*
X012196Y010099D01*
X012269Y010217D02*
X012322Y010217D01*
X013060Y009980D02*
X013530Y009980D01*
X013394Y010099D02*
X013196Y010099D01*
X013269Y010217D02*
X013322Y010217D01*
X014060Y009980D02*
X014530Y009980D01*
X014394Y010099D02*
X014196Y010099D01*
X014269Y010217D02*
X014322Y010217D01*
X015060Y009980D02*
X015561Y009980D01*
X015409Y010099D02*
X015196Y010099D01*
X015269Y010217D02*
X015333Y010217D01*
X015757Y010217D02*
X015834Y010217D01*
X015834Y010099D02*
X015757Y010099D01*
X015757Y009980D02*
X015834Y009980D01*
X016029Y009980D02*
X016530Y009980D01*
X016394Y010099D02*
X016182Y010099D01*
X016258Y010217D02*
X016322Y010217D01*
X015834Y010336D02*
X015757Y010336D01*
X017060Y009980D02*
X017530Y009980D01*
X017394Y010099D02*
X017196Y010099D01*
X017269Y010217D02*
X017322Y010217D01*
X018060Y009980D02*
X018530Y009980D01*
X018394Y010099D02*
X018196Y010099D01*
X018269Y010217D02*
X018322Y010217D01*
X019060Y009980D02*
X019530Y009980D01*
X019394Y010099D02*
X019196Y010099D01*
X019269Y010217D02*
X019322Y010217D01*
X020060Y009980D02*
X020530Y009980D01*
X020394Y010099D02*
X020196Y010099D01*
X020269Y010217D02*
X020322Y010217D01*
X021060Y009980D02*
X021530Y009980D01*
X021394Y010099D02*
X021196Y010099D01*
X021269Y010217D02*
X021322Y010217D01*
X022060Y009980D02*
X022530Y009980D01*
X022394Y010099D02*
X022196Y010099D01*
X022269Y010217D02*
X022322Y010217D01*
X023060Y009980D02*
X025801Y009980D01*
X025801Y010099D02*
X023196Y010099D01*
X023269Y010217D02*
X025801Y010217D01*
X025801Y010336D02*
X023315Y010336D01*
X023315Y010454D02*
X025801Y010454D01*
X025801Y010573D02*
X023300Y010573D01*
X023251Y010691D02*
X025801Y010691D01*
X025801Y010810D02*
X023154Y010810D01*
X022959Y010928D02*
X025801Y010928D01*
X025801Y011047D02*
X023144Y011047D01*
X023247Y011165D02*
X025798Y011165D01*
X025783Y011284D02*
X023296Y011284D01*
X023315Y011402D02*
X025751Y011402D01*
X025704Y011521D02*
X023315Y011521D01*
X023273Y011639D02*
X025636Y011639D01*
X025531Y011758D02*
X023206Y011758D01*
X023085Y011876D02*
X025384Y011876D01*
X025096Y011995D02*
X001494Y011995D01*
X001206Y011876D02*
X003506Y011876D01*
X003384Y011758D02*
X001059Y011758D01*
X000955Y011639D02*
X003029Y011639D01*
X002910Y011521D02*
X000886Y011521D01*
X004085Y011876D02*
X004506Y011876D01*
X004384Y011758D02*
X004206Y011758D01*
X004273Y011639D02*
X004318Y011639D01*
X005085Y011876D02*
X005541Y011876D01*
X005401Y011758D02*
X005206Y011758D01*
X005273Y011639D02*
X005328Y011639D01*
X005757Y011639D02*
X005834Y011639D01*
X005834Y011521D02*
X005757Y011521D01*
X005757Y011758D02*
X005834Y011758D01*
X005834Y011876D02*
X005757Y011876D01*
X006049Y011876D02*
X006506Y011876D01*
X006384Y011758D02*
X006190Y011758D01*
X006263Y011639D02*
X006318Y011639D01*
X007085Y011876D02*
X007506Y011876D01*
X007384Y011758D02*
X007206Y011758D01*
X007273Y011639D02*
X007318Y011639D01*
X008085Y011876D02*
X008506Y011876D01*
X008384Y011758D02*
X008206Y011758D01*
X008273Y011639D02*
X008318Y011639D01*
X009085Y011876D02*
X009506Y011876D01*
X009384Y011758D02*
X009206Y011758D01*
X009273Y011639D02*
X009318Y011639D01*
X010085Y011876D02*
X010506Y011876D01*
X010384Y011758D02*
X010206Y011758D01*
X010273Y011639D02*
X010318Y011639D01*
X011085Y011876D02*
X011506Y011876D01*
X011384Y011758D02*
X011206Y011758D01*
X011273Y011639D02*
X011318Y011639D01*
X012085Y011876D02*
X012506Y011876D01*
X012384Y011758D02*
X012206Y011758D01*
X012273Y011639D02*
X012318Y011639D01*
X013085Y011876D02*
X013506Y011876D01*
X013384Y011758D02*
X013206Y011758D01*
X013273Y011639D02*
X013318Y011639D01*
X014085Y011876D02*
X014506Y011876D01*
X014384Y011758D02*
X014206Y011758D01*
X014273Y011639D02*
X014318Y011639D01*
X015085Y011876D02*
X015506Y011876D01*
X015384Y011758D02*
X015206Y011758D01*
X015273Y011639D02*
X015318Y011639D01*
X016085Y011876D02*
X016506Y011876D01*
X016384Y011758D02*
X016206Y011758D01*
X016273Y011639D02*
X016318Y011639D01*
X017085Y011876D02*
X017506Y011876D01*
X017384Y011758D02*
X017206Y011758D01*
X017273Y011639D02*
X017318Y011639D01*
X018085Y011876D02*
X018506Y011876D01*
X018384Y011758D02*
X018206Y011758D01*
X018273Y011639D02*
X018318Y011639D01*
X019085Y011876D02*
X019506Y011876D01*
X019384Y011758D02*
X019206Y011758D01*
X019273Y011639D02*
X019318Y011639D01*
X020085Y011876D02*
X020506Y011876D01*
X020384Y011758D02*
X020206Y011758D01*
X020273Y011639D02*
X020318Y011639D01*
X021085Y011876D02*
X021506Y011876D01*
X021384Y011758D02*
X021206Y011758D01*
X021273Y011639D02*
X021318Y011639D01*
X022085Y011876D02*
X022506Y011876D01*
X022384Y011758D02*
X022206Y011758D01*
X022273Y011639D02*
X022318Y011639D01*
X022723Y008203D02*
X023190Y008203D01*
X023390Y008084D02*
X022842Y008084D01*
X022496Y007610D02*
X020649Y007610D01*
X020668Y007591D02*
X020568Y007690D01*
X019719Y007690D01*
X019619Y007591D01*
X019619Y006741D01*
X019719Y006642D01*
X020568Y006642D01*
X020668Y006741D01*
X020668Y007591D01*
X020668Y007492D02*
X022614Y007492D01*
X022733Y007373D02*
X020668Y007373D01*
X020668Y007255D02*
X022851Y007255D01*
X022970Y007136D02*
X020668Y007136D01*
X020668Y007018D02*
X023088Y007018D01*
X023099Y006899D02*
X020668Y006899D01*
X020668Y006781D02*
X023050Y006781D01*
X023025Y006662D02*
X020588Y006662D01*
X019698Y006662D02*
X013195Y006662D01*
X013242Y006781D02*
X019619Y006781D01*
X019619Y006899D02*
X013242Y006899D01*
X013242Y007018D02*
X019619Y007018D01*
X019619Y007136D02*
X013242Y007136D01*
X013242Y007255D02*
X019619Y007255D01*
X019619Y007373D02*
X013242Y007373D01*
X013242Y007492D02*
X019619Y007492D01*
X019638Y007610D02*
X013192Y007610D01*
X012194Y006781D02*
X010991Y006781D01*
X010872Y006662D02*
X012242Y006662D01*
X010754Y006544D02*
X023025Y006544D01*
X023061Y006425D02*
X010635Y006425D01*
X010517Y006307D02*
X023118Y006307D01*
X023236Y006188D02*
X010398Y006188D01*
X004120Y006899D02*
X004080Y006899D01*
X004080Y007018D02*
X004120Y007018D01*
X004120Y007136D02*
X004080Y007136D01*
X004080Y007255D02*
X004120Y007255D01*
X004120Y007373D02*
X004080Y007373D01*
X004080Y007492D02*
X004120Y007492D01*
X004120Y007610D02*
X004080Y007610D01*
X002510Y007610D02*
X000790Y007610D01*
X000790Y007492D02*
X002510Y007492D01*
X002510Y007373D02*
X000790Y007373D01*
X000790Y007255D02*
X002510Y007255D01*
X002510Y007136D02*
X000790Y007136D01*
X000790Y007018D02*
X002510Y007018D01*
X002510Y006899D02*
X000790Y006899D01*
X000790Y006781D02*
X002510Y006781D01*
X002510Y006662D02*
X002246Y006662D01*
X002178Y006730D02*
X001822Y006730D01*
X001570Y006478D01*
X001570Y006122D01*
X001822Y005870D01*
X002178Y005870D01*
X002430Y006122D01*
X002430Y006478D01*
X002178Y006730D01*
X002365Y006544D02*
X002510Y006544D01*
X002510Y006425D02*
X002430Y006425D01*
X002430Y006307D02*
X002510Y006307D01*
X002510Y006188D02*
X002430Y006188D01*
X002378Y006070D02*
X002510Y006070D01*
X002510Y005951D02*
X002259Y005951D01*
X002557Y005833D02*
X000790Y005833D01*
X000790Y005951D02*
X001741Y005951D01*
X001622Y006070D02*
X000790Y006070D01*
X000790Y006188D02*
X001570Y006188D01*
X001570Y006307D02*
X000790Y006307D01*
X000790Y006425D02*
X001570Y006425D01*
X001635Y006544D02*
X000790Y006544D01*
X000790Y006662D02*
X001754Y006662D01*
X003090Y006662D02*
X003334Y006662D01*
X003215Y006544D02*
X003090Y006544D01*
X003090Y006425D02*
X003166Y006425D01*
X003150Y006307D02*
X003090Y006307D01*
X003090Y006188D02*
X003161Y006188D01*
X003141Y006070D02*
X003210Y006070D01*
X003259Y005951D02*
X003321Y005951D01*
X002676Y005714D02*
X000790Y005714D01*
X000790Y005596D02*
X002794Y005596D01*
X002913Y005477D02*
X000790Y005477D01*
X000790Y005359D02*
X003031Y005359D01*
X003170Y005240D02*
X000790Y005240D01*
X000790Y007729D02*
X002510Y007729D01*
X002510Y007847D02*
X000790Y007847D01*
X020676Y001567D02*
X025793Y001567D01*
X025762Y001448D02*
X020673Y001448D01*
M02*
